<?xml version="1.0" encoding="utf-8"?>
<!-- Generator: Adobe Illustrator 18.0.0, SVG Export Plug-In . SVG Version: 6.00 Build 0)  -->
<!DOCTYPE svg PUBLIC "-//W3C//DTD SVG 1.1//EN" "http://www.w3.org/Graphics/SVG/1.1/DTD/svg11.dtd">
<svg version="1.1" id="Layer_1" xmlns="http://www.w3.org/2000/svg" xmlns:xlink="http://www.w3.org/1999/xlink" x="0px" y="0px"
	 viewBox="0 0 960 80" enable-background="new 0 0 960 80" xml:space="preserve">
<g>
	<path fill="#651310" d="M0,40v40h960V40H0z"/>
</g>
<g>
	<path fill="#FFFFFF" d="M212.7,75l17-30h6.7l17.2,30h-7.8l-3.6-6.6h-19l-3.5,6.6H212.7z M226.1,63h13.1l-6.5-12.2L226.1,63z"/>
	<path fill="#FFFFFF" d="M288.5,50.3h-18.8v19h18.8v-6.5l7,1.5v3.5c0,2.8-0.5,4.7-1.6,5.6c-1,1-3,1.5-5.9,1.5h-17.9
		c-2.9,0-4.8-0.5-5.9-1.5c-1-1-1.6-2.8-1.6-5.6V52.1c0-2.8,0.5-4.7,1.6-5.6c1-1,3-1.5,5.9-1.5H288c2.9,0,4.8,0.5,5.9,1.5
		c1,1,1.6,2.8,1.6,5.6v2.8l-7,1.1V50.3z"/>
	<path fill="#FFFFFF" d="M304.1,75l17-30h6.7L345,75h-7.8l-3.6-6.6h-19l-3.5,6.6H304.1z M317.5,63h13.1l-6.5-12.2L317.5,63z"/>
	<path fill="#FFFFFF" d="M354.7,75V45H374c5.5,0,9.8,1.3,12.7,3.9c2.9,2.6,4.4,6.2,4.4,10.9c0,3-0.7,5.7-2,8.1
		c-1.5,2.6-3.5,4.4-6.2,5.5c-2.4,1-6,1.5-10.8,1.5H354.7z M361.7,69.4h9c4.6,0,7.9-0.7,9.9-2c2.2-1.5,3.3-4,3.3-7.6
		c0-6.2-3.3-9.4-9.9-9.4h-12.4V69.4z"/>
	<path fill="#FFFFFF" d="M403.9,75V45h30.7v5.1h-23.7v6.7h13.8v5.1h-13.8v7.4h24V75H403.9z"/>
	<path fill="#FFFFFF" d="M447.8,75V45h5.6l14.1,18.1L481.4,45h5.6v30h-6.5V56.5c0-0.7,0.1-1.8,0.2-3.2c-0.7,1.5-1.3,2.6-1.7,3.1
		l-11.3,15h-1.4L455,56.3c-0.8-1.1-1.4-2.1-1.8-3.1c0.1,1.2,0.2,2.3,0.2,3.2V75H447.8z"/>
	<path fill="#FFFFFF" d="M510,75V61.6L494.4,45h9.3L514,56.5L524.4,45h8.2l-15.5,16.4V75H510z"/>
	<path fill="#FFFFFF" d="M563.2,75V45h25.7c4.5,0,6.7,1.9,6.7,5.8v6.7c0,3.9-2.2,5.8-6.7,5.8h-18.8V75H563.2z M585.8,50.1h-15.7v8.1
		h15.7c1.1,0,1.8-0.1,2.3-0.4c0.6-0.4,0.9-1,0.9-2.1v-3.2c0-1-0.3-1.7-0.9-2.1C587.6,50.2,586.9,50.1,585.8,50.1z"/>
	<path fill="#FFFFFF" d="M606.4,75V45h7v30H606.4z"/>
	<path fill="#FFFFFF" d="M628.7,75V45h7v24.4h22.5V75H628.7z"/>
	<path fill="#FFFFFF" d="M667.8,52.1c0-2.8,0.5-4.7,1.6-5.6c1-1,3-1.5,5.9-1.5h22.1c2.9,0,4.8,0.5,5.9,1.5c1,1,1.6,2.8,1.6,5.6v15.8
		c0,2.8-0.5,4.7-1.6,5.6c-1,1-3,1.5-5.9,1.5h-22.1c-2.9,0-4.8-0.5-5.9-1.5c-1-1-1.6-2.8-1.6-5.6V52.1z M674.8,69.4h23v-19h-23V69.4z
		"/>
	<path fill="#FFFFFF" d="M733.5,50.3V75h-7V50.3h-13.8V45h34.6v5.3H733.5z"/>
</g>
</svg>
