<?xml version="1.0" encoding="utf-8"?>
<!-- Generator: Adobe Illustrator 22.1.0, SVG Export Plug-In . SVG Version: 6.00 Build 0)  -->
<!DOCTYPE svg PUBLIC "-//W3C//DTD SVG 1.1//EN" "http://www.w3.org/Graphics/SVG/1.1/DTD/svg11.dtd">
<svg version="1.1" id="Layer_1" xmlns="http://www.w3.org/2000/svg" xmlns:xlink="http://www.w3.org/1999/xlink" x="0px" y="0px"
	 viewBox="0 0 32 24" style="enable-background:new 0 0 32 24;" xml:space="preserve">
<style type="text/css">
	.st0{fill:#F6F8EB;}
</style>
<g>
	<polygon class="st0" points="10,8.2667 22,12 10,15.7333 11.4667,12 	"/>
</g>
<g>
	<path class="st0" d="M16,1c-0.3711,0-0.7368,0.0181-1.0981,0.0542l0.1982,1.9902C15.396,3.0151,15.6963,3,16,3
		c4.9629,0,9,4.0376,9,9c0,4.9629-4.0371,9-9,9c-0.3042,0-0.605-0.0146-0.9014-0.0439l-0.1953,1.9902
		C15.2642,22.9814,15.6294,23,16,23c6.0654,0,11-4.9346,11-11S22.0654,1,16,1z"/>
	<path class="st0" d="M8.0542,7.7705L6.2905,6.8271C5.9517,7.4614,5.6748,8.1313,5.4673,8.8193l1.915,0.5771
		C7.5513,8.835,7.7778,8.2876,8.0542,7.7705z"/>
	<path class="st0" d="M7,12c0-0.2949,0.0142-0.5864,0.042-0.874l-1.9902-0.1943C5.0171,11.2827,5,11.6396,5,12
		c0,0.3652,0.0176,0.7266,0.0527,1.083l1.9902-0.1953C7.0146,12.5957,7,12.2998,7,12z"/>
	<path class="st0" d="M10.2744,5.0562L9.002,3.5132C8.4492,3.9688,7.9385,4.4819,7.4834,5.0376l1.5479,1.2666
		C9.4038,5.8491,9.8218,5.4292,10.2744,5.0562z"/>
	<path class="st0" d="M9.0396,17.7041l-1.5479,1.2676c0.4531,0.5527,0.9644,1.0654,1.5205,1.5234l1.2715-1.543
		C9.8286,18.5771,9.4097,18.1572,9.0396,17.7041z"/>
	<path class="st0" d="M7.3857,14.6152l-1.9141,0.5801c0.208,0.6865,0.4854,1.3555,0.8242,1.9883l1.7637-0.9434
		C7.7822,15.7227,7.5557,15.1758,7.3857,14.6152z"/>
	<path class="st0" d="M13.3608,3.3926l-0.5859-1.9121c-0.6855,0.21-1.3545,0.4897-1.9873,0.8306l0.9492,1.7607
		C12.2539,3.793,12.8008,3.5645,13.3608,3.3926z"/>
	<path class="st0" d="M10.7993,21.6953c0.6318,0.3398,1.3013,0.6191,1.9893,0.8281l0.583-1.9121
		c-0.5615-0.1719-1.1079-0.3994-1.624-0.6777L10.7993,21.6953z"/>
</g>
</svg>
