<?xml version="1.0" encoding="utf-8"?>
<!-- Generator: Adobe Illustrator 22.1.0, SVG Export Plug-In . SVG Version: 6.00 Build 0)  -->
<!DOCTYPE svg PUBLIC "-//W3C//DTD SVG 1.1//EN" "http://www.w3.org/Graphics/SVG/1.1/DTD/svg11.dtd">
<svg version="1.1" id="Layer_1" xmlns="http://www.w3.org/2000/svg" xmlns:xlink="http://www.w3.org/1999/xlink" x="0px" y="0px"
	 viewBox="0 0 32 24" style="enable-background:new 0 0 32 24;" xml:space="preserve">
<style type="text/css">
	.st0{fill:none;stroke:#D2847E;stroke-width:2;stroke-miterlimit:10;}
	.st1{fill:#D2847E;}
</style>
<g>
	<g>
		<path class="st0" d="M23.1,4.9C24.9,6.7,26,9.2,26,12s-1.1,5.3-2.9,7.1S18.8,22,16,22s-5.3-1.1-7.1-2.9S6,14.8,6,12
			s1.1-5.3,2.9-7.1"/>
		<g>
			<polygon class="st1" points="10.4,7.7 12,1.9 6.2,3.4 			"/>
		</g>
	</g>
</g>
<g id="Layer_6">
	<g>
		<polygon class="st1" points="13.6,16.7 14.1,17.5 15.5,16.3 15.4,15.1 		"/>
		<polygon class="st1" points="12.3,12.5 10.9,13.8 11.7,14.4 13.4,12.9 		"/>
		<path class="st1" d="M20.1,9c-0.2-0.2-2.1,0.5-3.3,1.5l-5,4.4l0.2,0.2l-0.6,0.5l1,1.1l0.6-0.5l0.2,0.2c0,0,3.8-3.3,5-4.4
			C19.3,11,20.3,9.3,20.1,9z M14.9,12.7l2.4-2l0.3,0.3l-2.4,2L14.9,12.7z M15.8,13.6l-0.3-0.3l2.4-2l0.3,0.3L15.8,13.6z"/>
	</g>
</g>
</svg>
