<?xml version="1.0" encoding="utf-8"?>
<!-- Generator: Adobe Illustrator 22.1.0, SVG Export Plug-In . SVG Version: 6.00 Build 0)  -->
<!DOCTYPE svg PUBLIC "-//W3C//DTD SVG 1.1//EN" "http://www.w3.org/Graphics/SVG/1.1/DTD/svg11.dtd">
<svg version="1.1" id="Layer_1" xmlns="http://www.w3.org/2000/svg" xmlns:xlink="http://www.w3.org/1999/xlink" x="0px" y="0px"
	 viewBox="0 0 32 32" style="enable-background:new 0 0 32 32;" xml:space="preserve">
<style type="text/css">
	.st0{fill:none;stroke:#F6F8EB;stroke-width:1.3333;stroke-miterlimit:10;}
	.st1{fill:#F6F8EB;}
	.st2{clip-path:url(#SVGID_2_);fill:#F6F8EB;}
</style>
<circle class="st0" cx="16" cy="16" r="13.3"/>
<circle class="st1" cx="16.7" cy="16" r="1.3"/>
<g>
	<defs>
		<circle id="SVGID_1_" cx="16" cy="16" r="13.3"/>
	</defs>
	<clipPath id="SVGID_2_">
		<use xlink:href="#SVGID_1_"  style="overflow:visible;"/>
	</clipPath>
	<path class="st2" d="M16,10c-1.4,0-2.8,0.3-4,0.9V8.7h0.7V6l-4,2.7h2v3c-2.4,1.7-4,4.5-4,7.7v11H10V24h4v6.3h11.3v-11
		C25.3,14.2,21.2,10,16,10z M14,13.3h6.7v5.3H14V13.3z M24.7,22.7H7.3V20h17.3v2.7H24.7z"/>
	<rect x="2.7" y="20" class="st2" width="2.7" height="5.1"/>
	<rect x="26.7" y="20" class="st2" width="2.7" height="5.1"/>
</g>
</svg>
