<?xml version="1.0" encoding="utf-8"?>
<!-- Generator: Adobe Illustrator 22.1.0, SVG Export Plug-In . SVG Version: 6.00 Build 0)  -->
<!DOCTYPE svg PUBLIC "-//W3C//DTD SVG 1.1//EN" "http://www.w3.org/Graphics/SVG/1.1/DTD/svg11.dtd">
<svg version="1.1" id="Layer_1" xmlns="http://www.w3.org/2000/svg" xmlns:xlink="http://www.w3.org/1999/xlink" x="0px" y="0px"
	 viewBox="0 0 24 24" style="enable-background:new 0 0 24 24;" xml:space="preserve">
<style type="text/css">
	.st0{fill:#21211D;}
</style>
<g>
	<path class="st0" d="M16.2533,11.7133C16.2533,9.3667,14.3467,7.46,12,7.46s-4.2533,1.9067-4.2533,4.2533
		c0,0.5133,0.0733,1.1,0.2933,1.54c0.7333,0.0733,1.54,0.1467,2.3467,0.22c-0.5133-0.44-0.8067-1.1-0.8067-1.76
		c0-1.32,1.1-2.3467,2.42-2.3467s2.3467,1.1,2.3467,2.3467S13.2467,14.06,12,14.06c-2.1267,0-4.84-0.3667-6.16-0.5867l0.2933-1.76
		L1,13.5467l4.18,3.52l0.2933-1.8333c1.32,0.22,4.18,0.5867,6.4533,0.5867C14.3467,15.8933,16.2533,14.06,16.2533,11.7133z"/>
	<path class="st0" d="M23,13.5467l-5.1333-1.8333l0.2933,1.76c-0.44,0.0733-1.1,0.1467-1.8333,0.2933
		c-0.44,0.88-1.1,1.54-1.9067,2.0533c1.6133-0.1467,3.1533-0.3667,4.0333-0.5133L18.82,17.14L23,13.5467z"/>
</g>
</svg>
