<?xml version="1.0" encoding="utf-8"?>
<!-- Generator: Adobe Illustrator 22.1.0, SVG Export Plug-In . SVG Version: 6.00 Build 0)  -->
<!DOCTYPE svg PUBLIC "-//W3C//DTD SVG 1.1//EN" "http://www.w3.org/Graphics/SVG/1.1/DTD/svg11.dtd">
<svg version="1.1" id="Layer_1" xmlns="http://www.w3.org/2000/svg" xmlns:xlink="http://www.w3.org/1999/xlink" x="0px" y="0px"
	 viewBox="0 0 24 24" style="enable-background:new 0 0 24 24;" xml:space="preserve">
<style type="text/css">
	.st0{fill:#21211D;}
</style>
<g>
	<path class="st0" d="M7.5219,8.5187l-6.357,3.6675l6.3532,3.6712v-2.035c0.7974,0.2257,1.5008,0.6771,2.0237,1.294v-3.6712
		c-0.6282-0.3122-1.309-0.5229-2.0237-0.6357L7.5219,8.5187z"/>
	<path class="st0" d="M22.835,12.1862l-6.357-3.6675v2.2908c-0.7147,0.1128-1.3955,0.3273-2.0237,0.6357v3.6712
		c0.5229-0.6169,1.2263-1.0683,2.0237-1.294v2.035L22.835,12.1862z"/>
	<polygon class="st0" points="15.6693,8.3532 11.9981,2 8.3306,8.3532 10.5273,8.3532 10.5273,16.1132 13.4726,16.1132 
		13.4726,8.3532 	"/>
	<rect x="10.5273" y="17.095" class="st0" width="2.9453" height="2.9453"/>
	<rect x="10.5273" y="21.0182" class="st0" width="2.9453" height="0.9818"/>
</g>
</svg>
