<?xml version="1.0" encoding="utf-8"?>
<!-- Generator: Adobe Illustrator 22.1.0, SVG Export Plug-In . SVG Version: 6.00 Build 0)  -->
<!DOCTYPE svg PUBLIC "-//W3C//DTD SVG 1.1//EN" "http://www.w3.org/Graphics/SVG/1.1/DTD/svg11.dtd">
<svg version="1.1" id="Layer_1" xmlns="http://www.w3.org/2000/svg" xmlns:xlink="http://www.w3.org/1999/xlink" x="0px" y="0px"
	 viewBox="0 0 32 32" style="enable-background:new 0 0 32 32;" xml:space="preserve">
<style type="text/css">
	.st0{fill:#F6F8EB;}
</style>
<g>
	<path class="st0" d="M13.3605,11.4785c0-0.8357-0.3223-1.1565-1.1579-1.1565H8.3033c-0.858,0-1.1789,0.3209-1.1789,1.1565v1.5653
		c0,0.9208,0.385,1.1998,1.264,1.3923l4.1574,0.9431c1.7355,0.385,3.0859,0.9208,3.0859,3.0636v2.0578
		c0,2.0354-0.964,2.9994-2.9994,2.9994h-4.608c-2.0354,0-2.9994-0.964-2.9994-2.9994v-1.6504h2.0354v1.6713
		c0,0.8357,0.3209,1.1565,1.1565,1.1565h4.1797c0.8566,0,1.1775-0.3209,1.1775-1.1565v-1.7997c0-0.9222-0.385-1.2221-1.2849-1.4146
		l-4.1364-0.9208c-1.7356-0.3864-3.086-0.9221-3.086-3.065v-1.8206C5.0667,9.4654,6.0321,8.5,8.0675,8.5h4.329
		c2.0354,0,2.9994,0.9654,2.9994,3.0008v1.4788h-2.0354V11.4785z"/>
	<path class="st0" d="M20.601,23.5c-1.6267,0-2.3982-0.7715-2.3982-2.3982v-7.1973c0-1.6267,0.7715-2.3982,2.3982-2.3982h3.976
		c1.6267,0,2.3982,0.7715,2.3982,2.3982v7.1973c0,1.6267-0.7715,2.3982-2.3982,2.3982H20.601z M19.8477,21.0502
		c0,0.685,0.2567,0.9417,0.9431,0.9417h3.5979c0.685,0,0.9417-0.2567,0.9417-0.9417v-7.094c0-0.685-0.2567-0.9417-0.9417-0.9417
		h-3.5979c-0.6864,0-0.9431,0.2567-0.9431,0.9417V21.0502z"/>
</g>
</svg>
