<?xml version="1.0" encoding="utf-8"?>
<!-- Generator: Adobe Illustrator 22.1.0, SVG Export Plug-In . SVG Version: 6.00 Build 0)  -->
<!DOCTYPE svg PUBLIC "-//W3C//DTD SVG 1.1//EN" "http://www.w3.org/Graphics/SVG/1.1/DTD/svg11.dtd">
<svg version="1.1" id="Layer_1" xmlns="http://www.w3.org/2000/svg" xmlns:xlink="http://www.w3.org/1999/xlink" x="0px" y="0px"
	 viewBox="0 0 32 32" style="enable-background:new 0 0 32 32;" xml:space="preserve">
<style type="text/css">
	.st0{fill:#F6F8EB;}
</style>
<g>
	<path class="st0" d="M12.6727,8.5c2.0354,0,3.0008,0.9654,3.0008,3.0008v3.1501c0,2.0354-0.9654,2.9994-3.0008,2.9994H7.4662
		v4.1141h2.3996V23.5H3.3521v-1.7355h2.0564V10.2369H3.3521V8.5H12.6727z M13.6158,11.5218c0-0.8357-0.3209-1.1565-1.1565-1.1565
		h-4.993v5.4422h4.993c0.8357,0,1.1565-0.3209,1.1565-1.1789V11.5218z"/>
	<path class="st0" d="M28.6479,23.5h-2.673L23.56,18.5823h-2.7246v3.5296h1.7648V23.5h-5.0544v-1.3881h1.6448v-9.2174h-1.6448
		v-1.3881h7.4526c1.6281,0,2.3996,0.7715,2.3996,2.3982v2.1763c0,1.5248-0.685,2.3131-2.1247,2.3996l1.7983,3.6314h1.5765V23.5z
		 M24.8281,17.1091c0.6682,0,0.9249-0.2567,0.9249-0.9417v-2.2447c0-0.6682-0.2567-0.9249-0.9249-0.9249h-3.9927v4.1113H24.8281z"/>
</g>
</svg>
