<?xml version="1.0" encoding="utf-8"?>
<!-- Generator: Adobe Illustrator 22.1.0, SVG Export Plug-In . SVG Version: 6.00 Build 0)  -->
<!DOCTYPE svg PUBLIC "-//W3C//DTD SVG 1.1//EN" "http://www.w3.org/Graphics/SVG/1.1/DTD/svg11.dtd">
<svg version="1.1" id="Layer_1" xmlns="http://www.w3.org/2000/svg" xmlns:xlink="http://www.w3.org/1999/xlink" x="0px" y="0px"
	 viewBox="0 0 32 32" style="enable-background:new 0 0 32 32;" xml:space="preserve">
<style type="text/css">
	.st0{fill:#F6F8EB;}
</style>
<g>
	<path class="st0" d="M17.0292,21.8391h-5.3369v-1.5639h1.6713v-7.1568c0-0.858-0.3432-1.1789-1.4997-1.1789
		c-1.7146,0-2.5921,0.385-3.7291,1.1565v7.1791h1.6936v1.5639H4.3639v-1.5639h1.822v-8.4431h-1.822v-1.5639h3.7709v1.6071
		c1.0296-1.0073,1.8652-1.7146,3.9439-1.7146c2.3131,0,3.2352,0.9222,3.2352,2.8934v7.221h1.7153V21.8391z"/>
	<path class="st0" d="M25.45,13.0752c0-0.8147-0.3209-1.1565-1.1565-1.1565h-2.3996c-0.8357,0-1.1579,0.3418-1.1579,1.4997
		c0,1.0491,0.2999,1.243,1.0938,1.3714l3.2994,0.5357c1.7355,0.2999,2.507,0.9431,2.507,3.0636
		c0,2.5293-0.9208,3.4501-2.8711,3.4501h-3.2575c-1.9503,0-2.8711-0.9208-2.8711-2.8711v-0.7282h1.9071v0.7924
		c0,0.8147,0.3432,1.1565,1.1565,1.1565h2.8292c0.8357,0,1.1565-0.3418,1.1565-1.6713c0-1.2207-0.2999-1.4132-1.0924-1.543
		l-3.2994-0.5357c-1.7369-0.2999-2.507-0.9417-2.507-2.892c0-2.3577,0.9208-3.2785,2.8711-3.2785h2.8278
		c1.9503,0,2.8711,0.9208,2.8711,2.8711v0.5357H25.45V13.0752z"/>
</g>
</svg>
