<?xml version="1.0" encoding="utf-8"?>
<!-- Generator: Adobe Illustrator 22.1.0, SVG Export Plug-In . SVG Version: 6.00 Build 0)  -->
<!DOCTYPE svg PUBLIC "-//W3C//DTD SVG 1.1//EN" "http://www.w3.org/Graphics/SVG/1.1/DTD/svg11.dtd">
<svg version="1.1" id="Layer_1" xmlns="http://www.w3.org/2000/svg" xmlns:xlink="http://www.w3.org/1999/xlink" x="0px" y="0px"
	 viewBox="0 0 32 32" style="enable-background:new 0 0 32 32;" xml:space="preserve">
<style type="text/css">
	.st0{fill:#F6F8EB;}
</style>
<g>
	<path class="st0" d="M16.3111,10.2369V23.5h-2.0564L7.0756,11.4576v10.3069h2.2935V23.5H3.0898v-1.7355h2.0578V10.2369H3.0898V8.5
		h4.329l6.9643,11.6574v-9.9205h-2.2935V8.5h6.1509v1.7369H16.3111z"/>
	<path class="st0" d="M22.7592,23.5c-1.6267,0-2.3982-0.7715-2.3982-2.3982v-7.1973c0-1.6267,0.7715-2.3982,2.3982-2.3982h3.7528
		c1.6281,0,2.3982,0.7715,2.3982,2.3982v1.5262h-1.6448v-1.4746c0-0.685-0.2567-0.9417-0.9417-0.9417h-3.3747
		c-0.6864,0-0.9431,0.2567-0.9431,0.9417v7.094c0,0.685,0.2567,0.9417,0.9431,0.9417h3.3747c0.685,0,0.9417-0.2567,0.9417-0.9417
		V19.577h1.6448v1.5248c0,1.6267-0.7701,2.3982-2.3982,2.3982H22.7592z"/>
</g>
</svg>
