<?xml version="1.0" encoding="utf-8"?>
<!-- Generator: Adobe Illustrator 22.1.0, SVG Export Plug-In . SVG Version: 6.00 Build 0)  -->
<!DOCTYPE svg PUBLIC "-//W3C//DTD SVG 1.1//EN" "http://www.w3.org/Graphics/SVG/1.1/DTD/svg11.dtd">
<svg version="1.1" id="Layer_1" xmlns="http://www.w3.org/2000/svg" xmlns:xlink="http://www.w3.org/1999/xlink" x="0px" y="0px"
	 viewBox="0 0 24 24" style="enable-background:new 0 0 24 24;" xml:space="preserve">
<style type="text/css">
	.st0{fill:none;stroke:#21211D;stroke-width:1.6931;stroke-miterlimit:10;}
	.st1{fill:#21211D;}
	.st2{fill:none;stroke:#21211D;stroke-width:0.8466;stroke-miterlimit:10;}
</style>
<circle class="st0" cx="12" cy="12" r="2.5397"/>
<circle class="st0" cx="12" cy="12" r="5.5027"/>
<path class="st1" d="M12,19.1957c-0.992,0-1.9377-0.2017-2.7983-0.5664s-1.6361-0.8922-2.2876-1.5437
	c0.6056-1.6545-0.2587-2.1613-1.5436-2.2876C5.0059,13.9375,4.8042,12.9918,4.8042,12c0-0.992,0.2017-1.9377,0.5664-2.7983
	s0.8921-1.6361,1.5436-2.2876s1.427-1.179,2.2876-1.5436S11.008,4.8043,12,4.8043c0.9058,1.1992,1.8649,1.2141,2.7982,0.5663
	c0.8606,0.3646,1.6361,0.8921,2.2876,1.5436c-0.936,1.351,0.1192,1.8939,1.5437,2.2876c0.3646,0.8605,0.5664,1.8062,0.5664,2.7982
	c0,0.9918-0.2017,1.9375-0.5664,2.7981c-1.2731,0.0896-1.7916,0.8726-1.5437,2.2876c-0.6515,0.6515-1.427,1.179-2.2876,1.5437
	C13.9375,18.9941,12.9918,19.1957,12,19.1957z M12,6.4974c-0.7585,0-1.4817,0.1543-2.1398,0.4331
	C9.2021,7.2092,8.6091,7.6127,8.1109,8.1109C7.6127,8.6091,7.2093,9.2021,6.9304,9.8602C6.6516,10.5184,6.4973,11.2415,6.4973,12
	s0.1543,1.4816,0.4331,2.1398s0.6822,1.2511,1.1805,1.7493c0.4982,0.4982,1.0912,0.9016,1.7493,1.1804
	c0.6581,0.2789,1.3813,0.4331,2.1398,0.4331s1.4817-0.1543,2.1398-0.4331c0.6581-0.2788,1.2511-0.6822,1.7493-1.1804
	c0.4982-0.4982,0.9016-1.0912,1.1805-1.7493c0.2789-0.6581,0.4331-1.3812,0.4331-2.1398s-0.1543-1.4816-0.4331-2.1398
	c-0.2788-0.6581-0.6822-1.2511-1.1805-1.7493c-0.4982-0.4982-1.0912-0.9016-1.7493-1.1804C13.4817,6.6516,12.7585,6.4974,12,6.4974z
	"/>
<g>
	<path class="st2" d="M18.6931,9.1958h-1.9648c0.4886,0.8219,0.7744,1.7786,0.7744,2.8042s-0.2857,1.9823-0.7744,2.8042h1.9648
		L22,13.4022V12v-1.4021L18.6931,9.1958z"/>
	<path class="st2" d="M6.4973,12c0-1.0256,0.2857-1.9823,0.7744-2.8042H5.3069L2,10.5978V12v1.4021l3.3069,1.4021h1.9648
		C6.783,13.9823,6.4973,13.0256,6.4973,12z"/>
</g>
</svg>
