<?xml version="1.0" encoding="utf-8"?>
<!-- Generator: Adobe Illustrator 22.1.0, SVG Export Plug-In . SVG Version: 6.00 Build 0)  -->
<!DOCTYPE svg PUBLIC "-//W3C//DTD SVG 1.1//EN" "http://www.w3.org/Graphics/SVG/1.1/DTD/svg11.dtd">
<svg version="1.1" id="Layer_1" xmlns="http://www.w3.org/2000/svg" xmlns:xlink="http://www.w3.org/1999/xlink" x="0px" y="0px"
	 viewBox="0 0 24 24" style="enable-background:new 0 0 24 24;" xml:space="preserve">
<style type="text/css">
	.st0{fill:#21211D;}
</style>
<g>
	<path class="st0" d="M9.1168,15.3499c-2.0453-0.3719-3.9976-0.7437-6.4148-1.2086c1.5805-1.2086,2.975-2.0453,4.5554-2.882
		c1.8594,2.0453,3.7187,4.0906,5.6711,6.2289c-0.8367,1.4875-1.5805,3.0679-2.4172,4.5554
		C10.4183,22.0436,9.4886,17.5812,9.1168,15.3499z"/>
	<path class="st0" d="M6.9785,9.7718c-0.4648,0.3719-0.9297,0.6508-1.4875,0.9297c-0.4648-2.6031,1.1156-5.857,3.7187-7.4374
		s5.2062-1.6734,8.0882,0c-0.6508,0.3719-1.2086,0.7437-1.6734,1.0226C11.441,3.357,8.373,5.0305,6.9785,9.7718z"/>
	<path class="st0" d="M13.3003,19.5335c0.3719-0.8367,0.6508-1.3016,0.8367-1.7664c5.0203-1.9523,5.857-5.4851,4.9273-9.4827
		c0.2789-0.4648,0.5578-1.1156,1.1156-1.9523c1.4875,3.4398,1.4875,6.4148-0.2789,9.2968
		C18.5995,18.046,16.5542,19.5335,13.3003,19.5335z"/>
	<path class="st0" d="M14.7878,13.9554c-0.4648,0.8367-0.9297,1.6734-1.4875,2.6031c-1.8594-2.0453-3.5328-3.9047-5.2992-5.857
		c0.8367-0.5578,1.4875-1.0226,2.3242-1.5805C11.8128,10.7945,13.3003,12.3749,14.7878,13.9554z"/>
	<path class="st0" d="M11.441,8.5632c0.6508-0.4648,1.2086-0.7437,1.7664-1.2086c1.0226,1.2086,2.0453,2.2312,3.1609,3.4398
		c-0.3719,0.6508-0.6508,1.2086-1.0226,2.0453C13.9511,11.4453,12.8355,10.0507,11.441,8.5632z"/>
	<path class="st0" d="M18.0417,7.6336c-0.2789,0.4648-0.4648,0.8367-0.7437,1.3945c-0.8367-0.9297-1.4875-1.6734-2.3242-2.6031
		c0.3719-0.2789,0.7437-0.5578,1.1156-0.9297C16.8331,6.239,17.3909,6.8898,18.0417,7.6336z"/>
	<path class="st0" d="M20.18,3.543c-0.2789,0.4648-0.4648,1.0226-0.9297,1.8594c-0.3719-0.4648-0.6508-0.7437-1.0226-1.1156
		c0.7437-0.4648,1.2086-0.7437,1.6734-1.0226C19.994,3.357,20.087,3.45,20.18,3.543z"/>
</g>
</svg>
