<?xml version="1.0" encoding="utf-8"?>
<!-- Generator: Adobe Illustrator 22.1.0, SVG Export Plug-In . SVG Version: 6.00 Build 0)  -->
<!DOCTYPE svg PUBLIC "-//W3C//DTD SVG 1.1//EN" "http://www.w3.org/Graphics/SVG/1.1/DTD/svg11.dtd">
<svg version="1.1" id="Layer_1" xmlns="http://www.w3.org/2000/svg" xmlns:xlink="http://www.w3.org/1999/xlink" x="0px" y="0px"
	 viewBox="0 0 24 24" style="enable-background:new 0 0 24 24;" xml:space="preserve">
<style type="text/css">
	.st0{fill:#21211D;}
</style>
<path class="st0" d="M12,14.4l-2.4,3.4l1-3.9l-3.7,1.2l2.9-2.6l-2.4-1.1l2.7-0.4L8.2,7.6l3,2.4L12,6.3l0.8,3.8l3-2.4l-1.9,3.4l3,0.3
	l-2.8,1.2L17,15l-3.7-1.1l0.3,2.8L12,14.4z M22,17.7L16.3,13l5.5-2.4l-6-0.6l3.7-6.7l-5.9,4.8L12,0.7l-1.5,7.5L4.6,3.4l3.7,6.7
	L3,10.8L7.7,13L2,18l7.2-2.5l-2,7.7l4.8-6.7l3.3,4.5l-0.5-5.6L22,17.7z"/>
</svg>
