<?xml version="1.0" encoding="utf-8"?>
<!-- Generator: Adobe Illustrator 22.1.0, SVG Export Plug-In . SVG Version: 6.00 Build 0)  -->
<!DOCTYPE svg PUBLIC "-//W3C//DTD SVG 1.1//EN" "http://www.w3.org/Graphics/SVG/1.1/DTD/svg11.dtd">
<svg version="1.1" id="Layer_1" xmlns="http://www.w3.org/2000/svg" xmlns:xlink="http://www.w3.org/1999/xlink" x="0px" y="0px"
	 viewBox="0 0 24 24" style="enable-background:new 0 0 24 24;" xml:space="preserve">
<style type="text/css">
	.st0{fill:#D44040;}
</style>
<path class="st0" d="M14.1,20C12,20.6,9.8,20.2,8,19.2s-3.2-2.7-3.7-4.9S4.1,10,5.1,8.2S7.8,5,10,4.5s8.2-2.9,8.2-2.9s1,6.4,1.6,8.5
	s0.2,4.3-0.8,6.1C17.9,18.1,16.2,19.5,14.1,20z M11.1,8.8c-1,0.3-1.7,0.9-2.2,1.7s-0.6,1.8-0.4,2.8c0.3,1,0.9,1.7,1.7,2.2
	s1.8,0.6,2.8,0.4c1-0.3,1.7-0.9,2.2-1.7s0.6-1.8,0.4-2.8c-0.3-1-0.9-1.7-1.7-2.2C13,8.7,12,8.5,11.1,8.8z"/>
<path class="st0" d="M9.9,4.6C12.1,4,14.2,4.3,16,5.4c1.8,1,3.2,2.7,3.7,4.9c0.6,2.1,0.2,4.3-0.8,6.1s-2.7,3.2-4.9,3.7
	C11.9,20.7,5.8,23,5.8,23s-1-6.4-1.6-8.5S4,10.2,5,8.4S7.8,5.1,9.9,4.6z M12.9,15.8c1-0.3,1.7-0.9,2.2-1.7s0.6-1.8,0.4-2.8
	c-0.3-1-0.9-1.7-1.7-2.2C13,8.7,12,8.5,11.1,8.8c-1,0.3-1.7,0.9-2.2,1.7s-0.6,1.8-0.4,2.8c0.3,1,0.9,1.7,1.7,2.2
	C11,15.9,12,16.1,12.9,15.8z"/>
</svg>
