<?xml version="1.0" encoding="utf-8"?>
<!-- Generator: Adobe Illustrator 19.2.1, SVG Export Plug-In . SVG Version: 6.00 Build 0)  -->
<!DOCTYPE svg PUBLIC "-//W3C//DTD SVG 1.1//EN" "http://www.w3.org/Graphics/SVG/1.1/DTD/svg11.dtd">
<svg version="1.1" id="Layer_1" xmlns="http://www.w3.org/2000/svg" xmlns:xlink="http://www.w3.org/1999/xlink" x="0px" y="0px"
	 viewBox="0 0 40 40" style="enable-background:new 0 0 40 40;" xml:space="preserve">
<style type="text/css">
	.st0{fill:#F7F9EA;}
</style>
<path class="st0" d="M20.9,40h-1.7l0,0c0,0,0,0-0.1,0c-0.8,0-1.6-0.1-2.4-0.3c-1.9-0.3-3.8-0.9-5.6-1.8c-2.7-1.3-4.9-3.2-6.8-5.5
	C1.6,29,0.2,25.1,0,20.8c0-1,0-2,0.1-3c0.1-1.1,0.3-2.1,0.6-3.1c1-3.6,2.9-6.7,5.6-9.3c1.5-1.4,3.2-2.6,5-3.5c2.5-1.2,5.2-1.9,7.9-2
	c1.1,0,2.1,0,3.2,0.1s2.2,0.4,3.3,0.7c4.1,1.3,7.5,3.6,10.2,7c2.3,3,3.7,6.5,4,10.3c0.1,1.1,0.1,2.2,0,3.3c-0.1,1.1-0.2,2.2-0.5,3.3
	c-1,4.2-3.2,7.7-6.5,10.5c-2.2,1.9-4.6,3.2-7.4,4c-1.4,0.4-2.7,0.6-4.2,0.7C21.3,40,21.1,40,20.9,40L20.9,40z M8.7,24
	c0.5,1.4,1.2,2.6,2.2,3.7H11c1.5-1.3,3-2.6,4.4-3.8h0.1c0.9,1,2,1.7,3.4,1.9c0,0,0.1,0,0,0.1c-0.4,1.9-0.7,3.8-1.1,5.8v0.1
	c1.4,0.3,2.9,0.3,4.3,0c0,0,0.1,0,0-0.1v-0.1c-0.4-1.9-0.7-3.8-1.1-5.6c0-0.1,0-0.1,0.1-0.1c0.8-0.2,1.6-0.5,2.3-1
	c0.4-0.3,0.7-0.6,1.1-0.9h0.1c1.5,1.3,2.9,2.5,4.4,3.8h0.1c0.9-1.1,1.7-2.4,2.2-3.7V24c-1.9-0.6-3.7-1.3-5.6-1.9c0,0,0,0,0-0.1
	c0.4-1.3,0.4-2.6,0-3.9V18c1.9-0.6,3.7-1.3,5.6-1.9c0,0,0,0,0-0.1c-0.5-1.4-1.2-2.6-2.2-3.7H29c-1.5,1.3-3,2.6-4.4,3.8h-0.1
	c-0.9-1-2-1.7-3.4-1.9c0,0-0.1,0,0-0.1c0.4-1.9,0.7-3.8,1.1-5.8V8.2c-1.5-0.3-2.9-0.3-4.3,0c0,0-0.1,0,0,0.1
	c0.4,1.9,0.7,3.8,1.1,5.8v0.1c-0.7,0.1-1.3,0.4-1.8,0.7c-0.6,0.3-1.1,0.8-1.5,1.3h-0.1c-1.5-1.3-3-2.6-4.4-3.8h-0.1
	c-0.9,1.1-1.7,2.4-2.2,3.7v0.1c1.9,0.6,3.7,1.3,5.6,1.9c0,0,0,0,0,0.1c-0.2,0.6-0.3,1.3-0.3,2s0.1,1.3,0.3,1.9v0.1
	C12.4,22.7,10.6,23.3,8.7,24L8.7,24z M4,11.9C4,11.9,3.9,11.9,4,11.9c-1.4,2.7-2,5.5-2,8.5c0.1,2.7,0.7,5.3,1.9,7.7H4
	c0.3-0.1,0.5-0.3,0.8-0.4c0,0,0,0,0-0.1c-0.5-1-0.9-2-1.2-3v-0.1c0.6-0.2,1.2-0.3,1.8-0.5c0,0,0.1,0,0-0.1C5.2,22.6,5,21.3,5,20
	s0.2-2.6,0.5-3.9V16c-0.6-0.2-1.2-0.3-1.8-0.5c0,0-0.1,0,0-0.1c0.3-1.1,0.7-2.1,1.2-3v-0.1C4.5,12.2,4.3,12.1,4,11.9z M34.5,16.1
	c0.7,2.6,0.7,5.2,0,7.8V24c0.6,0.2,1.2,0.3,1.8,0.5c0,0,0.1,0,0,0.1c-0.3,1.1-0.7,2.1-1.2,3v0.1c0.3,0.1,0.5,0.3,0.8,0.4H36
	c2.5-5.4,2.5-10.7,0-16.1h-0.1c-0.3,0.2-0.5,0.3-0.8,0.4c0,0,0,0,0,0.1c0.5,1,0.9,2,1.2,3v0.1C35.7,15.7,35.1,15.9,34.5,16.1
	C34.5,16,34.5,16.1,34.5,16.1z M32.1,8.1c0.8,0.8,1.5,1.6,2.1,2.5h0.1c0.2-0.1,0.5-0.3,0.7-0.4c0,0,0,0,0.1,0v-0.1
	c-3.4-4.9-8-7.6-14-8.1C21,2,21,2,21,2.1V3c0,0,0,0,0.1,0c1.1,0.1,2.2,0.2,3.2,0.5c0,0,0.1,0,0,0.1c-0.2,0.6-0.3,1.2-0.5,1.8v0.1
	c1.3,0.3,2.5,0.8,3.6,1.5s2.2,1.5,3.1,2.4h0.1C31.2,9,31.6,8.5,32.1,8.1C32,8,32.1,8,32.1,8.1z M24.3,36.4
	C24.3,36.4,24.3,36.5,24.3,36.4C24.3,36.5,24.3,36.5,24.3,36.4c-1.1,0.3-2.2,0.5-3.2,0.6c0,0-0.1,0-0.1,0.1V38c0,0,0,0.1,0.1,0.1
	c6.2-0.4,11.2-3.8,13.9-8.1v-0.1c-0.2-0.1-0.5-0.3-0.7-0.4h-0.1c-0.3,0.4-0.6,0.9-1,1.3c-0.3,0.4-0.7,0.8-1.1,1.2H32
	c-0.5-0.5-0.9-0.9-1.4-1.3h-0.1c-1.9,1.9-4.2,3.2-6.7,3.9c0,0-0.1,0,0,0.1C24,35.2,24.2,35.8,24.3,36.4z M9.4,9.4
	c1.9-1.9,4.2-3.2,6.8-3.9c0,0,0.1,0,0-0.1c-0.2-0.6-0.3-1.2-0.5-1.8V3.5c1.1-0.3,2.1-0.4,3.2-0.5C19,3,19,3,19,3V2.1
	c0,0,0-0.1-0.1-0.1c-2.9,0.2-5.7,1-8.2,2.5C8.4,6,6.5,7.8,5,10.1v0.1c0.3,0.1,0.5,0.3,0.7,0.4h0.1c0.3-0.4,0.6-0.9,1-1.3
	c0.3-0.4,0.7-0.8,1.1-1.2H8C8.4,8.5,8.8,9,9.4,9.4C9.3,9.4,9.3,9.4,9.4,9.4z M7.9,31.9c-0.8-0.8-1.5-1.6-2.1-2.5H5.7
	c-0.3,0.1-0.5,0.3-0.7,0.4v0.1c1.7,2.5,4.2,4.9,7.4,6.4c2.1,1,4.3,1.5,6.6,1.7c0,0,0.1,0,0.1-0.1V37c0,0,0-0.1-0.1-0.1
	c-0.5-0.1-1.1-0.1-1.6-0.2c-0.5-0.1-1-0.2-1.6-0.3c0,0-0.1,0,0-0.1c0.2-0.6,0.3-1.2,0.5-1.8v-0.1c-2.6-0.7-4.8-2-6.8-3.9H9.4
	C8.8,31,8.4,31.5,7.9,31.9C8,32,7.9,32,7.9,31.9z"/>
</svg>
