<?xml version="1.0" encoding="utf-8"?>
<!-- Generator: Adobe Illustrator 22.1.0, SVG Export Plug-In . SVG Version: 6.00 Build 0)  -->
<!DOCTYPE svg PUBLIC "-//W3C//DTD SVG 1.1//EN" "http://www.w3.org/Graphics/SVG/1.1/DTD/svg11.dtd">
<svg version="1.1" id="Layer_1" xmlns="http://www.w3.org/2000/svg" xmlns:xlink="http://www.w3.org/1999/xlink" x="0px" y="0px"
	 viewBox="0 0 24 24" style="enable-background:new 0 0 24 24;" xml:space="preserve">
<style type="text/css">
	.st0{display:none;fill:#21211D;}
	.st1{fill:none;stroke:#21211D;stroke-miterlimit:10;}
	.st2{fill:#21211D;}
</style>
<polygon class="st0" points="5,22 17.3,12.7 12.7,10.3 19,2 6.7,11.3 11.3,13.7 "/>
<g>
	<path class="st1" d="M14.4,4.3C13.6,4,12.8,3.9,12,3.9c-4.5,0-8.1,3.6-8.1,8.1c0,2.3,1,4.4,2.5,5.8"/>
	<path class="st1" d="M9.6,19.7c0.8,0.2,1.6,0.4,2.4,0.4c4.5,0,8.1-3.6,8.1-8.1c0-2.3-1-4.4-2.5-5.8"/>
</g>
<polygon class="st2" points="5.7,21 16.8,12.6 12.6,10.5 18.3,3 7.2,11.4 11.4,13.5 "/>
</svg>
