<?xml version="1.0" encoding="utf-8"?>
<!-- Generator: Adobe Illustrator 22.1.0, SVG Export Plug-In . SVG Version: 6.00 Build 0)  -->
<!DOCTYPE svg PUBLIC "-//W3C//DTD SVG 1.1//EN" "http://www.w3.org/Graphics/SVG/1.1/DTD/svg11.dtd">
<svg version="1.1" id="Layer_1" xmlns="http://www.w3.org/2000/svg" xmlns:xlink="http://www.w3.org/1999/xlink" x="0px" y="0px"
	 viewBox="0 0 24 24" style="enable-background:new 0 0 24 24;" xml:space="preserve">
<style type="text/css">
	.st0{display:none;}
	.st1{display:inline;}
	.st2{display:inline;fill:none;stroke:#574E44;stroke-width:2;stroke-linejoin:round;stroke-miterlimit:10;}
	.st3{display:inline;fill:#574E44;}
	.st4{display:inline;fill:none;stroke:#574E44;stroke-miterlimit:10;}
	.st5{fill:none;stroke:#231F20;stroke-width:2.5;stroke-miterlimit:10;}
	.st6{fill:#231F20;}
	.st7{fill:#574E44;}
	.st8{display:inline;fill:none;stroke:#231F20;stroke-width:2.5;stroke-miterlimit:10;}
	.st9{fill:none;stroke:#21211D;stroke-width:3;stroke-miterlimit:10;}
	.st10{fill:#21211D;}
</style>
<g id="Layer_6" class="st0">
	<rect x="-4" class="st1" width="32" height="24"/>
</g>
<g id="Layer_1_1_" class="st0">
	<path class="st2" d="M24,12c0,0-5.4,4.9-12,4.9S0,12,0,12s5.4-4.9,12-4.9S24,12,24,12z"/>
	<path class="st3" d="M12,7.1c-2.7,0-4.9,2.2-4.9,4.9s2.2,4.9,4.9,4.9s4.9-2.2,4.9-4.9S14.7,7.1,12,7.1z M13.6,12.1
		c-0.9,0-1.6-0.7-1.6-1.6c0-0.9,0.7-1.6,1.6-1.6s1.6,0.7,1.6,1.6C15.3,11.4,14.5,12.1,13.6,12.1z"/>
</g>
<g id="Layer_2_1_" class="st0">
	<polygon class="st3" points="17.4,3 12,10 6.6,3 	"/>
	<polygon class="st3" points="6.6,21 12,14 17.4,21 	"/>
	<circle class="st4" cx="12" cy="12" r="4.3"/>
	<polygon class="st3" points="22.3,14.2 14.1,12 22.3,9.8 	"/>
	<polygon class="st3" points="1.7,9.8 9.9,12 1.7,14.2 	"/>
</g>
<g id="Layer_3" class="st0">
	<g class="st1">
		<g>
			<path class="st5" d="M2.3,15c0,0,5.5,1,9.7,1s4.5-2,4.5-4.5S14.5,7,12,7s-4.5,2-4.5,4.5S7.8,16,12,16s9.7-1,9.7-1"/>
			<g>
				<polygon class="st6" points="2.7,18.9 -3,14 4.1,11.5 				"/>
			</g>
			<g>
				<polygon class="st6" points="21.3,18.9 27,14 19.9,11.5 				"/>
			</g>
		</g>
	</g>
</g>
<g id="Layer_4" class="st0">
	<g class="st1">
		<path class="st7" d="M17.8,11.5c0-3.2-2.6-5.8-5.8-5.8s-5.8,2.6-5.8,5.8c0,0.7,0.1,1.5,0.4,2.1c1,0.1,2.1,0.2,3.2,0.3
			c-0.7-0.6-1.1-1.5-1.1-2.4c0-1.8,1.5-3.2,3.3-3.2s3.2,1.5,3.2,3.2s-1.5,3.2-3.2,3.2c-2.9,0-6.6-0.5-8.4-0.8L4,11.5L-3,14l5.7,4.8
			l0.4-2.5c1.8,0.3,5.7,0.8,8.8,0.8C15.2,17.2,17.8,14.7,17.8,11.5z"/>
		<path class="st7" d="M27,14l-7-2.5l0.4,2.4c-0.6,0.1-1.5,0.2-2.5,0.4c-0.6,1.2-1.5,2.1-2.6,2.8c2.2-0.2,4.3-0.5,5.5-0.7l0.5,2.5
			L27,14z"/>
	</g>
	<path class="st8" d="M59,27c-2.5,0-4.5,2-4.5,4.5s2,4.5,4.5,4.5c4.1,0,9.7-1,9.7-1"/>
</g>
<path class="st9" d="M13,6c2.2,2.2,2.2,5.8,0,8s-2.2,5.8,0,8"/>
<g>
	<polygon class="st10" points="10.8,10.1 8.4,1.4 17.1,3.8 	"/>
</g>
<circle class="st10" cx="6.7" cy="11.5" r="2.5"/>
</svg>
