<?xml version="1.0" encoding="utf-8"?>
<!-- Generator: Adobe Illustrator 22.1.0, SVG Export Plug-In . SVG Version: 6.00 Build 0)  -->
<!DOCTYPE svg PUBLIC "-//W3C//DTD SVG 1.1//EN" "http://www.w3.org/Graphics/SVG/1.1/DTD/svg11.dtd">
<svg version="1.1" id="Layer_1" xmlns="http://www.w3.org/2000/svg" xmlns:xlink="http://www.w3.org/1999/xlink" x="0px" y="0px"
	 viewBox="0 0 32 32" style="enable-background:new 0 0 32 32;" xml:space="preserve">
<style type="text/css">
	.st0{fill:none;stroke:#21211D;stroke-width:1.3333;stroke-miterlimit:10;}
	.st1{fill:#21211D;}
	.st2{fill:none;stroke:#21211D;stroke-width:0.5;stroke-miterlimit:10;}
</style>
<g id="Layer_2_1_">
	<circle class="st0" cx="16" cy="16" r="13.3"/>
</g>
<g>
	<circle class="st1" cx="16" cy="16" r="1.7"/>
	<path class="st1" d="M12.0333,19.1733c0.2267-0.2267,0.5667-0.5667,1.02-0.9067C9.4267,21.1,12.4867,16.68,14.3,16
		c0,0,0,0,0-0.1133s0,0,0-0.1133c-1.8133-0.68-4.8733-5.1-1.2467-2.2667c-0.4533-0.1133-0.7933-0.4533-1.02-0.68
		C11.6933,12.7133,11.24,12.6,10.9,12.6c-1.9267,0-3.4,1.4733-3.4,3.4s1.4733,3.4,3.4,3.4
		C11.24,19.4,11.6933,19.2867,12.0333,19.1733z"/>
	<g>
		<polygon class="st2" points="16,13.96 19.6267,11.24 23.3667,8.6333 20.76,12.3733 18.04,16 20.76,19.6267 23.3667,23.3667 
			19.6267,20.76 16,18.04 12.3733,20.76 8.6333,23.3667 11.24,19.6267 13.96,16 11.24,12.3733 8.6333,8.6333 12.3733,11.24 		"/>
	</g>
	<path class="st1" d="M18.2667,18.9467C21.1,22.5733,16.68,19.5133,16,17.7c0,0,0,0-0.1133,0s0,0-0.1133,0
		c-0.68,1.8133-5.1,4.8733-2.2667,1.2467C13.1667,19.4,12.94,19.74,12.6,19.9667c-0.1133,0.34-0.2267,0.68-0.2267,1.1333
		c0,1.9267,1.4733,3.4,3.4,3.4s3.4-1.4733,3.4-3.4c0-0.34-0.1133-0.7933-0.2267-1.1333C18.9467,19.74,18.6067,19.4,18.2667,18.9467z
		"/>
	<path class="st1" d="M21.1,12.6c-0.34,0-0.7933,0.1133-1.1333,0.2267c-0.2267,0.2267-0.5667,0.5667-1.02,0.9067
		C22.5733,10.9,19.5133,15.32,17.7,16c0,0,0,0,0,0.1133c0,0.1133,0,0,0,0.1133c1.8133,0.68,4.8733,5.1,1.2467,2.2667
		c0.4533,0.34,0.7933,0.5667,1.02,0.9067c0.34,0.1133,0.68,0.2267,1.1333,0.2267c1.9267,0,3.4-1.4733,3.4-3.4
		C24.5,14.0733,23.0267,12.6,21.1,12.6z"/>
	<path class="st1" d="M13.7333,13.0533C10.9,9.4267,15.32,12.4867,16,14.3c0,0,0,0,0.1133,0c0.1133,0,0,0,0.1133,0
		c0.68-1.8133,5.1-4.8733,2.2667-1.2467c0.34-0.4533,0.5667-0.7933,0.9067-1.02c0.1133-0.34,0.2267-0.68,0.2267-1.1333
		c0-1.9267-1.4733-3.4-3.4-3.4s-3.4,1.4733-3.4,3.4c0,0.34,0.1133,0.7933,0.2267,1.1333C13.0533,12.26,13.3933,12.6,13.7333,13.0533
		z"/>
</g>
</svg>
