<?xml version="1.0" encoding="utf-8"?>
<!-- Generator: Adobe Illustrator 22.1.0, SVG Export Plug-In . SVG Version: 6.00 Build 0)  -->
<!DOCTYPE svg PUBLIC "-//W3C//DTD SVG 1.1//EN" "http://www.w3.org/Graphics/SVG/1.1/DTD/svg11.dtd">
<svg version="1.1" id="Layer_1" xmlns="http://www.w3.org/2000/svg" xmlns:xlink="http://www.w3.org/1999/xlink" x="0px" y="0px"
	 viewBox="0 0 256 16" style="enable-background:new 0 0 256 16;" xml:space="preserve">
<style type="text/css">
	.st0{opacity:0.2;fill:none;stroke:#21211D;stroke-miterlimit:10;}
	.st1{opacity:0.3;fill:none;stroke:#21211D;stroke-miterlimit:10;}
	.st2{opacity:0.2;fill:none;stroke:#525252;stroke-miterlimit:10;}
</style>
<line class="st0" x1="230.4" y1="16" x2="230.4" y2="0"/>
<line class="st0" x1="204.8" y1="16" x2="204.8" y2="0"/>
<line class="st0" x1="179.2" y1="16" x2="179.2" y2="0"/>
<line class="st0" x1="153.6" y1="16" x2="153.6" y2="0"/>
<line class="st1" x1="128" y1="16" x2="128" y2="0"/>
<line class="st0" x1="102.4" y1="16" x2="102.4" y2="0"/>
<line class="st0" x1="76.8" y1="16" x2="76.8" y2="0"/>
<line class="st0" x1="51.2" y1="16" x2="51.2" y2="0"/>
<line class="st0" x1="25.6" y1="16" x2="25.6" y2="0"/>
<line class="st0" x1="256" y1="16" x2="256" y2="0"/>
<line class="st0" x1="217.6" y1="10" x2="217.6" y2="6"/>
<line class="st0" x1="192" y1="10" x2="192" y2="6"/>
<line class="st0" x1="166.4" y1="10" x2="166.4" y2="6"/>
<line class="st0" x1="140.8" y1="10" x2="140.8" y2="6"/>
<line class="st0" x1="115.2" y1="10" x2="115.2" y2="6"/>
<line class="st0" x1="89.6" y1="10" x2="89.6" y2="6"/>
<line class="st0" x1="64" y1="10" x2="64" y2="6"/>
<line class="st0" x1="38.4" y1="10" x2="38.4" y2="6"/>
<line class="st0" x1="12.8" y1="10" x2="12.8" y2="6"/>
<line class="st0" x1="243.2" y1="10" x2="243.2" y2="6"/>
<line class="st0" x1="0" y1="16" x2="0" y2="0"/>
<line class="st2" x1="0" y1="8" x2="256" y2="8"/>
</svg>
