<?xml version="1.0" encoding="utf-8"?>
<!-- Generator: Adobe Illustrator 18.0.0, SVG Export Plug-In . SVG Version: 6.00 Build 0)  -->
<!DOCTYPE svg PUBLIC "-//W3C//DTD SVG 1.1//EN" "http://www.w3.org/Graphics/SVG/1.1/DTD/svg11.dtd">
<svg version="1.1" xmlns="http://www.w3.org/2000/svg" xmlns:xlink="http://www.w3.org/1999/xlink" x="0px" y="0px"
	 viewBox="0 0 32 32" enable-background="new 0 0 32 32" xml:space="preserve">
<g id="Layer_2">
	<g>
		<g>
			<path fill="none" stroke="#F3F2F1" stroke-miterlimit="10" d="M27.5,15.9c0,3.2-1.3,6.1-3.4,8.1s-5,3.4-8.1,3.4s-6.1-1.3-8.1-3.4
				s-3.4-5-3.4-8.1s1.3-6.1,3.4-8.1s5-3.4,8.1-3.4s6.1,1.3,8.1,3.4"/>
			<g>
				<polygon fill="#F3F2F1" points="20.9,9.6 27.7,11.4 25.9,4.6 				"/>
			</g>
		</g>
	</g>
</g>
<g id="Layer_1">
	<g>
		<g>
			<line fill="none" stroke="#F3F2F1" stroke-width="0.25" stroke-miterlimit="10" x1="0" y1="7.1" x2="32" y2="7.1"/>
			<line fill="none" stroke="#F3F2F1" stroke-width="0.25" stroke-miterlimit="10" x1="0" y1="16" x2="32" y2="16"/>
			<line fill="none" stroke="#F3F2F1" stroke-width="0.25" stroke-miterlimit="10" x1="0" y1="24.9" x2="32" y2="24.9"/>
			<line fill="none" stroke="#F3F2F1" stroke-width="0.25" stroke-miterlimit="10" x1="24.9" y1="0" x2="24.9" y2="32"/>
			<line fill="none" stroke="#F3F2F1" stroke-width="0.25" stroke-miterlimit="10" x1="16" y1="0" x2="16" y2="32"/>
			<line fill="none" stroke="#F3F2F1" stroke-width="0.25" stroke-miterlimit="10" x1="7.1" y1="0" x2="7.1" y2="32"/>
		</g>
	</g>
</g>
</svg>
