<?xml version="1.0" encoding="utf-8"?>
<!-- Generator: Adobe Illustrator 22.1.0, SVG Export Plug-In . SVG Version: 6.00 Build 0)  -->
<!DOCTYPE svg PUBLIC "-//W3C//DTD SVG 1.1//EN" "http://www.w3.org/Graphics/SVG/1.1/DTD/svg11.dtd">
<svg version="1.1" id="Layer_1" xmlns="http://www.w3.org/2000/svg" xmlns:xlink="http://www.w3.org/1999/xlink" x="0px" y="0px"
	 viewBox="0 0 32 32" style="enable-background:new 0 0 32 32;" xml:space="preserve">
<style type="text/css">
	.st0{fill:none;stroke:#F6F8EB;stroke-width:1.3333;stroke-miterlimit:10;}
	.st1{fill:#F6F8EB;}
</style>
<g id="Layer_2_1_">
	<circle class="st0" cx="16" cy="16" r="13.3"/>
</g>
<g>
	<path class="st1" d="M9.8714,12.5645c0.0401-0.4763,0.0783-0.93,0.1237-1.4688c-1.1302-0.5252-2.4226-0.9181-3.7955-1.3524
		c0.1037-0.2286,0.203-0.4475,0.3075-0.6779c1.3298,0.8362,2.8041,1.084,4.1288,1.6921c0.3147-0.1986,0.6273-0.3958,0.9557-0.6031
		c1.3064,0.618,2.7077,0.858,4.0406,1.3171c0.2392,0.0824,0.5311,0.0117,0.8625,0.0117c0.3451-0.9282,0.4913-1.8855,0.8022-2.9598
		c0.4218-0.359,0.9643-0.8209,1.5852-1.3493c-0.1486-0.7925-0.307-1.6378-0.4576-2.441c0.1367-0.17,0.2226-0.2767,0.3499-0.4349
		c0.1696,0.8829,0.3201,1.6666,0.4889,2.5456c0.7105-0.472,1.3789-0.8597,1.9754-1.3371c0.2776-0.2222,0.5212-0.2339,0.8339-0.2022
		c0.1595,0.3308,0.0109,0.5184-0.2704,0.7157C21.04,6.555,20.301,7.1228,19.5761,7.6603c0,0.4623-0.0279,0.8575,0.0053,1.2475
		c0.094,1.1041-0.3832,2.0085-0.9523,2.8903c-0.0898,0.1391-0.1301,0.3102-0.2147,0.5195c0.8142,0.285,1.5795,0.5528,2.3567,0.8248
		c0.2493,0.5284,0.3132,1.1059,0.2594,1.6948c-0.0395,0.4325-0.0072,0.9257-0.2098,1.2737
		c-0.1953,0.3354-0.0691,0.6396-0.1842,0.9832c-0.2359,0-0.4984,0-0.7341,0c-0.1499,0.2293-0.2729,0.4175-0.4288,0.656
		c-0.7595-0.6359-1.6446-0.3863-2.5603-0.4382c-0.0718,0.11-0.1707,0.2614-0.2282,0.3495
		c-0.3055,0.0174-0.5105,0.0291-0.7036,0.0401c-0.2766,0.4956-0.5394,0.9665-0.8338,1.494
		c-0.298-0.0947-0.5613-0.1783-0.8493-0.2698c0-0.2803,0-0.545,0-0.8089c-0.2621-0.1757-0.5015-0.3361-0.761-0.5101
		c0.2206-0.1818,0.4188-0.3451,0.6171-0.5084c-0.5536-0.0843-1.0197-0.2211-1.4753-0.3939
		c-0.0777-0.0295-0.1613-0.1135-0.1879-0.1909c-0.0374-0.1088-0.0241-0.2351-0.0343-0.3803
		c-0.376-0.3594-0.7696-0.7355-1.2178-1.1638c-0.0914,0-0.2677,0-0.4703,0c-0.5674-0.4687-0.8353-1.1497-1.2011-1.7685
		c-0.6814-0.2096-1.3587-0.4043-2.0254-0.6303c-0.2371-0.0803-0.4593-0.2203-0.6692-0.3615
		c-0.3986-0.2682-0.855-0.1345-1.2574-0.191c-0.0867-0.0867-0.1512-0.1512-0.2408-0.2408c0.1346-0.2233,0.2736-0.4538,0.4406-0.7308
		c0.6506,0.4372,1.2741,0.8015,1.9987,1.0101C8.4913,12.2515,9.1122,12.6439,9.8714,12.5645z M17.9856,12.0238
		c0.2903-0.4743,0.5553-0.8724,0.783-1.2907c0.1724-0.3169,0.3741-0.6485,0.4245-0.9937c0.0722-0.494,0.0184-1.0064,0.0184-1.5709
		c-0.9502,0.2208-1.2568,0.8913-1.4582,1.6522c-0.1439,0.5434-0.2798,1.0889-0.4289,1.6309
		c-0.0281,0.1022-0.1014,0.192-0.1476,0.2763c0.119,0.119,0.2042,0.2042,0.296,0.296
		C17.6452,12.0238,17.8242,12.0238,17.9856,12.0238z"/>
	<path class="st1" d="M26.031,20.2351c0.1699,0.1699,0.3196,0.3196,0.4782,0.4782c0.0759,0.4698,0.1544,0.9554,0.22,1.3614
		c-0.7977,1.235-1.4939,2.3927-2.5835,3.2824c-1.0532,0.86-2.2817,1.4135-3.504,2.1711c-0.2485,0-0.6137-0.0163-0.9769,0.0041
		c-0.4512,0.0254-0.8496-0.1264-1.2309-0.3304c-0.5707-0.3054-1.1729-0.5432-1.7483-0.8368
		c-0.4023-0.2052-0.8404-0.3817-1.1723-0.6737c-0.5032-0.4425-1.0466-0.6176-1.7134-0.5195
		c-0.1422-0.2293-0.2782-0.4486-0.3982-0.642c0.0716-0.3816,0.1404-0.7484,0.2186-1.1652c0.0852-0.0852,0.214-0.214,0.4082-0.4082
		c0.213,0.0314,0.481,0.0708,0.9048,0.1333c0.0226-0.0226,0.1479-0.1479,0.3157-0.3157c0.0699,0.0605,0.1771,0.1534,0.298,0.2582
		c0,0.2308,0,0.4686,0,0.7098c0.0624,0.0733,0.1171,0.1408,0.1751,0.2052c0.4435,0.4919,1.0891,0.5957,1.6583,0.8336
		c0.3682,0.1539,0.7723,0.2623,1.1951,0.1994c0.1605-0.0239,2.0296,0.4949,2.2191,0.573c0.1728,0.0712,0.3524,0.1258,0.5807,0.2058
		c0-0.301,0-0.5047,0-0.7114c-0.1957,0.0452-0.4015,0.0927-0.6785,0.1566c-0.0141-0.2433-0.0258-0.4444-0.0384-0.6628
		c0.477-0.3081,0.4519-0.894,0.7204-1.3335c0.4985-0.816,0.5086-0.9027,1.37-1.5195c0.2185-0.1565,0.4052-0.3637,0.5851-0.5665
		c0.5589-0.6302,1.262-0.9052,2.0932-0.8877C25.6381,20.2389,25.8492,20.2351,26.031,20.2351z"/>
	<path class="st1" d="M22.3915,16.9745c0.4833-0.5203,0.9517-0.8037,1.5106-1.0122c0.2767-0.1032,0.5494-0.1436,0.769-0.083
		c0.4815,0.1331,0.9844,0.2344,1.4082,0.5489c0.5496,0.4079,1.0912,1.9492,0.6095,2.5117
		c-0.0925,0.1081-0.1415,0.2626-0.2488,0.3471c-0.2493,0.1963-0.522,0.3629-0.8436,0.5811
		c-0.4478-0.0378-0.9261,0.1133-1.4041,0.3562c-0.4396,0.2233-0.9115,0.3522-1.4058,0.046
		c-0.2322-0.1439-0.6179,0.0969-0.8624-0.4097c0.0388-0.3161,0.0941-0.7659,0.1519-1.2366c0.4053,0,0.7313,0,1.1108,0
		c0.096-0.2091,0.1895-0.4128,0.3161-0.6885C23.1337,17.6162,22.7942,17.3227,22.3915,16.9745z"/>
	<path class="st1" d="M10.5017,22.7739c0.2085-0.2527,0.4863-0.5895,0.7461-0.9042c0.1946,0.0087,0.3364,0.015,0.5773,0.0257
		c-0.922,0.5278-1.3154,1.0508-0.6796,2.616c0.1531-0.1642,0.3841-0.2962,0.3906-0.4386c0.0318-0.6921,0.3834-1.1953,0.8411-1.6612
		c0.0728-0.0741,0.0898-0.2029,0.1456-0.338c0.2505,0,0.5149,0,0.6739,0c0.2914-0.1605,0.4886-0.2691,0.7156-0.3942
		c0.6822,0.5592,1.1041-0.2346,1.7536-0.3671c0.0517,0.562,0.5822,0.9951,0.4152,1.6804c-0.505-0.0828-0.6546-0.5515-1.0359-0.7719
		c-0.2056,0.1058-0.4304,0.2214-0.6428,0.3307c-0.4306,0.0795-0.8623,0.1302-1.2767,0.2439
		c-0.4135,0.1135-0.8127,0.4982-0.8268,0.8902c-0.0226,0.6302-0.4579,1.0964-0.5643,1.7297
		c0.1837,0.1466,0.3937,0.3142,0.523,0.4174c0,0.2762,0,0.4195,0,0.6147c-0.2116-0.162-0.3814-0.2921-0.5679-0.4349
		c-0.249,0.4717-0.4707,0.8917-0.6998,1.3258c-0.2044-0.1013-0.3695-0.183-0.5397-0.2673c0.1562-0.4601,0.3094-0.9122,0.4633-1.3641
		c0.1152-0.3384,0.1285-0.6346-0.0509-0.9946C10.5827,24.1507,10.3352,23.5468,10.5017,22.7739z"/>
	<path class="st1" d="M16.8215,21.9548c0.3612-0.1122,0.6303-0.1959,0.9562-0.2971c0.0953,0.0833,0.2019,0.1764,0.3358,0.2934
		c0,0.3053,0,0.6301,0,1.0261c0.8263,0.2925,1.6211,0.6575,2.504,0.7593c0.0046,0.5722-0.0572,0.6982-0.6008,1.2335
		c-0.4607-0.0782-0.9174-0.1557-1.5758-0.2674c-0.2098-0.1234-0.6012-0.3536-0.999-0.5876
		c-0.3046-0.0836-0.6316-0.1734-1.0082-0.2768C16.6727,23.2072,16.9661,22.6271,16.8215,21.9548z"/>
</g>
</svg>
