<?xml version="1.0" encoding="utf-8"?>
<!-- Generator: Adobe Illustrator 22.1.0, SVG Export Plug-In . SVG Version: 6.00 Build 0)  -->
<!DOCTYPE svg PUBLIC "-//W3C//DTD SVG 1.1//EN" "http://www.w3.org/Graphics/SVG/1.1/DTD/svg11.dtd">
<svg version="1.1" id="Layer_1" xmlns="http://www.w3.org/2000/svg" xmlns:xlink="http://www.w3.org/1999/xlink" x="0px" y="0px" width="2000px" height="2000px"
	 viewBox="0 0 2100 2100" style="enable-background:new 0 0 2100 2100;" preserveAspectRatio="xMinYMin none" xml:space="preserve">
<style type="text/css">
	.st0{fill:#211613;}
	.st1{fill:#231F20;}
</style>
<g id="Layer_1_1_">
</g>
<path class="st0" d="M39.0625,34.0625V26.875L18.75,38.4375L39.0625,50v-6.875C53.75,44.6875,65.3125,57.5,65.3125,72.5h9.375
	C74.6875,52.5,59.0625,35.9375,39.0625,34.0625z"/>
<path class="st0" d="M152.5,25L130,19.0625l5.9375,22.5l4.6875-4.6875c10.9375,12.1875,17.1875,27.8125,17.1875,44.0625h9.375
	c0-19.0625-6.875-36.875-19.6875-50.9375L152.5,25z"/>
<polygon class="st0" points="250,18.125 238.4375,38.4375 245.3125,38.4375 245.3125,81.875 254.6875,81.875 254.6875,38.4375 
	261.5625,38.4375 "/>
<path class="st0" d="M565.3125,40.3125c0-8.75-6.875-15.625-15.625-15.625s-15.625,6.875-15.625,15.625V75.625h9.375V40.3125
	c0-3.4375,2.8124-6.25,6.25-6.25c3.4375,0,6.25,2.8125,6.25,6.25v0.3125h-6.875l11.5625,20.3125l11.5625-20.3125h-6.875V40.3125z"/>
<rect x="634.375" y="34.375" class="st0" width="31.25" height="31.25"/>
<path class="st0" d="M460.9375,34.0625c-20,1.875-35.625,18.4375-35.625,38.75h9.375c0-15.3125,11.5625-27.8125,26.25-29.375v6.875
	L481.25,38.75l-20.3125-11.5625V34.0625z"/>
<path class="st0" d="M349.375,30c-12.8125,14.0625-19.6875,31.875-19.6875,50.9375h9.375c0-16.5625,5.9375-31.875,17.1875-44.0625
	l4.6875,4.6875l5.9375-22.5L344.375,25L349.375,30z"/>
<path class="st1" d="M742.5,34.375c12.5,12.5,19.375,29.0625,19.375,46.5625h9.375c0-20-7.8125-39.0625-22.1875-53.4375
	L742.5,34.375z"/>
<polygon class="st1" points="740.625,50.625 733.4375,40.9375 725.9375,46.5625 733.4375,56.25 727.8125,60.625 749.375,69.6875 
	746.25,46.25 "/>
<path class="st1" d="M850,27.5c-14.375,14.375-22.1875,33.125-22.1875,53.4375h9.375c0-17.5,6.875-34.0625,19.375-46.5625L850,27.5z
	"/>
<polygon class="st1" points="873.4375,46.5625 865.9375,40.9375 858.4376,50.625 853.125,46.25 850,69.6875 871.5625,60.625 
	865.9375,56.25 "/>
<path class="st0" d="M1035.625,79.6875h-9.0625v-51.875h41.25v9.0625h-32.1874L1035.625,79.6875L1035.625,79.6875z M1065.625,53.125
	v-6.5625h-5.3125v6.5625H1052.5l10.3124,18.4375l10.3125-18.4375H1065.625z"/>
<path class="st0" d="M964.375,37.1875h-32.1874v-9.375h41.2501V79.375h-9.0625L964.375,37.1875L964.375,37.1875z M926.5625,52.8125
	L936.8749,71.25l10.3125-18.4375h-7.8125V46.25h-4.9999v6.875L926.5625,52.8125z"/>
<g id="Layer_2_1_">
</g>
<path class="st1" d="M1171.0449,37.1875v-9.375h-25v9.375h7.5859c-0.8164,8.4812-3.8893,16.4408-8.8447,23.2506l-0.7899-0.9214
	l-5.3108,5.3108l-5.311,5.311l1.6163,1.6165l1.3855,1.3853l1.6165,1.6165l1.3853,1.6163l1.6166,1.3855l1.6162,1.6165l5.311-5.311
	l5.0801-5.311l-1.3854-1.6163l-0.0845-0.0725c6.6189-8.6342,10.5924-18.9175,11.4735-29.8767h8.0394V37.1875z"/>
<path class="st1" d="M1261.3146,64.8275l-5.3108-5.3108l-0.7899,0.9212c-4.9554-6.8098-8.0283-14.7694-8.8447-23.2504h7.5859v-9.375
	h-25v9.375h8.0394c0.8811,10.9592,4.8546,21.2425,11.4735,29.8767l-0.0845,0.0725l-1.3854,1.6163l5.0801,5.311l5.311,5.311
	l1.6162-1.6165l1.6166-1.3855l1.3853-1.6163l1.6165-1.6165l1.3855-1.3853l1.6163-1.6165L1261.3146,64.8275z"/>
<polygon class="st1" points="1362.5,37.1875 1362.5,27.8125 1337.5,27.8125 1337.5,37.1875 1345.3125,37.1875 1345.3125,63.5059 
	1343.1641,63.5059 1343.1641,79.375 1356.8359,79.375 1356.8359,63.5059 1354.6875,63.5059 1354.6875,37.1875 "/>
<path class="st0" d="M35.625,2027.5h28.75c2.1875,0,4.0625,0.9375,5.625,2.5s2.5,3.4375,2.5,5.625v28.75
	c0,2.1875-0.9375,4.0625-2.5,5.625s-3.4375,2.5-5.625,2.5h-28.75c-2.1875,0-4.0625-0.9375-5.625-2.5s-2.5-3.4375-2.5-5.625v-28.75
	c0-2.1875,0.9375-4.0625,2.5-5.625S33.4375,2027.5,35.625,2027.5z M63.4375,2034.375H35.625c-0.3125,0-0.625,0-0.9375,0.3125
	s-0.3125,0.625-0.3125,0.9375v23.125L63.4375,2034.375z M36.5625,2065.625H64.375c0.3125,0,0.625,0,0.9375-0.3125
	s0.3125-0.625,0.3125-0.9375v-23.125L36.5625,2065.625z"/>
<path class="st0" d="M139.6875,2042.8125L152.5,2027.5h8.125v45h-6.875v-35.9375l-5.3125,6.25H139.6875z"/>
<path class="st0" d="M235.625,2027.5h28.75c2.1875,0,4.0625,0.9375,5.625,2.5s2.5,3.4375,2.5,5.625v10.3125
	c0,2.1875-0.9375,4.0625-2.5,5.625s-3.4375,2.5-5.625,2.5h-28.75c-0.3125,0-0.625,0-0.9375,0.3125s-0.3125,0.625-0.3125,0.9375
	v9.0625c0,0.3125,0,0.625,0.3125,0.9375s0.625,0.3125,0.9375,0.3125H272.5v6.875h-45v-17.1875c0-2.1875,0.9375-4.0625,2.5-5.625
	s3.4375-2.5,5.625-2.5h28.75c0.3125,0,0.625,0,0.9375-0.3125s0.3125-0.625,0.3125-0.9375v-10.3125c0-0.3125,0-0.625-0.3125-0.9375
	s-0.625-0.3125-0.9375-0.3125h-28.75c-0.3125,0-0.625,0-0.9375,0.3125s-0.3125,0.625-0.3125,0.9375v2.5H227.5v-2.5
	c0-2.1875,0.9375-4.0625,2.5-5.625S233.4375,2027.5,235.625,2027.5z"/>
<path class="st0" d="M369.6875,2048.4375c1.875,1.5625,2.8125,3.4375,2.8125,5.9375v10c0,2.1875-0.9375,4.0625-2.5,5.625
	s-3.4375,2.5-5.625,2.5h-28.75c-2.1875,0-4.0625-0.9375-5.625-2.5s-2.5-3.4375-2.5-5.625v-1.875h6.875v1.875
	c0,0.3125,0,0.625,0.3125,0.9375s0.625,0.3125,0.9375,0.3125h28.75c0.3125,0,0.625,0,0.9375-0.3125s0.3125-0.625,0.3125-0.9375v-10
	c0-0.3125,0-0.625-0.3125-0.9375s-0.625-0.3125-0.9375-0.3125h-28.75v-6.875H362.5c0.3125,0,0.625,0,0.9375-0.3125
	s0.3125-0.625,0.3125-0.9375v-9.0625c0-0.3125,0-0.625-0.3125-0.9375s-0.625-0.3125-0.9375-0.3125h-26.875
	c-0.3125,0-0.625,0-0.9375,0.3125s-0.3125,0.625-0.3125,0.9375v2.5H327.5v-2.5c0-2.1875,0.9375-4.0625,2.5-5.625
	s3.4375-2.5,5.625-2.5H362.5c2.1875,0,4.0625,0.9375,5.625,2.5s2.5,3.4375,2.5,5.625V2045
	C370.625,2045.9375,370.3125,2047.1875,369.6875,2048.4375z"/>
<path class="st0" d="M465,2054.375h6.5625v6.875H465v11.5625h-6.875V2061.25h-29.6875v-6.875l29.6875-26.875H465V2054.375z
	 M458.125,2038.125l-20,16.25h20V2038.125z"/>
<path class="st0" d="M534.375,2035.625v9.0625c0,0.3125,0,0.625,0.3125,0.9375c0.3126,0.3125,0.625,0.3125,0.9375,0.3125h28.75
	c2.1875,0,4.0625,0.9375,5.625,2.5s2.5001,3.4375,2.5001,5.625v10.3125c0,2.1875-0.9376,4.0625-2.5001,5.625s-3.4375,2.5-5.625,2.5
	h-28.75c-2.1874,0-4.0625-0.9375-5.625-2.5s-2.5-3.4375-2.5-5.625v-2.5h6.875v2.5c0,0.3125,0,0.625,0.3125,0.9375
	c0.3126,0.3125,0.625,0.3125,0.9375,0.3125h28.75c0.3126,0,0.625,0,0.9375-0.3125c0.3126-0.3125,0.3126-0.625,0.3126-0.9375
	v-10.3125c0-0.3125,0-0.625-0.3126-0.9375c-0.3125-0.3125-0.6249-0.3125-0.9375-0.3125H527.5v-6.875l0,0c0-0.625,0-0.9375,0-1.25
	V2027.5h45v6.875h-36.875c-0.3126,0-0.625,0-0.9375,0.3125C534.3749,2035,534.375,2035.3125,534.375,2035.625z"/>
</svg>
