<?xml version="1.0" encoding="utf-8"?>
<!-- Generator: Adobe Illustrator 22.1.0, SVG Export Plug-In . SVG Version: 6.00 Build 0)  -->
<!DOCTYPE svg PUBLIC "-//W3C//DTD SVG 1.1//EN" "http://www.w3.org/Graphics/SVG/1.1/DTD/svg11.dtd">
<svg version="1.1" xmlns="http://www.w3.org/2000/svg" xmlns:xlink="http://www.w3.org/1999/xlink" x="0px" y="0px"
	 viewBox="0 0 1760 1760" style="enable-background:new 0 0 1760 1760;" preserveAspectRatio="none"  xml:space="preserve">
<style type="text/css">
	.st0{fill:#211613;}
	.st1{display:none;}
	.st2{display:inline;}
	.st3{fill:none;stroke:#000000;stroke-miterlimit:10;}
	.st4{fill:none;stroke:#211613;stroke-miterlimit:10;}
</style>
<g id="Layer_1">
	<path class="st0" d="M218,562.7l-11.2,10c16.6,18.5,25.7,42.4,25.7,67.3h15C247.5,611.5,237,584,218,562.7z M237.6,635.6h6.3v1.4
		h-7.8v-3.1c0-0.4,0.1-0.8,0.4-1.1c0.3-0.3,0.7-0.4,1.1-0.4h4.8c0.1,0,0.1,0,0.1-0.1v-1.8c0-0.1,0-0.1-0.1-0.1h-4.8
		c-0.1,0-0.1,0-0.1,0.1v0.6h-1.4v-0.6c0-0.4,0.1-0.8,0.4-1.1c0.3-0.3,0.7-0.4,1.1-0.4h4.8c0.4,0,0.8,0.1,1.1,0.4s0.4,0.7,0.4,1.1
		v1.8c0,0.4-0.1,0.8-0.4,1.1c-0.3,0.3-0.7,0.4-1.1,0.4h-4.8c-0.1,0-0.1,0-0.1,0.1L237.6,635.6C237.5,635.5,237.5,635.6,237.6,635.6z
		"/>
	<path class="st0" d="M228.5,750.2l-11.2,10c9.8,11,15.2,25.1,15.2,39.8h15C247.5,781.6,240.7,763.9,228.5,750.2z M239.5,797v-5.8
		l-0.6,0.7H237l2.4-2.8h1.6v7.9L239.5,797L239.5,797z"/>
	<path class="st0" d="M392.5,770v30h15v-30H392.5z M401,797h-1.4v-5.8l-0.6,0.7h-2l2.4-2.8h1.6V797z"/>
	<path class="st0" d="M734.5,427c-14.2,14.2-22,33-22,53h15c0-16,6.2-31.1,17.6-42.4c11.3-11.3,26.4-17.6,42.4-17.6v-15
		C767.5,405,748.6,412.8,734.5,427z M723.9,475.5c0,0.4-0.1,0.8-0.4,1.1c-0.3,0.3-0.6,0.4-1.1,0.4h-4.8c-0.4,0-0.8-0.1-1.1-0.4
		s-0.4-0.7-0.4-1.1V475h1.4v0.5c0,0.1,0,0.1,0.1,0.1h4.8c0,0,0.1,0,0.1-0.1v-1.7c0-0.1,0-0.1-0.1-0.1h-5v-1.4h4.7
		c0.1,0,0.1,0,0.1-0.1v-1.6c0-0.1,0-0.1-0.1-0.1h-4.5c-0.1,0-0.1,0-0.1,0.1v0.6h-1.4v-0.6c0-0.4,0.1-0.8,0.4-1.1
		c0.3-0.3,0.7-0.4,1.1-0.4h4.5c0.4,0,0.8,0.1,1.1,0.4s0.4,0.7,0.4,1.1v1.6c0,0.2,0,0.4-0.1,0.6c0.3,0.3,0.4,0.6,0.4,1L723.9,475.5
		L723.9,475.5z"/>
	<path class="st0" d="M712.5,640h15c0-22.1,17.9-40,40-40v-15C737.2,585,712.5,609.7,712.5,640z M723.9,632.4c0,0.4-0.1,0.8-0.4,1.1
		c-0.3,0.3-0.7,0.4-1.1,0.4h-4.8c-0.1,0-0.1,0-0.1,0.1v1.5c0,0.1,0,0.1,0.1,0.1h6.3v1.4h-7.8v-3.1c0-0.4,0.1-0.8,0.4-1.1
		c0.3-0.3,0.7-0.4,1.1-0.4h4.8c0.1,0,0.1,0,0.1-0.1v-1.8c0-0.1,0-0.1-0.1-0.1h-4.8c-0.1,0-0.1,0-0.1,0.1v0.6h-1.4v-0.6
		c0-0.4,0.1-0.8,0.4-1.1c0.3-0.3,0.7-0.4,1.1-0.4h4.8c0.4,0,0.8,0.1,1.1,0.4s0.4,0.7,0.4,1.1V632.4z"/>
	<path class="st0" d="M712.5,800h15c0-11,9-20,20-20v-15C728.2,765,712.5,780.7,712.5,800z M721,797h-1.4v-5.8l-0.6,0.7h-2l2.4-2.8
		h1.6V797z"/>
	<path class="st0" d="M65.5,427c-14.2-14.2-33-22-53-22v15c16,0,31.1,6.2,42.4,17.6C66.3,448.9,72.5,464,72.5,480h15
		C87.5,460,79.7,441.1,65.5,427z M83.5,476.6c-0.3,0.3-0.6,0.4-1.1,0.4h-4.8c-0.4,0-0.8-0.1-1.1-0.4c-0.3-0.3-0.4-0.7-0.4-1.1V475
		h1.4v0.5c0,0.1,0,0.1,0.1,0.1h4.8c0,0,0.1,0,0.1-0.1v-1.7c0-0.1,0-0.1-0.1-0.1h-5v-1.4h4.7c0.1,0,0.1,0,0.1-0.1v-1.6
		c0-0.1,0-0.1-0.1-0.1h-4.5c-0.1,0-0.1,0-0.1,0.1v0.6h-1.4v-0.6c0-0.4,0.1-0.8,0.4-1.1c0.3-0.3,0.7-0.4,1.1-0.4h4.5
		c0.4,0,0.8,0.1,1.1,0.4c0.3,0.3,0.4,0.7,0.4,1.1v1.6c0,0.2,0,0.4-0.1,0.6c0.3,0.3,0.4,0.6,0.4,1v1.7
		C83.9,475.9,83.8,476.3,83.5,476.6z"/>
	<path class="st0" d="M32.5,585v15c22.1,0,40,17.9,40,40h15C87.5,609.7,62.8,585,32.5,585z M77.6,635.6h6.3v1.4h-7.8v-3.1
		c0-0.4,0.1-0.8,0.4-1.1s0.7-0.4,1.1-0.4h4.8c0.1,0,0.1,0,0.1-0.1v-1.8c0-0.1,0-0.1-0.1-0.1h-4.8c-0.1,0-0.1,0-0.1,0.1v0.6h-1.4
		v-0.6c0-0.4,0.1-0.8,0.4-1.1s0.7-0.4,1.1-0.4h4.8c0.4,0,0.8,0.1,1.1,0.4s0.4,0.7,0.4,1.1v1.8c0,0.4-0.1,0.8-0.4,1.1
		s-0.7,0.4-1.1,0.4h-4.8c-0.1,0-0.1,0-0.1,0.1L77.6,635.6C77.5,635.5,77.5,635.6,77.6,635.6z"/>
	<path class="st0" d="M52.5,765v15c11,0,20,9,20,20h15C87.5,780.7,71.8,765,52.5,765z M79.6,797v-5.8l-0.6,0.7h-2l2.4-2.8H81v7.9
		L79.6,797L79.6,797z"/>
	<path class="st0" d="M592.5,375.2c-25.8,28.9-40,66.1-40,104.8h15c0-35,12.9-68.7,36.2-94.8L592.5,375.2z M563.9,475.5
		c0,0.4-0.1,0.8-0.4,1.1c-0.3,0.3-0.6,0.4-1.1,0.4h-4.8c-0.4,0-0.8-0.1-1.1-0.4s-0.4-0.7-0.4-1.1V475h1.4v0.5c0,0.1,0,0.1,0.1,0.1
		h4.8c0,0,0.1,0,0.1-0.1v-1.7c0-0.1,0-0.1-0.1-0.1h-5v-1.4h4.7c0.1,0,0.1,0,0.1-0.1v-1.6c0-0.1,0-0.1-0.1-0.1h-4.5
		c-0.1,0-0.1,0-0.1,0.1v0.6h-1.4v-0.6c0-0.4,0.1-0.8,0.4-1.1c0.3-0.3,0.7-0.4,1.1-0.4h4.5c0.4,0,0.8,0.1,1.1,0.4s0.4,0.7,0.4,1.1
		v1.6c0,0.2,0,0.4-0.1,0.6c0.3,0.3,0.4,0.6,0.4,1L563.9,475.5L563.9,475.5z"/>
	<path class="st0" d="M207.5,375.2l-11.2,10c23.3,26.1,36.2,59.8,36.2,94.8h15C247.5,441.3,233.3,404.1,207.5,375.2z M243.5,476.6
		c-0.3,0.3-0.6,0.4-1.1,0.4h-4.8c-0.4,0-0.8-0.1-1.1-0.4s-0.4-0.7-0.4-1.1V475h1.4v0.5c0,0.1,0,0.1,0.1,0.1h4.8c0,0,0.1,0,0.1-0.1
		v-1.7c0-0.1,0-0.1-0.1-0.1h-5v-1.4h4.7c0.1,0,0.1,0,0.1-0.1v-1.6c0-0.1,0-0.1-0.1-0.1h-4.5c-0.1,0-0.1,0-0.1,0.1v0.6h-1.4v-0.6
		c0-0.4,0.1-0.8,0.4-1.1c0.3-0.3,0.7-0.4,1.1-0.4h4.5c0.4,0,0.8,0.1,1.1,0.4s0.4,0.7,0.4,1.1v1.6c0,0.2,0,0.4-0.1,0.6
		c0.3,0.3,0.4,0.6,0.4,1v1.7C243.9,475.9,243.8,476.3,243.5,476.6z"/>
	<path class="st0" d="M402.1,955.5C402.1,955.5,402.2,955.5,402.1,955.5l0.1-3.6l-4.3,3.6H402.1z"/>
	<path class="st0" d="M397.9,950.6C397.9,950.6,397.8,950.6,397.9,950.6l-0.1,3.6l4.3-3.6H397.9z"/>
	<path class="st0" d="M392.5,945v15h15v-15H392.5z M403.9,955.4c0,0.4-0.1,0.8-0.4,1.1s-0.7,0.5-1.1,0.5h-4.8
		c-0.4,0-0.8-0.2-1.1-0.5c-0.3-0.3-0.4-0.7-0.4-1.1v-4.8c0-0.4,0.1-0.8,0.4-1.1s0.7-0.5,1.1-0.5h4.8c0.4,0,0.8,0.2,1.1,0.5
		c0.3,0.3,0.4,0.7,0.4,1.1V955.4z"/>
	<path class="st0" d="M392.5,10v150h15V10H392.5z M403.9,150.5h-6.3c-0.1,0-0.1,0-0.1,0.1v1.6c0,0,0,0.1,0.1,0.1h4.8
		c0.4,0,0.8,0.1,1.1,0.4c0.3,0.3,0.4,0.7,0.4,1.1v1.8c0,0.4-0.1,0.8-0.4,1.1s-0.7,0.4-1.1,0.4h-4.8c-0.4,0-0.8-0.1-1.1-0.4
		c-0.3-0.3-0.4-0.7-0.4-1.1V155h1.4v0.6c0,0.1,0,0.1,0.1,0.1h4.8c0.1,0,0.1,0,0.1-0.1v-1.8c0,0,0-0.1-0.1-0.1h-6.3v-4.6h7.8V150.5z"
		/>
	<path class="st0" d="M571.5,750.2c-12.3,13.7-19,31.4-19,49.8h15c0-14.7,5.4-28.8,15.2-39.8L571.5,750.2z M561,797h-1.4v-5.8
		l-0.6,0.7h-2l2.4-2.8h1.6V797z"/>
	<path class="st0" d="M582,562.7c-19,21.3-29.5,48.7-29.5,77.3h15c0-24.9,9.1-48.7,25.7-67.3L582,562.7z M563.9,632.4
		c0,0.4-0.1,0.8-0.4,1.1s-0.7,0.4-1.1,0.4h-4.8c-0.1,0-0.1,0-0.1,0.1v1.5c0,0.1,0,0.1,0.1,0.1h6.3v1.4h-7.8v-3.1
		c0-0.4,0.1-0.8,0.4-1.1s0.7-0.4,1.1-0.4h4.8c0.1,0,0.1,0,0.1-0.1v-1.8c0-0.1,0-0.1-0.1-0.1h-4.8c-0.1,0-0.1,0-0.1,0.1v0.6h-1.4
		v-0.6c0-0.4,0.1-0.8,0.4-1.1s0.7-0.4,1.1-0.4h4.8c0.4,0,0.8,0.1,1.1,0.4s0.4,0.7,0.4,1.1V632.4z"/>
	<polygon class="st0" points="401.2,313.6 401.2,311.4 398.5,313.6 	"/>
	<path class="st0" d="M392.5,200v120h15V200H392.5z M403.8,315h-1.1v2h-1.4v-2h-5v-1.4l5.1-4.6h1.4v4.5h1.1v1.5H403.8z"/>
	<path class="st0" d="M392.5,390v90h15v-90H392.5z M403.9,475.5c0,0.4-0.1,0.8-0.4,1.1c-0.3,0.3-0.6,0.4-1.1,0.4h-4.8
		c-0.4,0-0.8-0.1-1.1-0.4c-0.3-0.3-0.4-0.7-0.4-1.1V475h1.4v0.5c0,0.1,0,0.1,0.1,0.1h4.8c0,0,0.1,0,0.1-0.1v-1.7
		c0-0.1,0-0.1-0.1-0.1h-5v-1.4h4.7c0.1,0,0.1,0,0.1-0.1v-1.6c0-0.1,0-0.1-0.1-0.1h-4.5c-0.1,0-0.1,0-0.1,0.1v0.6h-1.4v-0.6
		c0-0.4,0.1-0.8,0.4-1.1c0.3-0.3,0.7-0.4,1.1-0.4h4.5c0.4,0,0.8,0.1,1.1,0.4c0.3,0.3,0.4,0.7,0.4,1.1v1.6c0,0.2,0,0.4-0.1,0.6
		c0.3,0.3,0.4,0.6,0.4,1V475.5z"/>
	<path class="st0" d="M392.5,580v60h15v-60H392.5z M403.9,632.4c0,0.4-0.1,0.8-0.4,1.1s-0.7,0.4-1.1,0.4h-4.8c-0.1,0-0.1,0-0.1,0.1
		v1.5c0,0.1,0,0.1,0.1,0.1h6.3v1.4h-7.8v-3.1c0-0.4,0.1-0.8,0.4-1.1s0.7-0.4,1.1-0.4h4.8c0.1,0,0.1,0,0.1-0.1v-1.8
		c0-0.1,0-0.1-0.1-0.1h-4.8c-0.1,0-0.1,0-0.1,0.1v0.6h-1.4v-0.6c0-0.4,0.1-0.8,0.4-1.1s0.7-0.4,1.1-0.4h4.8c0.4,0,0.8,0.1,1.1,0.4
		s0.4,0.7,0.4,1.1V632.4z"/>
	<path class="st0" d="M872.5,10v150h15V10H872.5z M883.9,150.5h-6.3c-0.1,0-0.1,0-0.1,0.1v1.6c0,0,0,0.1,0.1,0.1h4.8
		c0.4,0,0.8,0.1,1.1,0.4c0.3,0.3,0.4,0.7,0.4,1.1v1.8c0,0.4-0.1,0.8-0.4,1.1c-0.3,0.3-0.7,0.4-1.1,0.4h-4.8c-0.4,0-0.8-0.1-1.1-0.4
		c-0.3-0.3-0.4-0.7-0.4-1.1V155h1.4v0.6c0,0.1,0,0.1,0.1,0.1h4.8c0.1,0,0.1,0,0.1-0.1v-1.8c0,0,0-0.1-0.1-0.1h-6.3v-4.6h7.8V150.5z
		 M881.1,22.7h-0.2h-1.8h-0.2l-2.9-3.5h2.3l0.8,0.9V13h1.8v7.1l0.8-0.9h2.3L881.1,22.7z"/>
	<polygon class="st0" points="881.2,313.6 881.2,311.4 878.5,313.6 	"/>
	<path class="st0" d="M872.5,200v120h15V200H872.5z M883.8,315h-1.1v2h-1.4v-2h-5v-1.4l5.1-4.6h1.4v4.5h1.1L883.8,315L883.8,315z
		 M881.1,212.7h-0.2h-1.8h-0.2l-2.9-3.5h2.3l0.8,0.9V203h1.8v7.1l0.8-0.9h2.3L881.1,212.7z"/>
	<path class="st0" d="M872.5,390v90h15v-90H872.5z M883.9,475.5c0,0.4-0.1,0.8-0.4,1.1c-0.3,0.3-0.6,0.4-1.1,0.4h-4.8
		c-0.4,0-0.8-0.1-1.1-0.4s-0.4-0.7-0.4-1.1V475h1.4v0.5c0,0.1,0,0.1,0.1,0.1h4.8c0,0,0.1,0,0.1-0.1v-1.7c0-0.1,0-0.1-0.1-0.1h-5
		v-1.4h4.7c0.1,0,0.1,0,0.1-0.1v-1.6c0-0.1,0-0.1-0.1-0.1h-4.5c-0.1,0-0.1,0-0.1,0.1v0.6h-1.4v-0.6c0-0.4,0.1-0.8,0.4-1.1
		c0.3-0.3,0.7-0.4,1.1-0.4h4.5c0.4,0,0.8,0.1,1.1,0.4s0.4,0.7,0.4,1.1v1.6c0,0.2,0,0.4-0.1,0.6c0.3,0.3,0.4,0.6,0.4,1L883.9,475.5
		L883.9,475.5z M881.1,402.7h-0.2h-1.8h-0.2l-2.9-3.5h2.3l0.8,0.9V393h1.8v7.1l0.8-0.9h2.3L881.1,402.7z"/>
	<path class="st0" d="M872.5,580v60h15v-60H872.5z M883.9,632.4c0,0.4-0.1,0.8-0.4,1.1c-0.3,0.3-0.7,0.4-1.1,0.4h-4.8
		c-0.1,0-0.1,0-0.1,0.1v1.5c0,0.1,0,0.1,0.1,0.1h6.3v1.4h-7.8v-3.1c0-0.4,0.1-0.8,0.4-1.1c0.3-0.3,0.7-0.4,1.1-0.4h4.8
		c0.1,0,0.1,0,0.1-0.1v-1.8c0-0.1,0-0.1-0.1-0.1h-4.8c-0.1,0-0.1,0-0.1,0.1v0.6h-1.4v-0.6c0-0.4,0.1-0.8,0.4-1.1
		c0.3-0.3,0.7-0.4,1.1-0.4h4.8c0.4,0,0.8,0.1,1.1,0.4s0.4,0.7,0.4,1.1V632.4z M881.1,592.7h-0.2h-1.8h-0.2l-2.9-3.5h2.3l0.8,0.9V583
		h1.8v7.1l0.8-0.9h2.3L881.1,592.7z"/>
	<path class="st0" d="M872.5,770v30h15v-30H872.5z M881,797h-1.4v-5.8l-0.6,0.7h-2l2.4-2.8h1.6V797z M881.1,782.7h-0.2h-1.8h-0.2
		l-2.9-3.5h2.3l0.8,0.9V773h1.8v7.1l0.8-0.9h2.3L881.1,782.7z"/>
	<path class="st0" d="M1025.5,427c-14.2-14.2-33-22-53-22v15c16,0,31.1,6.2,42.4,17.6c11.4,11.3,17.6,26.4,17.6,42.4h15
		C1047.5,460,1039.7,441.1,1025.5,427z M980.5,417.7h-0.2h-1.8h-0.2l-2.9-3.5h2.3l0.8,0.9V408h1.8v7.1l0.8-0.9h2.3L980.5,417.7z
		 M1043.5,476.6c-0.3,0.3-0.6,0.4-1.1,0.4h-4.8c-0.4,0-0.8-0.1-1.1-0.4s-0.4-0.7-0.4-1.1V475h1.4v0.5c0,0.1,0,0.1,0.1,0.1h4.8
		c0,0,0.1,0,0.1-0.1v-1.7c0-0.1,0-0.1-0.1-0.1h-5v-1.4h4.7c0.1,0,0.1,0,0.1-0.1v-1.6c0-0.1,0-0.1-0.1-0.1h-4.5c-0.1,0-0.1,0-0.1,0.1
		v0.6h-1.4v-0.6c0-0.4,0.1-0.8,0.4-1.1c0.3-0.3,0.7-0.4,1.1-0.4h4.5c0.4,0,0.8,0.1,1.1,0.4c0.3,0.3,0.4,0.7,0.4,1.1v1.6
		c0,0.2,0,0.4-0.1,0.6c0.3,0.3,0.4,0.6,0.4,1v1.7C1043.9,475.9,1043.8,476.3,1043.5,476.6z"/>
	<g>
		<path class="st0" d="M1037.6,635.6C1037.5,635.5,1037.5,635.6,1037.6,635.6L1037.6,635.6z"/>
		<path class="st0" d="M992.5,585v15c22.1,0,40,17.9,40,40h15C1047.5,609.7,1022.8,585,992.5,585z M1000.5,597.7h-0.2h-1.8h-0.2
			l-2.9-3.5h2.3l0.8,0.9V588h1.8v7.1l0.8-0.9h2.3L1000.5,597.7z M1037.6,635.6h6.3v1.4h-7.8v-3.1c0-0.4,0.1-0.8,0.4-1.1
			s0.7-0.4,1.1-0.4h4.8c0.1,0,0.1,0,0.1-0.1v-1.8c0-0.1,0-0.1-0.1-0.1h-4.8c-0.1,0-0.1,0-0.1,0.1v0.6h-1.4v-0.6
			c0-0.4,0.1-0.8,0.4-1.1s0.7-0.4,1.1-0.4h4.8c0.4,0,0.8,0.1,1.1,0.4s0.4,0.7,0.4,1.1v1.8c0,0.4-0.1,0.8-0.4,1.1s-0.7,0.4-1.1,0.4
			h-4.8c-0.1,0-0.1,0-0.1,0.1L1037.6,635.6z"/>
	</g>
	<path class="st0" d="M1012.5,765v15c11,0,20,9,20,20h15C1047.5,780.7,1031.8,765,1012.5,765z M1020.5,777.7h-0.2h-1.8h-0.2
		l-2.9-3.5h2.3l0.8,0.9V768h1.8v7.1l0.8-0.9h2.3L1020.5,777.7z M1039.6,797L1039.6,797v-5.8l-0.6,0.7h-2l2.4-2.8h1.6v7.9L1039.6,797
		L1039.6,797z"/>
	<path class="st0" d="M1534.5,427c-14.2,14.2-22,33-22,53h15c0-16,6.2-31.1,17.6-42.4c11.3-11.3,26.4-17.6,42.4-17.6v-15
		C1567.5,405,1548.6,412.8,1534.5,427z M1523.9,475.5L1523.9,475.5c0,0.4-0.1,0.8-0.4,1.1c-0.3,0.3-0.6,0.4-1.1,0.4h-4.8
		c-0.4,0-0.8-0.1-1.1-0.4c-0.3-0.3-0.4-0.7-0.4-1.1V475h1.4v0.5c0,0.1,0,0.1,0.1,0.1h4.8c0,0,0.1,0,0.1-0.1v-1.7
		c0-0.1,0-0.1-0.1-0.1h-5v-1.4h4.7c0.1,0,0.1,0,0.1-0.1v-1.6c0-0.1,0-0.1-0.1-0.1h-4.5c-0.1,0-0.1,0-0.1,0.1v0.6h-1.4v-0.6
		c0-0.4,0.1-0.8,0.4-1.1s0.7-0.4,1.1-0.4h4.5c0.4,0,0.8,0.1,1.1,0.4c0.3,0.3,0.4,0.7,0.4,1.1v1.6c0,0.2,0,0.4-0.1,0.6
		c0.3,0.3,0.4,0.6,0.4,1V475.5z M1581.7,417.7h-0.2h-1.8h-0.2l-2.9-3.5h2.3l0.8,0.9V408h1.8v7.1l0.8-0.9h2.3L1581.7,417.7z"/>
	<path class="st0" d="M1512.5,640h15c0-22.1,17.9-40,40-40v-15C1537.2,585,1512.5,609.7,1512.5,640z M1523.9,632.4
		c0,0.4-0.1,0.8-0.4,1.1s-0.7,0.4-1.1,0.4h-4.8c-0.1,0-0.1,0-0.1,0.1v1.5c0,0.1,0,0.1,0.1,0.1h6.3v1.4h-7.8v-3.1
		c0-0.4,0.1-0.8,0.4-1.1s0.7-0.4,1.1-0.4h4.8c0.1,0,0.1,0,0.1-0.1v-1.8c0-0.1,0-0.1-0.1-0.1h-4.8c-0.1,0-0.1,0-0.1,0.1v0.6h-1.4
		v-0.6c0-0.4,0.1-0.8,0.4-1.1s0.7-0.4,1.1-0.4h4.8c0.4,0,0.8,0.1,1.1,0.4s0.4,0.7,0.4,1.1V632.4z M1561.7,597.7h-0.2h-1.8h-0.2
		l-2.9-3.5h2.3l0.8,0.9V588h1.8v7.1l0.8-0.9h2.3L1561.7,597.7z"/>
	<path class="st0" d="M1512.5,800h15c0-11,9-20,20-20v-15C1528.2,765,1512.5,780.7,1512.5,800z M1521,797h-1.4v-5.8l-0.6,0.7h-2
		l2.4-2.8h1.6V797z M1541.7,777.7h-0.2h-1.8h-0.2l-2.9-3.5h2.3l0.8,0.9V768h1.8v7.1l0.8-0.9h2.3L1541.7,777.7z"/>
	<path class="st0" d="M1167.5,375.2l-11.2,10c23.3,26.1,36.2,59.8,36.2,94.8h15C1207.5,441.3,1193.3,404.1,1167.5,375.2z
		 M1171.9,390.5l-1.3,1.2l-0.1,0.1l-4.5-0.7l1.7-1.5l1.2,0.1l-4.7-5.3l1.3-1.2l4.7,5.3v-1.2l1.7-1.5l0.2,4.5L1171.9,390.5z
		 M1203.5,476.6c-0.3,0.3-0.6,0.4-1.1,0.4h-4.8c-0.4,0-0.8-0.1-1.1-0.4s-0.4-0.7-0.4-1.1V475h1.4v0.5c0,0.1,0,0.1,0.1,0.1h4.8
		c0,0,0.1,0,0.1-0.1v-1.7c0-0.1,0-0.1-0.1-0.1h-5v-1.4h4.7c0.1,0,0.1,0,0.1-0.1v-1.6c0-0.1,0-0.1-0.1-0.1h-4.5c-0.1,0-0.1,0-0.1,0.1
		v0.6h-1.4v-0.6c0-0.4,0.1-0.8,0.4-1.1c0.3-0.3,0.7-0.4,1.1-0.4h4.5c0.4,0,0.8,0.1,1.1,0.4c0.3,0.3,0.4,0.7,0.4,1.1v1.6
		c0,0.2,0,0.4-0.1,0.6c0.3,0.3,0.4,0.6,0.4,1v1.7C1203.9,475.9,1203.8,476.3,1203.5,476.6z"/>
	<g>
		<path class="st0" d="M1197.6,635.6C1197.5,635.5,1197.5,635.6,1197.6,635.6L1197.6,635.6z"/>
		<path class="st0" d="M1178,562.7l-11.2,10c16.6,18.5,25.7,42.4,25.7,67.3h15C1207.5,611.5,1197,584,1178,562.7z M1182.4,578
			l-1.3,1.2l-0.1,0.1l-4.5-0.7l1.7-1.5l1.2,0.1l-4.7-5.3l1.3-1.2l4.7,5.3v-1.2l1.7-1.5l0.2,4.5L1182.4,578z M1197.6,635.6h6.3v1.4
			h-7.8v-3.1c0-0.4,0.1-0.8,0.4-1.1s0.7-0.4,1.1-0.4h4.8c0.1,0,0.1,0,0.1-0.1v-1.8c0-0.1,0-0.1-0.1-0.1h-4.8c-0.1,0-0.1,0-0.1,0.1
			v0.6h-1.4v-0.6c0-0.4,0.1-0.8,0.4-1.1s0.7-0.4,1.1-0.4h4.8c0.4,0,0.8,0.1,1.1,0.4s0.4,0.7,0.4,1.1v1.8c0,0.4-0.1,0.8-0.4,1.1
			s-0.7,0.4-1.1,0.4h-4.8c-0.1,0-0.1,0-0.1,0.1L1197.6,635.6z"/>
	</g>
	<path class="st0" d="M1188.5,750.2l-11.2,10c9.8,11,15.2,25.1,15.2,39.8h15C1207.5,781.6,1200.7,763.9,1188.5,750.2z M1192.9,765.5
		l-1.3,1.2l-0.1,0.1l-4.5-0.7l1.7-1.5l1.2,0.1l-4.7-5.3l1.3-1.2l4.7,5.3v-1.2l1.7-1.5l0.2,4.5L1192.9,765.5z M1199.5,797L1199.5,797
		v-5.8l-0.6,0.7h-1.9l2.4-2.8h1.6v7.9L1199.5,797L1199.5,797z"/>
	<path class="st0" d="M1371.5,750.2c-12.3,13.7-19,31.4-19,49.8h15c0-14.7,5.4-28.8,15.2-39.8L1371.5,750.2z M1361,797h-1.4v-5.8
		l-0.6,0.7h-2l2.4-2.8h1.6V797z M1368.6,766.8l-0.1-0.1l-1.3-1.2l-0.1-0.1l0.2-4.5l1.7,1.5v1.2l4.7-5.3l1.3,1.2l-4.7,5.3l1.2-0.1
		l1.7,1.5L1368.6,766.8z"/>
	<path class="st0" d="M1382,562.7c-19,21.3-29.5,48.7-29.5,77.3h15c0-24.9,9.1-48.7,25.7-67.3L1382,562.7z M1363.9,632.4
		c0,0.4-0.1,0.8-0.4,1.1s-0.7,0.4-1.1,0.4h-4.8c-0.1,0-0.1,0-0.1,0.1v1.5c0,0.1,0,0.1,0.1,0.1h6.3v1.4h-7.8v-3.1
		c0-0.4,0.1-0.8,0.4-1.1s0.7-0.4,1.1-0.4h4.8c0.1,0,0.1,0,0.1-0.1v-1.8c0-0.1,0-0.1-0.1-0.1h-4.8c-0.1,0-0.1,0-0.1,0.1v0.6h-1.4
		v-0.6c0-0.4,0.1-0.8,0.4-1.1s0.7-0.4,1.1-0.4h4.8c0.4,0,0.8,0.1,1.1,0.4s0.4,0.7,0.4,1.1V632.4z M1379.1,579.3l-0.1-0.1l-1.3-1.2
		l-0.1-0.1l0.2-4.5l1.7,1.5v1.2l4.7-5.3l1.3,1.2l-4.7,5.3l1.2-0.1l1.7,1.5L1379.1,579.3z"/>
	<path class="st0" d="M1392.5,375.2c-25.8,28.9-40,66.1-40,104.8h15c0-35,12.9-68.7,36.2-94.8L1392.5,375.2z M1363.9,475.5
		c0,0.4-0.1,0.8-0.4,1.1c-0.3,0.3-0.6,0.4-1.1,0.4h-4.8c-0.4,0-0.8-0.1-1.1-0.4s-0.4-0.7-0.4-1.1V475h1.4v0.5c0,0.1,0,0.1,0.1,0.1
		h4.8c0,0,0.1,0,0.1-0.1v-1.7c0-0.1,0-0.1-0.1-0.1h-5v-1.4h4.7c0.1,0,0.1,0,0.1-0.1v-1.6c0-0.1,0-0.1-0.1-0.1h-4.5
		c-0.1,0-0.1,0-0.1,0.1v0.6h-1.4v-0.6c0-0.4,0.1-0.8,0.4-1.1s0.7-0.4,1.1-0.4h4.5c0.4,0,0.8,0.1,1.1,0.4c0.3,0.3,0.4,0.7,0.4,1.1
		v1.6c0,0.2,0,0.4-0.1,0.6c0.3,0.3,0.4,0.6,0.4,1V475.5z M1389.6,391.8l-0.1-0.1l-1.3-1.2l-0.1-0.1l0.2-4.5l1.7,1.5v1.2l4.7-5.3
		l1.3,1.2l-4.7,5.3l1.2-0.1l1.7,1.5L1389.6,391.8z"/>
	<path class="st0" d="M411.5,963v-3h-4h-15h-4v3h4v12h-2v15h2h15h2v-15h-2v-12H411.5z M399,981.9h-2l2.4-2.8h1.6v7.9h-1.4v-5.8
		L399,981.9z"/>
	<path class="st0" d="M574.8455,986.7842l-0.673,0.5995c-3.8925-7.5292-6.1627-15.8212-6.5921-24.3837H571.5v-3h-4h-15h-4v3h4.0692
		c0.4936,12.2668,4.0114,24.1312,10.1173,34.6168l-2.0272,1.806l9.9774,11.2001l14.1862-12.6387L574.8455,986.7842z M559.5,970.8999
		v-5.8l-0.6,0.7H557L559.4,963h1.6v7.9L559.5,970.8999z"/>
	<path class="st0" d="M251.5,963v-3h-4h-15h-4v3h3.9196c-0.4316,8.6066-2.723,16.9399-6.6523,24.4999l-0.5523-0.4921
		l-9.9774,11.2001l14.1862,12.6387l9.9774-11.2001l-2.1239-1.8922c6.1642-10.5192,9.6655-22.4341,10.1545-34.7543H251.5z
		 M241.0001,970.9h-1.4v-5.8l-0.6,0.7H237l2.4001-2.8h1.6V970.9z"/>
	<path class="st0" d="M411.5,1123v-3h-4h-15h-4v3h4v42h-2v15h2h15h2v-15h-2v-42H411.5z M397.6,1175.6h6.3v1.4h-7.8v-3.1
		c0-0.4,0.1-0.7999,0.4-1.1s0.7-0.4,1.1-0.4h4.8c0.1,0,0.1,0,0.1-0.1v-1.8c0-0.0999,0-0.0999-0.1-0.0999h-4.8
		c-0.1,0-0.1,0-0.1,0.0999v0.6001h-1.4V1170.5c0-0.3999,0.1-0.7999,0.4-1.0999c0.3-0.3,0.7-0.4001,1.1-0.4001h4.8
		c0.4,0,0.8,0.1001,1.1,0.4001c0.3,0.3,0.4,0.7,0.4,1.0999v1.9c0,0.4-0.1,0.7999-0.4,1.1s-0.7,0.4-1.1,0.4h-4.8
		c-0.1,0-0.1,0-0.1,0.1v1.5C397.5,1175.6,397.5,1175.6,397.6,1175.6z"/>
</g>
<g id="Layer_2" class="st1">
	<g class="st2">
		<g>
			<rect x="1280" y="160" class="st3" width="160" height="160"/>
			<path class="st4" d="M1352.5,160v160h15V160H1352.5z"/>
		</g>
		<g>
			<rect x="1120" y="160" class="st3" width="160" height="160"/>
			<path class="st4" d="M1192.5,160v160h15V160H1192.5z"/>
		</g>
		<g>
			<rect x="960" y="160" class="st3" width="160" height="160"/>
			<path class="st4" d="M1032.5,160v160h15V160H1032.5z"/>
		</g>
		<g>
			<rect x="800" y="160" class="st3" width="160" height="160"/>
			<path class="st4" d="M872.5,160v160h15V160H872.5z"/>
		</g>
		<g>
			<rect x="640" y="160" class="st3" width="160" height="160"/>
			<path class="st4" d="M712.5,160v160h15V160H712.5z"/>
		</g>
		<g>
			<rect x="480" y="160" class="st3" width="160" height="160"/>
			<path class="st4" d="M552.5,160v160h15V160H552.5z"/>
		</g>
		<g>
			<rect x="320" y="160" class="st3" width="160" height="160"/>
			<path class="st4" d="M392.5,160v160h15V160H392.5z"/>
		</g>
		<g>
			<rect x="160" y="160" class="st3" width="160" height="160"/>
			<path class="st4" d="M232.5,160v160h15V160H232.5z"/>
		</g>
		<g>
			<rect x="1440" y="160" class="st3" width="160" height="160"/>
			<path class="st4" d="M1512.5,160v160h15V160H1512.5z"/>
		</g>
		<g>
			<rect y="160" class="st3" width="160" height="160"/>
			<path class="st4" d="M72.5,160v160h15V160H72.5z"/>
		</g>
	</g>
	<g class="st2">
		<g>
			<rect x="1280" y="320" class="st3" width="160" height="160"/>
			<path class="st4" d="M1352.5,320v160h15V320H1352.5z"/>
		</g>
		<g>
			<rect x="1120" y="320" class="st3" width="160" height="160"/>
			<path class="st4" d="M1192.5,320v160h15V320H1192.5z"/>
		</g>
		<g>
			<rect x="960" y="320" class="st3" width="160" height="160"/>
			<path class="st4" d="M1032.5,320v160h15V320H1032.5z"/>
		</g>
		<g>
			<rect x="800" y="320" class="st3" width="160" height="160"/>
			<path class="st4" d="M872.5,320v160h15V320H872.5z"/>
		</g>
		<g>
			<rect x="640" y="320" class="st3" width="160" height="160"/>
			<path class="st4" d="M712.5,320v160h15V320H712.5z"/>
		</g>
		<g>
			<rect x="480" y="320" class="st3" width="160" height="160"/>
			<path class="st4" d="M552.5,320v160h15V320H552.5z"/>
		</g>
		<g>
			<rect x="320" y="320" class="st3" width="160" height="160"/>
			<path class="st4" d="M392.5,320v160h15V320H392.5z"/>
		</g>
		<g>
			<rect x="160" y="320" class="st3" width="160" height="160"/>
			<path class="st4" d="M232.5,320v160h15V320H232.5z"/>
		</g>
		<g>
			<rect x="1440" y="320" class="st3" width="160" height="160"/>
			<path class="st4" d="M1512.5,320v160h15V320H1512.5z"/>
		</g>
		<g>
			<rect y="320" class="st3" width="160" height="160"/>
			<path class="st4" d="M72.5,320v160h15V320H72.5z"/>
		</g>
	</g>
	<g class="st2">
		<g>
			<rect x="1280" y="480" class="st3" width="160" height="160"/>
			<path class="st4" d="M1352.5,480v160h15V480H1352.5z"/>
		</g>
		<g>
			<rect x="1120" y="480" class="st3" width="160" height="160"/>
			<path class="st4" d="M1192.5,480v160h15V480H1192.5z"/>
		</g>
		<g>
			<rect x="960" y="480" class="st3" width="160" height="160"/>
			<path class="st4" d="M1032.5,480v160h15V480H1032.5z"/>
		</g>
		<g>
			<rect x="800" y="480" class="st3" width="160" height="160"/>
			<path class="st4" d="M872.5,480v160h15V480H872.5z"/>
		</g>
		<g>
			<rect x="640" y="480" class="st3" width="160" height="160"/>
			<path class="st4" d="M712.5,480v160h15V480H712.5z"/>
		</g>
		<g>
			<rect x="480" y="480" class="st3" width="160" height="160"/>
			<path class="st4" d="M552.5,480v160h15V480H552.5z"/>
		</g>
		<g>
			<rect x="320" y="480" class="st3" width="160" height="160"/>
			<path class="st4" d="M392.5,480v160h15V480H392.5z"/>
		</g>
		<g>
			<rect x="160" y="480" class="st3" width="160" height="160"/>
			<path class="st4" d="M232.5,480v160h15V480H232.5z"/>
		</g>
		<g>
			<rect x="1440" y="480" class="st3" width="160" height="160"/>
			<path class="st4" d="M1512.5,480v160h15V480H1512.5z"/>
		</g>
		<g>
			<rect y="480" class="st3" width="160" height="160"/>
			<path class="st4" d="M72.5,480v160h15V480H72.5z"/>
		</g>
	</g>
	<g class="st2">
		<g>
			<rect x="1280" y="640" class="st3" width="160" height="160"/>
			<path class="st4" d="M1352.5,640v160h15V640H1352.5z"/>
		</g>
		<g>
			<rect x="1120" y="640" class="st3" width="160" height="160"/>
			<path class="st4" d="M1192.5,640v160h15V640H1192.5z"/>
		</g>
		<g>
			<rect x="960" y="640" class="st3" width="160" height="160"/>
			<path class="st4" d="M1032.5,640v160h15V640H1032.5z"/>
		</g>
		<g>
			<rect x="800" y="640" class="st3" width="160" height="160"/>
			<path class="st4" d="M872.5,640v160h15V640H872.5z"/>
		</g>
		<g>
			<rect x="640" y="640" class="st3" width="160" height="160"/>
			<path class="st4" d="M712.5,640v160h15V640H712.5z"/>
		</g>
		<g>
			<rect x="480" y="640" class="st3" width="160" height="160"/>
			<path class="st4" d="M552.5,640v160h15V640H552.5z"/>
		</g>
		<g>
			<rect x="320" y="640" class="st3" width="160" height="160"/>
			<path class="st4" d="M392.5,640v160h15V640H392.5z"/>
		</g>
		<g>
			<rect x="160" y="640" class="st3" width="160" height="160"/>
			<path class="st4" d="M232.5,640v160h15V640H232.5z"/>
		</g>
		<g>
			<rect x="1440" y="640" class="st3" width="160" height="160"/>
			<path class="st4" d="M1512.5,640v160h15V640H1512.5z"/>
		</g>
		<g>
			<rect y="640" class="st3" width="160" height="160"/>
			<path class="st4" d="M72.5,640v160h15V640H72.5z"/>
		</g>
	</g>
	<g class="st2">
		<g>
			<rect x="1280" class="st3" width="160" height="160"/>
			<path class="st4" d="M1352.5,0v160h15V0H1352.5z"/>
		</g>
		<g>
			<rect x="1120" class="st3" width="160" height="160"/>
			<path class="st4" d="M1192.5,0v160h15V0H1192.5z"/>
		</g>
		<g>
			<rect x="960" class="st3" width="160" height="160"/>
			<path class="st4" d="M1032.5,0v160h15V0H1032.5z"/>
		</g>
		<g>
			<rect x="800" class="st3" width="160" height="160"/>
			<path class="st4" d="M872.5,0v160h15V0H872.5z"/>
		</g>
		<g>
			<rect x="640" class="st3" width="160" height="160"/>
			<path class="st4" d="M712.5,0v160h15V0H712.5z"/>
		</g>
		<g>
			<rect x="480" class="st3" width="160" height="160"/>
			<path class="st4" d="M552.5,0v160h15V0H552.5z"/>
		</g>
		<g>
			<rect x="320" class="st3" width="160" height="160"/>
			<path class="st4" d="M392.5,0v160h15V0H392.5z"/>
		</g>
		<g>
			<rect x="160" class="st3" width="160" height="160"/>
			<path class="st4" d="M232.5,0v160h15V0H232.5z"/>
		</g>
		<g>
			<rect x="1440" class="st3" width="160" height="160"/>
			<path class="st4" d="M1512.5,0v160h15V0H1512.5z"/>
		</g>
		<g>
			<rect class="st3" width="160" height="160"/>
			<path class="st4" d="M72.5,0v160h15V0H72.5z"/>
		</g>
	</g>
	<g class="st2">
		<g>
			<rect x="1280" y="800" class="st3" width="160" height="160"/>
			<path class="st4" d="M1352.5,800v160h15V800H1352.5z"/>
		</g>
		<g>
			<rect x="1120" y="800" class="st3" width="160" height="160"/>
			<path class="st4" d="M1192.5,800v160h15V800H1192.5z"/>
		</g>
		<g>
			<rect x="960" y="800" class="st3" width="160" height="160"/>
			<path class="st4" d="M1032.5,800v160h15V800H1032.5z"/>
		</g>
		<g>
			<rect x="800" y="800" class="st3" width="160" height="160"/>
			<path class="st4" d="M872.5,800v160h15V800H872.5z"/>
		</g>
		<g>
			<rect x="640" y="800" class="st3" width="160" height="160"/>
			<path class="st4" d="M712.5,800v160h15V800H712.5z"/>
		</g>
		<g>
			<rect x="480" y="800" class="st3" width="160" height="160"/>
			<path class="st4" d="M552.5,800v160h15V800H552.5z"/>
		</g>
		<g>
			<rect x="320" y="800" class="st3" width="160" height="160"/>
			<path class="st4" d="M392.5,800v160h15V800H392.5z"/>
		</g>
		<g>
			<rect x="160" y="800" class="st3" width="160" height="160"/>
			<path class="st4" d="M232.5,800v160h15V800H232.5z"/>
		</g>
		<g>
			<rect x="1440" y="800" class="st3" width="160" height="160"/>
			<path class="st4" d="M1512.5,800v160h15V800H1512.5z"/>
		</g>
		<g>
			<rect y="800" class="st3" width="160" height="160"/>
			<path class="st4" d="M72.5,800v160h15V800H72.5z"/>
		</g>
	</g>
	<g class="st2">
		<g>
			<rect x="1280" y="960" class="st3" width="160" height="160"/>
			<path class="st4" d="M1352.5,960v160h15V960H1352.5z"/>
		</g>
		<g>
			<rect x="1120" y="960" class="st3" width="160" height="160"/>
			<path class="st4" d="M1192.5,960v160h15V960H1192.5z"/>
		</g>
		<g>
			<rect x="960" y="960" class="st3" width="160" height="160"/>
			<path class="st4" d="M1032.5,960v160h15V960H1032.5z"/>
		</g>
		<g>
			<rect x="800" y="960" class="st3" width="160" height="160"/>
			<path class="st4" d="M872.5,960v160h15V960H872.5z"/>
		</g>
		<g>
			<rect x="640" y="960" class="st3" width="160" height="160"/>
			<path class="st4" d="M712.5,960v160h15V960H712.5z"/>
		</g>
		<g>
			<rect x="480" y="960" class="st3" width="160" height="160"/>
			<path class="st4" d="M552.5,960v160h15V960H552.5z"/>
		</g>
		<g>
			<rect x="320" y="960" class="st3" width="160" height="160"/>
			<path class="st4" d="M392.5,960v160h15V960H392.5z"/>
		</g>
		<g>
			<rect x="160" y="960" class="st3" width="160" height="160"/>
			<path class="st4" d="M232.5,960v160h15V960H232.5z"/>
		</g>
		<g>
			<rect x="1440" y="960" class="st3" width="160" height="160"/>
			<path class="st4" d="M1512.5,960v160h15V960H1512.5z"/>
		</g>
		<g>
			<rect y="960" class="st3" width="160" height="160"/>
			<path class="st4" d="M72.5,960v160h15V960H72.5z"/>
		</g>
	</g>
	<g class="st2">
		<g>
			<rect x="1280" y="1120" class="st3" width="160" height="160"/>
			<path class="st4" d="M1352.5,1120v160h15v-160H1352.5z"/>
		</g>
		<g>
			<rect x="1120" y="1120" class="st3" width="160" height="160"/>
			<path class="st4" d="M1192.5,1120v160h15v-160H1192.5z"/>
		</g>
		<g>
			<rect x="960" y="1120" class="st3" width="160" height="160"/>
			<path class="st4" d="M1032.5,1120v160h15v-160H1032.5z"/>
		</g>
		<g>
			<rect x="800" y="1120" class="st3" width="160" height="160"/>
			<path class="st4" d="M872.5,1120v160h15v-160H872.5z"/>
		</g>
		<g>
			<rect x="640" y="1120" class="st3" width="160" height="160"/>
			<path class="st4" d="M712.5,1120v160h15v-160H712.5z"/>
		</g>
		<g>
			<rect x="480" y="1120" class="st3" width="160" height="160"/>
			<path class="st4" d="M552.5,1120v160h15v-160H552.5z"/>
		</g>
		<g>
			<rect x="320" y="1120" class="st3" width="160" height="160"/>
			<path class="st4" d="M392.5,1120v160h15v-160H392.5z"/>
		</g>
		<g>
			<rect x="160" y="1120" class="st3" width="160" height="160"/>
			<path class="st4" d="M232.5,1120v160h15v-160H232.5z"/>
		</g>
		<g>
			<rect x="1440" y="1120" class="st3" width="160" height="160"/>
			<path class="st4" d="M1512.5,1120v160h15v-160H1512.5z"/>
		</g>
		<g>
			<rect y="1120" class="st3" width="160" height="160"/>
			<path class="st4" d="M72.5,1120v160h15v-160H72.5z"/>
		</g>
	</g>
</g>
</svg>
