<?xml version="1.0" encoding="utf-8"?>
<!-- Generator: Adobe Illustrator 18.0.0, SVG Export Plug-In . SVG Version: 6.00 Build 0)  -->
<!DOCTYPE svg PUBLIC "-//W3C//DTD SVG 1.1//EN" "http://www.w3.org/Graphics/SVG/1.1/DTD/svg11.dtd">
<svg version="1.1" xmlns="http://www.w3.org/2000/svg" xmlns:xlink="http://www.w3.org/1999/xlink" x="0px" y="0px"
	 viewBox="0 0 32 32" enable-background="new 0 0 32 32" xml:space="preserve">
<g id="Layer_1" display="none">
	<rect display="inline" width="32" height="32"/>
</g>
<g id="Layer_2">
	<circle fill="none" stroke="#4e4f48" stroke-width="1.3333" stroke-miterlimit="10" cx="16" cy="16" r="13.3"/>
</g>
<g id="Layer_3" display="none">
	<rect x="10.7" y="6.7" display="inline" fill="#4e4f48" width="10.7" height="1.3"/>
	<polygon display="inline" fill="#4e4f48" points="18,8 18,12.7 16,14.7 14,12.7 14,8 12,8 12,12 16,16 20,12 20,8 	"/>
	<circle display="inline" fill="none" stroke="#4e4f48" stroke-width="1.3333" stroke-miterlimit="10" cx="16" cy="21.3" r="4"/>
	<rect x="14.7" y="16" display="inline" fill="#4e4f48" width="2.7" height="10.7"/>
	<rect x="10.7" y="20" display="inline" fill="#4e4f48" width="10.7" height="2.7"/>
</g>
<g id="Layer_4" display="none">
	<circle display="inline" fill="#4e4f48" cx="16.7" cy="16" r="1.3"/>
	<rect x="10.7" y="8.7" display="inline" fill="#4e4f48" width="1.3" height="6.7"/>
	<polygon display="inline" fill="#4e4f48" points="12.7,6 8.7,8.7 12.7,8.7 	"/>
	<g display="inline">
		<defs>
			<circle id="SVGID_1_" cx="16" cy="16" r="13.3"/>
		</defs>
		<clipPath id="SVGID_2_">
			<use xlink:href="#SVGID_1_"  overflow="visible"/>
		</clipPath>
		<g clip-path="url(#SVGID_2_)">
			<path fill="#4e4f48" d="M16,10c-5.2,0-9.3,4.2-9.3,9.3v11H10V24h4v6.3h11.3v-11C25.3,14.2,21.2,10,16,10z M14,13.3h6.7v5.3H14
				V13.3z M24.7,22.7H7.3V20h17.3V22.7z"/>
			<rect x="2.7" y="20" fill="#4e4f48" width="2.7" height="5.1"/>
			<rect x="26.7" y="20" fill="#4e4f48" width="2.7" height="5.1"/>
		</g>
	</g>
</g>
<g id="Layer_5" display="none">
	<polygon display="inline" fill="#4e4f48" points="21.7,12 21.7,11.6 16.7,12.6 16.6,12.3 15.3,12.5 15.2,12.1 13.3,12.5 13.4,12.9 
		6,14.5 6.5,16.8 7.1,16.6 7.5,18.2 11.3,17.4 10.9,15.9 12.1,15.6 12.5,17.1 13.1,17 13.5,18.5 14.1,18.4 14.4,16.7 14.3,16.4 
		16.2,16 16.1,15.6 17.3,15.3 17.2,14.9 22.2,13.9 22.1,13.5 25.9,12.7 25.5,11.2 	"/>
	<rect x="63" y="14" display="inline" fill="#4e4f48" width="3" height="1.3"/>
	<rect x="59" y="13.6" display="inline" fill="#4e4f48" width="4" height="2"/>
	<rect x="58" y="13.3" display="inline" fill="#4e4f48" width="1" height="2.7"/>
	<rect x="56.5" y="13" display="inline" fill="#4e4f48" width="1.5" height="3.3"/>
	<rect x="50.5" y="13.3" display="inline" fill="#4e4f48" width="6" height="2"/>
	<rect x="51" y="15.3" display="inline" fill="#4e4f48" width="3" height="1.3"/>
	<rect x="55" y="15.3" display="inline" fill="#4e4f48" width="1" height="1.3"/>
	<polygon display="inline" fill="#4e4f48" points="56,18 55.5,18 55.5,16.6 55.5,15.3 56,15.3 56.5,15.3 56.5,16.6 	"/>
	<g display="inline">
		<defs>
			<circle id="SVGID_3_" cx="16" cy="16" r="11.3"/>
		</defs>
		<clipPath id="SVGID_4_">
			<use xlink:href="#SVGID_3_"  overflow="visible"/>
		</clipPath>
		<path clip-path="url(#SVGID_4_)" fill="#4e4f48" d="M20,22.7V20h-1.3l-1.3-1.3h-2.7L13.3,20H12v2.7H4.7v6.7h22.7v-6.7H20z
			 M20,24.3h-8v-0.7h3.7v-3h0.7v3H20V24.3z"/>
	</g>
</g>
<g id="Layer_6">
	<g>
		<polygon fill="#4e4f48" points="15.7,25.5 17.4,26.5 18.7,23 17.3,21.1 		"/>
		<polygon fill="#4e4f48" points="9.4,19.5 8.1,23.1 10.1,23.4 11.7,19 		"/>
		<path fill="#4e4f48" d="M19.8,5.7c-0.6-0.2-3.2,3-4.3,5.9l-4.6,12.5l0.5,0.2l-0.5,1.5l2.8,1l0.5-1.5l0.5,0.2c0,0,3.5-9.5,4.6-12.5
			C20.3,10.1,20.4,6,19.8,5.7z M14.1,17.2l2.2-5.9l0.9,0.3l-2.2,5.9L14.1,17.2z M16.6,18.1l-0.9-0.3l2.2-5.9l0.9,0.3L16.6,18.1z"/>
	</g>
</g>
<g id="Layer_7" display="none">
	<path display="inline" fill="#4e4f48" d="M19.1,8.1c0,0-10.7,6.6-11.2,7.8c-0.5,1.2,0.9,4.2,2.3,5.6c1.4,1.4,3.4,2.3,5.6,2.3
		c2.2,0,5-0.8,5.6-2.3C22.1,20.1,19.1,8.1,19.1,8.1z M12.2,16.9c-0.6,0.5-1.2,0.6-1.6,0.5c-0.1-0.1-0.3-0.2-0.3-0.3
		c-0.3-0.5,0.2-1.4,0.9-1.9c0.8-0.6,1.7-0.7,1.9-0.2C13.4,15.6,12.9,16.4,12.2,16.9z M15.3,19.6c-0.3,0.8-1,1.5-1.6,1.3
		c-0.6-0.2-0.5-1.2-0.2-2c0.3-0.8,1-1.5,1.6-1.3C15.7,17.8,15.7,18.8,15.3,19.6z M19,20.8c-0.1,0-0.3,0-0.4,0
		c-0.4-0.2-0.7-0.7-0.8-1.5c-0.1-0.8,0.1-1.8,0.7-1.9c0.6-0.2,1.1,0.5,1.2,1.5C19.8,19.7,19.6,20.6,19,20.8z"/>
</g>
<g id="Layer_8" display="none">
	<path display="inline" fill="#4e4f48" d="M3.3,20.1l1.8,2.9l2.5,3.5l8.2-5.6l-0.6-1.1l2.5-2l-2.3-4.1L3.3,20.1z M15.1,16.3
		l-5.3,2.8l-0.6-1l5.3-2.8L15.1,16.3z"/>
	<path display="inline" fill="#4e4f48" d="M15.5,13.7c-1.2-2.3,3.7-6.6,3.3-5.7c-1,2.2-1.5,5.1-1,5.7c0.5,0.6,5.6-2.9,5.6-2.9
		s-4.8,3.7-4.3,4.6c0.4,0.9,3.4,1.6,5.5,1.9c0.6,0.6-5.7,2.4-6.8,0.6"/>
</g>
<g id="Layer_9" display="none">
	<path display="inline" fill="#4e4f48" d="M22.9,13.6c-1.6-1.6-5.1-0.8-7.8,1.8c-2.6,2.6-3.5,6.1-1.8,7.8c1.6,1.6,5.1,0.8,7.8-1.8
		C23.8,18.7,24.6,15.2,22.9,13.6z M13,21.2c-0.6-0.6,0-3.4,2.2-5.5c2.1-2.1,4.9-2.8,5.5-2.2c0.6,0.6-0.6,2.8-2.7,5
		C15.8,20.6,13.6,21.8,13,21.2z"/>
	<polygon display="inline" fill="#4e4f48" points="16.2,18.4 12.3,12.5 18.1,16.5 17.2,17.4 	"/>
	<path display="inline" fill="none" stroke="#4e4f48" stroke-width="1.3333" stroke-miterlimit="10" d="M9.8,15
		c0-2.7,2.2-4.9,4.9-4.9"/>
	<path display="inline" fill="none" stroke="#4e4f48" stroke-width="1.3333" stroke-miterlimit="10" d="M6.3,14.5c0-4.4,3.6-8,8-8"
		/>
	
		<rect x="18.7" y="20.9" transform="matrix(0.9895 0.1444 -0.1444 0.9895 3.771 -2.5844)" display="inline" fill="#4e4f48" width="1.9" height="7.6"/>
	
		<rect x="21.4" y="18.9" transform="matrix(0.9464 -0.3229 0.3229 0.9464 -6.1213 8.4396)" display="inline" fill="#4e4f48" width="1.9" height="7.6"/>
</g>
</svg>
