<?xml version="1.0" encoding="utf-8"?>
<!-- Generator: Adobe Illustrator 22.1.0, SVG Export Plug-In . SVG Version: 6.00 Build 0)  -->
<!DOCTYPE svg PUBLIC "-//W3C//DTD SVG 1.1//EN" "http://www.w3.org/Graphics/SVG/1.1/DTD/svg11.dtd">
<svg version="1.1" id="Layer_1" xmlns="http://www.w3.org/2000/svg" xmlns:xlink="http://www.w3.org/1999/xlink" x="0px" y="0px"
	 viewBox="0 0 32 32" style="enable-background:new 0 0 32 32;" xml:space="preserve">
<style type="text/css">
	.st0{fill:#21211D;}
</style>
<g id="ebCFY6.tif">
	<g>
		<path class="st0" d="M2.3,17c0-0.4,0-0.9,0-1.3c0-0.1,0.1-0.1,0.1-0.3c0.1-1.3,0.3-2.4,0.7-3.6C4,9,5.7,6.9,8,5.1
			c0.3-0.2,0.6-0.3,0.8-0.6c0,0,0,0,0.1,0.1C8.8,4.7,8.8,4.8,8.7,4.8C7.7,6.1,6.9,7.5,6.4,9c-0.6,2-0.7,4,0.1,5.9
			C7.1,16.3,8,17.3,9.3,18c0.9,0.5,1.8,0.6,2.7,0.2c1-0.4,1.6-1.2,1.9-2.2c0.6-1.8,0.3-3.6-0.5-5.4c-0.6-1.2-1.4-2.1-2.7-2.6
			c0,0-0.1-0.1-0.1-0.1c0.6-0.6,1-1.2,1.6-1.7c1,0.6,1.8,1.2,2.4,2.2c0-0.1,0-0.1,0-0.2c-0.1-1.1-0.5-2.2-1.1-3.1
			c-0.1-0.1-0.1-0.2,0-0.3C14.3,3.9,15,3,15.8,2.3c0.1-0.1,0.1-0.1,0.2-0.2c0.1,0.1,0.2,0.2,0.3,0.3c0.7,0.8,1.4,1.5,2.1,2.4
			c0.1,0.1,0.1,0.2,0,0.3c-0.6,1-1,2-1.1,3.1c0,0.1,0,0.1,0,0.3c0.2-0.3,0.4-0.6,0.6-0.8c0.5-0.6,1-0.9,1.7-1.3
			c0.1-0.1,0.1,0,0.2,0.1c0.4,0.5,0.9,1,1.3,1.5C21.1,8,21.1,8,21.2,8.1c-0.1,0-0.1,0.1-0.1,0.1c-1.3,0.5-2.1,1.5-2.7,2.7
			c-0.4,0.9-0.7,1.9-0.8,2.9c-0.1,1,0.1,2,0.5,3c0.7,1.7,2.5,2.2,4,1.6c1.3-0.6,2.2-1.5,2.8-2.7c1-1.7,1.1-3.6,0.8-5.4
			s-1.3-3.6-2.4-5.1c-0.1-0.1-0.2-0.3-0.3-0.4c0.1,0,0.1,0,0.1,0c0.5,0.3,1,0.6,1.4,1c3.8,3.4,5.5,7.5,4.9,12.6
			c-0.4,3.4-2,6.1-4.6,8.4c-2,1.7-4.4,2.8-7.1,3.2c-0.4,0.1-0.8,0.1-1.2,0.1c-0.4,0-0.8,0-1.3,0c-0.1,0-0.1,0-0.3-0.1
			c-0.3-0.1-0.7-0.1-1.1-0.1c-3.4-0.6-6.1-2.1-8.4-4.6c-1.7-2-2.8-4.4-3.1-7.1C2.4,17.8,2.4,17.3,2.3,17z"/>
	</g>
</g>
</svg>
