<?xml version="1.0" encoding="utf-8"?>
<!-- Generator: Adobe Illustrator 22.1.0, SVG Export Plug-In . SVG Version: 6.00 Build 0)  -->
<!DOCTYPE svg PUBLIC "-//W3C//DTD SVG 1.1//EN" "http://www.w3.org/Graphics/SVG/1.1/DTD/svg11.dtd">
<svg version="1.1" id="Layer_1" xmlns="http://www.w3.org/2000/svg" xmlns:xlink="http://www.w3.org/1999/xlink" x="0px" y="0px"
	 viewBox="0 0 60 100" style="enable-background:new 0 0 60 100;" xml:space="preserve">
<style type="text/css">
	.st0{fill:#F6F8EB;}
</style>
<path class="st0" d="M19.5001,63.4278c0,4.2865,1.0709,5.3589,3.9276,5.3589h13.0718c2.8567,0,3.9276-1.0724,3.9276-8.2156
	s-1.0709-8.2127-3.9276-8.2127H23.714v-6.1436h12.2145c2.8567,0,3.9276-1.0724,3.9276-7.4281c0-6.501-1.0709-7.5705-3.9276-7.5705
	H23.9988c-2.8567,0-3.9276,1.0695-3.9276,5.356v3.0718h-6.857v-3.2142c0-8.2156,3.2142-11.4298,10-11.4298h13.499
	c6.857,0,10.0712,3.2142,10.0712,13.3566c0,7.2159-1.7132,9.5001-4.7137,10.9997c3.5716,1.2874,5.2863,3.7867,5.2863,11.6449
	C47.3569,71.7858,44.1427,75,37.2842,75H22.6417c-6.7844,0-9.9985-3.2142-9.9985-11.4269V60.356h6.857V63.4278z"/>
</svg>
