<?xml version="1.0" encoding="utf-8"?>
<!-- Generator: Adobe Illustrator 22.1.0, SVG Export Plug-In . SVG Version: 6.00 Build 0)  -->
<!DOCTYPE svg PUBLIC "-//W3C//DTD SVG 1.1//EN" "http://www.w3.org/Graphics/SVG/1.1/DTD/svg11.dtd">
<svg version="1.1" id="Layer_1" xmlns="http://www.w3.org/2000/svg" xmlns:xlink="http://www.w3.org/1999/xlink" x="0px" y="0px"
	 viewBox="0 0 60 100" style="enable-background:new 0 0 60 100;" xml:space="preserve">
<style type="text/css">
	.st0{fill:#F6F8EB;}
</style>
<path class="st0" d="M20.7854,47.9991c3.143-3.2839,6.4284-5.7135,13.6428-5.7135c8.9291,0,12.1433,3.2142,12.1433,10v12.6417
	C46.5715,71.7132,43.2847,75,36.5003,75H23.4285c-6.7858,0-10-3.2142-10-10v-4.644h6.857v4.4289
	c0,2.8567,1.0709,3.9291,3.9291,3.9291h11.5708c2.8567,0,3.9291-1.0724,3.9291-3.9291V52.3583c0-2.8567-1.0724-3.9291-5.9285-3.9291
	c-5.9997,0-9.5001,1.5722-13.0006,3.7867l-6.857-1.9297V25H45.643v6.286H20.7854V47.9991z"/>
</svg>
