<?xml version="1.0" encoding="utf-8"?>
<!-- Generator: Adobe Illustrator 22.1.0, SVG Export Plug-In . SVG Version: 6.00 Build 0)  -->
<!DOCTYPE svg PUBLIC "-//W3C//DTD SVG 1.1//EN" "http://www.w3.org/Graphics/SVG/1.1/DTD/svg11.dtd">
<svg version="1.1" id="Layer_1" xmlns="http://www.w3.org/2000/svg" xmlns:xlink="http://www.w3.org/1999/xlink" x="0px" y="0px"
	 viewBox="0 0 60 100" style="enable-background:new 0 0 60 100;" xml:space="preserve">
<style type="text/css">
	.st0{fill:#F6F8EB;}
</style>
<path class="st0" d="M22.5007,75c-6.7858,0-10-3.2142-10-10V35c0-6.7858,3.2142-10,10-10h14.9985c6.7858,0,10,3.2142,10,10v30
	c0,6.7132-3.2142,10-10,10H22.5007z M19.3577,64.7849c0,2.8567,1.0709,3.9291,3.9276,3.9291h13.5004
	c2.7855,0,3.8564-1.0724,3.8564-3.9291V35.2151c0-2.8567-1.0709-3.9291-3.8564-3.9291H23.2854
	c-2.8567,0-3.9276,1.0724-3.9276,3.9291V64.7849z"/>
</svg>
