<?xml version="1.0" encoding="utf-8"?>
<!-- Generator: Adobe Illustrator 22.1.0, SVG Export Plug-In . SVG Version: 6.00 Build 0)  -->
<!DOCTYPE svg PUBLIC "-//W3C//DTD SVG 1.1//EN" "http://www.w3.org/Graphics/SVG/1.1/DTD/svg11.dtd">
<svg version="1.1" id="Layer_1" xmlns="http://www.w3.org/2000/svg" xmlns:xlink="http://www.w3.org/1999/xlink" x="0px" y="0px"
	 viewBox="0 0 60 100" style="enable-background:new 0 0 60 100;" xml:space="preserve">
<style type="text/css">
	.st0{fill:#F6F8EB;}
</style>
<path class="st0" d="M13.2149,75V60.8588c0-5.5013,3.5716-7.1433,10.2848-10.2877l11.6434-5.4984
	c2.8567-1.3572,4.3563-2.1447,4.3563-4.1441v-5.7135c0-2.8567-1.0709-3.9291-3.9276-3.9291H24.5721
	c-2.8582,0-3.9291,1.0724-3.9291,3.9291v4.7137h-6.7858V35c0-6.7858,3.2142-10,10-10h12.4993c6.7858,0,10,3.2142,10,10v6.6434
	c0,5.5013-3.5716,7.1433-10.2848,10.2848l-11.6434,5.5013c-2.7855,1.3572-4.3563,2.1418-4.3563,4.2139v7.0706h20.356v-9.2124h6.3572
	V75H13.2149z"/>
</svg>
