<?xml version="1.0" encoding="utf-8"?>
<!-- Generator: Adobe Illustrator 18.1.0, SVG Export Plug-In . SVG Version: 6.00 Build 0)  -->
<!DOCTYPE svg PUBLIC "-//W3C//DTD SVG 1.1//EN" "http://www.w3.org/Graphics/SVG/1.1/DTD/svg11.dtd">
<svg version="1.1" id="bg" xmlns="http://www.w3.org/2000/svg" xmlns:xlink="http://www.w3.org/1999/xlink" x="0px" y="0px"
	 viewBox="0 0 300 100" enable-background="new 0 0 300 100" xml:space="preserve">
<g>
	<path fill="#F6F8E9" d="M27.8,30.5c-0.2,0.2-0.2,0.3,0,0.5C28,30.8,28,30.7,27.8,30.5z"/>
	<path fill="#F6F8E9" d="M28.4,58.8c-0.1-0.6-0.1-0.6-0.7-0.8c-0.3,0.3-0.4,0.7,0,1C28,59,28.3,59.1,28.4,58.8z"/>
	<path fill="#F6F8E9" d="M25.5,39.1c-0.2,0.9,0.1,1.4,0.7,1.8c1.1,0,2.1,0,3.1,0c0.3-0.4,0.8-0.5,0.7-1c-0.2-0.4-0.5-0.8-1-0.9
		c-0.5-0.1-0.6,0.7-1.1,0.5C27.3,38.9,26.5,38.9,25.5,39.1z"/>
	<path fill="#F6F8E9" d="M25,12.6c0,0.3,0,0.5,0,0.8c0.6,0.2,1.3,0.2,1.9,0c0-0.3,0-0.5,0-0.8C26.3,12.4,25.7,12.4,25,12.6z"/>
	<path fill="#F6F8E9" d="M28.5,78.3c-0.5-0.6-1-1-2-0.6C27,78.4,27.6,78.9,28.5,78.3z"/>
	<path fill="#F6F8E9" d="M26.9,44.1c-0.2-0.2-0.5-0.4-0.9-0.8c-0.8,1.1-1.9,0.6-2.9,0.7c-0.2,0-0.5,0-0.8,0.5
		c0.4,0.2,0.8,0.5,1.2,0.7c-0.2,0.3-0.3,0.4-0.7,0.9c0.9-0.2,1.3,0.1,1.6-0.3c0.1-0.3,0-0.7,0.4-0.8c0.5,0,1,0,1.5,0
		C26.4,44.7,26.9,44.6,26.9,44.1z"/>
	<path fill="#F6F8E9" d="M23,32.3c0.6,0.3,1,0.3,1.4-0.1C24,32.2,23.5,31.8,23,32.3z"/>
	<path fill="#F6F8E9" d="M24.9,2.2c-0.3-0.2-0.6-0.3-0.8,0.2C24.4,2.2,24.8,2.8,24.9,2.2z"/>
	<path fill="#F6F8E9" d="M36,47.1c-0.3-0.1-0.6-0.2-1,0.2C35.4,47.6,35.7,47.7,36,47.1z"/>
	<path fill="#F6F8E9" d="M35.1,52.9c0.9,0,1.4,0,2.2,0C36.4,52.4,36,52.4,35.1,52.9z"/>
	<path fill="#F6F8E9" d="M37.2,56.5c1.3-0.9,0.2-1.7,0.1-2.3c-0.2-0.7-1-1-1.8-0.4c-0.2,0.9,0.4,1.5,0.7,2.3
		C36.7,55.9,37,56.2,37.2,56.5z"/>
	<path fill="#F6F8E9" d="M24,93.8c-0.2-0.2-0.3-0.2-0.5,0C23.7,94,23.8,94,24,93.8z"/>
	<path fill="#F6F8E9" d="M36,4.8C37.5,5,37.5,5,37.3,3.5C36.1,3.3,36.7,4.6,36,4.8z"/>
	<path fill="#F6F8E9" d="M30.9,42.6c-0.7,0-1.3-0.3-2,0.2c0.3,0.6,0.5,1,1.2,1.2C30.6,43.7,31.2,43.5,30.9,42.6z"/>
	<path fill="#F6F8E9" d="M34.6,39.6c-0.2,0.6-0.2,1.2,0,1.9c0.9,0,1.2-0.5,1.4-1.1C35.7,40,35.5,39.3,34.6,39.6z"/>
	<path fill="#F6F8E9" d="M32.9,40.9c0-0.6,0.7-1,0.6-1.7c0-0.2,0.1-0.5-0.2-0.7c-0.6,0-1.2-0.2-1.8,0.1c0,0.6,0.1,1.2-0.5,1.5
		C31.6,41,32.1,41.2,32.9,40.9z"/>
	<path fill="#F6F8E9" d="M28.5,93.2c-0.5-0.4-1-0.4-1.5,0C27.5,93.6,28,93.6,28.5,93.2z"/>
	<path fill="#F6F8E9" d="M29.9,12.8c0.6,0.3,1,0.3,1.6,0C30.9,12.4,30.5,12.4,29.9,12.8z"/>
	<path fill="#F6F8E9" d="M30,54.6c-0.7,0-1.3,0-1.9,0c0,0.3,0,0.5,0,0.8C28.9,55.7,29.5,55.5,30,54.6z"/>
	<path fill="#F6F8E9" d="M16.9,58.8c-0.2-0.4-0.5-0.8-1-0.8c-0.3,0-0.8-0.3-0.9,0.2C15.5,59.1,16.2,59.2,16.9,58.8z"/>
	<path fill="#F6F8E9" d="M18.5,93.6c-0.9-0.3-1.5-0.1-1.9,0.7C17.4,94.7,18,94.5,18.5,93.6z"/>
	<path fill="#F6F8E9" d="M15.3,81.5c0.1-0.4,0.9-0.5,0.6-1.5c-0.5,0.2-0.8-0.2-1.5,0c0,0-0.1,0-0.1-0.1c-0.4,0.4-0.8,0.7-1.4,0.8
		C13.7,81,14.3,81.6,15.3,81.5z"/>
	<path fill="#F6F8E9" d="M18.8,57c-0.2,0.2-0.5,0.5-0.7,0.7c0.2,0.3,0.4,0.6,0.8,0.7c0.2-0.2,0.4-0.5,0.6-0.7
		C19.2,57.5,19,57.2,18.8,57z"/>
	<path fill="#F6F8E9" d="M19.8,42.9c0.6-0.9,0-1.5-0.8-2c-0.9,0.5-1.1,1.3-1.4,1.9C18.8,43.7,19.3,43.7,19.8,42.9z"/>
	<path fill="#F6F8E9" d="M10,59.3c0.2-0.4,0.6-0.6,0.8-0.9c0.2-0.3,0.2-0.6-0.1-0.9c-0.7-0.1-1.2,0.9-2,0.5c0,0-0.2,0.2-0.3,0.4
		C8.7,59,9,59.5,9.3,60C10.1,59.9,9.9,59.5,10,59.3z"/>
	<path fill="#F6F8E9" d="M7.5,31.4c0,0.7,0.4,1,1.2,1.2C9.1,32,9.1,31.5,8.8,31C8.3,31.2,7.7,30.6,7.5,31.4z"/>
	<path fill="#F6F8E9" d="M9.6,11.2c-0.2,0.3-0.7,0.5-0.5,1.3c0.7,0,1.4,0.3,2-0.2C10.6,11.7,10.6,11.7,9.6,11.2z"/>
	<path fill="#F6F8E9" d="M6,95.9c1,0,1.9,0,2.9,0c0-0.3,0-0.5,0-0.8c-1,0-1.9,0-2.9,0C6,95.4,6,95.6,6,95.9z"/>
	<path fill="#F6F8E9" d="M21.9,5.7c-0.2,0.1-0.6-0.5-0.8,0.2C21.4,6.1,21.6,6.1,21.9,5.7z"/>
	<path fill="#F6F8E9" d="M21.4,96.1c-0.6-0.2-1.2-0.2-1.8,0.1c0.6,0.1,1,0.9,1.7,0.8C21.5,96.8,21.6,96.5,21.4,96.1z"/>
	<path fill="#F6F8E9" d="M18,38.2c-0.1,0.7,0.4,1,0.7,1.3c0.3-0.2,0.5-0.4,0.8-0.7C19.1,38.5,18.9,37.7,18,38.2z"/>
	<path fill="#F6F8E9" d="M18,31.8c0.4,0.3,0.8,0.1,1.3,0.2c0.3-0.6,0.6-1.3,0.9-1.9c0.3-0.2,0.7,0,0.9-0.5c-1.6-0.5-2,1-3.1,1.1
		C18,31.2,18,31.5,18,31.8z"/>
	<path fill="#F6F8E9" d="M22.3,57.5c-0.4,0.1-0.8-0.2-1.2,0.2c0,0.5-0.3,0.9,0.2,1.3c0.3,0,0.7,0,1,0C22.6,58.5,22.7,58,22.3,57.5z"
		/>
	<path fill="#F6F8E9" d="M21,54.3c-0.1,0.6,0.3,0.8,0.7,1.3c0.6-0.1,1.3,0.3,1.8-0.4c0-0.6-0.5-0.8-0.8-1.2
		C22.2,54.1,21.5,53.7,21,54.3z"/>
	<path fill="#F6F8E9" d="M23.2,46.5c-0.2,0.2-0.2,0.3,0,0.5C23.5,46.8,23.5,46.7,23.2,46.5z"/>
	<path fill="#F6F8E9" d="M23.8,80.5c-0.6-0.1-0.9,0.4-1.3,0.9c0.6,0,1,0,1.4,0C24.1,81,24,80.7,23.8,80.5z"/>
	<path fill="#F6F8E9" d="M19,13.4c1.2,0,2.3,0,3.4,0c0-0.3,0-0.5,0-0.8c-1.2,0-2.3,0-3.4,0C19,12.9,19,13.1,19,13.4z"/>
	<path fill="#F6F8E9" d="M13.9,79.7c-0.3-0.2-0.6-0.3-0.8-0.4c-0.8-0.2-1.9-0.5-3.1-0.1c0.4,0.4,0.6,0.6,0.8,0.8
		C11.6,80,12.5,80,13.9,79.7z"/>
	<path fill="#F6F8E9" d="M4.1,45.4c0.4,0,0.9,0.3,1.3-0.3C5,45.2,4.5,44.8,4.1,45.4z"/>
	<path fill="#F6F8E9" d="M90,28.7c1.4-0.8,2.5,0.6,3.9,0.2c0-0.5,0-0.9,0-1.4c-1.1,0-2.2,0-3.4,0c0.1,0.1,0.2,0.3,0.3,0.4
		c-0.3,0.1-0.7,0.1-1,0.2C90,28.3,90,28.5,90,28.7z"/>
	<path fill="#F6F8E9" d="M89.3,32.1c-0.6-0.6-1.1-1.1-1.6-1.6c-0.2,0.5-0.8,0.6-0.7,1.2c0.2,0.6,0.9,0.1,1.2,0.7
		c0.2,0.5,0.6,1,0.8,1.2c1,0,1.4,0,1.9,0c0.5,0.5,1,1,1.4,1.5c0.4-0.1,0.9,0.3,1,0.1c0.2-0.7-0.3-0.7-0.1-1c0.1-0.1,0.2-0.2,0.3-0.3
		c-0.4-1.4-1.7-0.5-3-1.4c1.4,0.3,1.7-0.5,2.3-0.9c0.3,0.2,0.5,0.7,1.1,0.4c0-0.4,0.7-0.3,0.5-0.9c-1.4,0-2.8,0-4.5,0
		C89.8,31.3,89.6,31.7,89.3,32.1z"/>
	<path fill="#F6F8E9" d="M1,43.2c0.3,0.4,0.7,0.4,1,0C1.7,42.9,1.3,42.9,1,43.2z"/>
	<path fill="#F6F8E9" d="M3.1,55.3c0.3,0.2,0.6,0.3,1-0.1C3.6,54.9,3.3,54.8,3.1,55.3z"/>
	<path fill="#F6F8E9" d="M1.5,83.4c0.3,0.1,0.6,0.2,1-0.2C2.1,82.9,1.8,82.8,1.5,83.4z"/>
	<path fill="#F6F8E9" d="M2.6,46.3c0.3,0.3,0.6,0.3,1-0.1C3.1,45.9,2.8,45.8,2.6,46.3z"/>
	<path fill="#F6F8E9" d="M91.3,42c0.6,0.1,0.9-0.3,1.2-0.9c-0.5,0-0.9,0-1.4,0C90.9,41.5,90.9,41.7,91.3,42z"/>
	<path fill="#F6F8E9" d="M4.4,79.9C4.1,79.6,4.1,79,3.5,79c-0.9-0.1-1.5,0.7-2.4,0.9C2.2,79.9,3.3,79.9,4.4,79.9z"/>
	<path fill="#F6F8E9" d="M80.2,29.4c-0.3,0.2-0.8,0.6-1.3,1c0.3,0.6,0.5,1.1,0.8,1.6c0.8,0.2,1.8-0.3,2.3,0.9
		c-0.4,0.7-1.5,0.7-1.9,1.4c0.3,0.6,0.9,0.9,1.6,0.8c0.7-0.3,1.1-1.1,1.8-1.5c0.6-0.4,1-1.2,1.7-2c-1.6,0-2.9,0-4.2,0
		c0.3-0.4,0.7-0.5,0.5-1.2C81.1,30,80.5,29.6,80.2,29.4z"/>
	<path fill="#F6F8E9" d="M95.6,53.3c0.3,0.2,0.6,0.3,1-0.1C96.1,52.9,95.8,52.8,95.6,53.3z"/>
	<path fill="#F6F8E9" d="M35,44.8c-0.3-0.4-0.7-0.4-1,0C34.3,45.1,34.7,45.1,35,44.8z"/>
	<path fill="#F6F8E9" d="M99,91.2c0.2,0.2,0.3,0.2,0.5,0C99.3,91,99.2,91,99,91.2z"/>
	<path fill="#F6F8E9" d="M95.9,27.7c0.6,0.4,1.1,0.3,1.6,0C97,27.4,96.5,27.4,95.9,27.7z"/>
	<path fill="#F6F8E9" d="M97.5,29.2c-0.1,0.9,0.1,1.6,1.3,1.8c0.3-0.7,0.2-1.4,0.1-2C98.4,29,97.9,28.8,97.5,29.2z"/>
	<path fill="#F6F8E9" d="M90.1,40.3c-0.6-0.4-1.1-0.3-1.6,0C89,40.6,89.5,40.6,90.1,40.3z"/>
	<path fill="#F6F8E9" d="M84.7,44.6c-0.3,0.2-0.5,0.4-0.7,0.6c0.4,0.5,0.9,0.9,1.3,1.3c1.1,0,2.2,0,3.3,0c2.5,0,4.9-0.9,7.4-0.5
		c0.4-0.8-0.2-1-0.6-1.5c-1,0.3-1.9-0.5-3-0.5c-0.3,0.3-0.5,0.7-0.8,1.1c-1.8-0.5-3.4,0.9-5.2,0.3C85.9,44.8,85.1,45,84.7,44.6z"/>
	<path fill="#F6F8E9" d="M99,92.3c0.5,0.3,0.8,0.5,1-0.1C99.6,91.9,99.4,91.9,99,92.3z"/>
	<path fill="#F6F8E9" d="M99.1,93.3c0.3,0.3,0.6,0.3,1-0.1C99.6,92.9,99.3,92.8,99.1,93.3z"/>
	<path fill="#F6F8E9" d="M44.2,39.5c-0.2,0.6-0.4,1.1,0.1,1.5c0.7,0.1,0.8-0.5,1.2-0.7C45.1,40,45,39.4,44.2,39.5z"/>
	<path fill="#F6F8E9" d="M44.6,0.5c-0.5,0.3-0.5,0.3-0.9,0.9c0.5,0,0.9,0.3,1.3-0.2C45,0.9,45.1,0.6,44.6,0.5z"/>
	<path fill="#F6F8E9" d="M39,30.9c0.7,0.2,1.3,0.2,1.9-0.2C40.3,30.6,39.6,30.2,39,30.9z"/>
	<path fill="#F6F8E9" d="M40.8,40.5c-0.9,0-1.8,0-2.6,0c-0.2,0.4-0.7,0.5-0.7,1c0,0.5,0.5,0.6,0.7,1c0.7,0,1.4,0,2.2,0
		C40.2,41.7,41.4,41.4,40.8,40.5z"/>
	<path fill="#F6F8E9" d="M41.9,4.1c-0.2,0.1-0.7-0.5-0.8,0.2C41.4,4.6,41.6,4.6,41.9,4.1z"/>
	<path fill="#F6F8E9" d="M32.8,32.5c0.6-0.1,1.2,0.2,1.7-0.2c0-0.4,0-0.8,0-1.2c-0.8,0-1.6,0-2.4,0C32.3,31.6,32.5,32.1,32.8,32.5z"
		/>
	<path fill="#F6F8E9" d="M40.6,32.5c1.3-0.2,2.6,0.1,3.9-0.4c-1.4,0.4-2.5-1.2-3.9-0.5C40.6,31.9,40.6,32.1,40.6,32.5z"/>
	<path fill="#F6F8E9" d="M40.5,47.3c-0.5-0.5-1.2,0-1.6-0.6c-0.3-0.4-0.9-0.3-1.5,0.1C38.5,47.2,39.3,47.9,40.5,47.3z"/>
	<path fill="#F6F8E9" d="M39.4,2c0.5-0.6,1-1,1.3-1.4c-0.6,0-1.4,0-2.4,0c0.6,0.7-0.2,0.8-0.2,1.3C38.6,2.1,39.2,1.9,39.4,2z"/>
	<path fill="#F6F8E9" d="M7.2,5c0.2-0.2,0.2-0.3,0-0.5C7,4.7,7,4.8,7.2,5z"/>
	<path fill="#F6F8E9" d="M4.9,81.1c-0.2,0.1-0.7-0.5-0.8,0.2C4.4,81.6,4.6,81.6,4.9,81.1z"/>
	<path fill="#F6F8E9" d="M45,56.8c-0.3-0.4-0.7-0.4-1,0C44.3,57.1,44.7,57.1,45,56.8z"/>
	<path fill="#F6F8E9" d="M46.1,78.6c-0.8,0.4-1-0.9-2.1-0.4C44.5,78.9,45.1,79.4,46.1,78.6z"/>
	<path fill="#F6F8E9" d="M37.8,39.5c0.2,0,0.5,0.1,0.7-0.2c-0.1-0.6-0.1-0.6-0.7-0.8C37.4,38.8,37.4,39.2,37.8,39.5z"/>
	<path fill="#F6F8E9" d="M3.4,82.8C4.9,83,6.1,84,7.6,83.2c-1.2-0.5-2.3-0.9-3.4-1.2C4,82.3,3.8,82.5,3.4,82.8z"/>
	<path fill="#F6F8E9" d="M42.8,79.2c-1.3-0.3-2.1-1.1-3.2-0.5c0,0.2,0,0.4,0,0.8C40.5,79.4,41.5,79.7,42.8,79.2z"/>
	<path fill="#F6F8E9" d="M43.5,82.8c-0.3-0.4-0.7-0.4-1,0C42.8,83.1,43.2,83.1,43.5,82.8z"/>
	<path fill="#F6F8E9" d="M45.4,46.2c-0.6-0.2-1.3-0.4-2.1,0.1C44.2,46.6,44.8,46.6,45.4,46.2z"/>
	<path fill="#F6F8E9" d="M90.8,38.5c0.2-0.2,0.2-0.3,0-0.5C90.5,38.2,90.5,38.3,90.8,38.5z"/>
	<path fill="#F6F8E9" d="M67,31.8c0.3,0.4,0.7,0.4,1,0C67.7,31.4,67.3,31.4,67,31.8z"/>
	<path fill="#F6F8E9" d="M64.3,29.1c-0.3,0.1-0.8,0.4-1.4,0.7c1.5,1.1,3.2,1.4,4.8,1.2c-0.4-0.4-0.8-0.9-1.2-1.4
		C65.9,30,65.4,28.8,64.3,29.1z"/>
	<path fill="#F6F8E9" d="M67.9,1.9c-0.4-0.5-0.9-0.4-1.4-0.3C66,1.6,65.8,0.4,65,1.2C65.8,2.5,66.9,1.8,67.9,1.9z"/>
	<path fill="#F6F8E9" d="M66.3,42c0.3-0.2,0.8,0.3,1.2-0.3c-0.1-0.2,0.1-0.5-0.3-0.7c-0.3,0-0.7,0-1.3,0C66,41.5,65.9,41.8,66.3,42z
		"/>
	<path fill="#F6F8E9" d="M66,38.6c-0.5,0-0.9,0-1.4,0c0,0.3,0,0.5,0,0.7c0.5,0.3,0.9,0.3,1.4,0C66,39.1,66,38.9,66,38.6z"/>
	<path fill="#F6F8E9" d="M66.5,82.7c0.5,0.6,1,1.1,2.5,0.4C67.8,83.3,67.4,82,66.5,82.7z"/>
	<path fill="#F6F8E9" d="M64.3,44.5c-0.3,0-0.7,0-1.4,0c0.9,0.9-0.6,1.8,0.4,2.5c0.6,0.1,0.8-0.4,1.3-0.8
		C64.3,45.7,64.8,45,64.3,44.5z"/>
	<path fill="#F6F8E9" d="M67.8,95c0.2-0.2,0.2-0.3,0-0.5C67.5,94.7,67.5,94.8,67.8,95z"/>
	<path fill="#F6F8E9" d="M65.9,76.2c-0.3-0.2-0.6-0.3-1,0.1C65.4,76.6,65.7,76.7,65.9,76.2z"/>
	<path fill="#F6F8E9" d="M49.5,32.3c0.8,0.5,1.7,1,2.9,0.6c0-0.8,0.6-0.8,1-1.1c0.2-0.2,0.1-0.6-0.2-0.7c-0.7-0.5-0.7,0.6-1.4,0.4
		c-0.7-0.6-1.5-0.7-2.4-0.3C49.5,31.6,49.5,31.9,49.5,32.3z"/>
	<path fill="#F6F8E9" d="M49.5,52.2c-0.4-0.3-0.8-0.5-1,0.2C48.9,52.5,49.1,52.6,49.5,52.2z"/>
	<path fill="#F6F8E9" d="M49.8,5.9C50.7,6,51.3,6.2,52,5.8c-0.5-0.3-0.9-0.5-1.3-0.7C50.5,5.3,50.2,5.5,49.8,5.9z"/>
	<path fill="#F6F8E9" d="M63.1,55.1c0.5-0.3,0.9,0.1,1.4-0.3c0-0.2,0-0.4,0-1C63.9,54.3,62.9,53.4,63.1,55.1z"/>
	<path fill="#F6F8E9" d="M51.7,34c-0.2,0.1-0.6-0.1-0.6,0.4c0.8,0,1.6,0,2.6,0c-0.7-0.4-1.1-0.6-1.5-0.9
		C52.1,33.7,51.9,33.9,51.7,34z"/>
	<path fill="#F6F8E9" d="M67.5,84.2c0.2,0.2,0.3,0.2,0.5,0C67.8,84,67.7,84,67.5,84.2z"/>
	<path fill="#F6F8E9" d="M61,31.8c0.5,0.3,0.9,0.3,1.4,0c0-0.2,0-0.4,0-0.6c-0.5-0.3-0.9-0.3-1.4,0C61,31.4,61,31.6,61,31.8z"/>
	<path fill="#F6F8E9" d="M48.4,2.1c-0.9,0-1.4,0-2.2,0C47.1,2.6,47.5,2.6,48.4,2.1z"/>
	<path fill="#F6F8E9" d="M8.5,41.9c1.3,0.9,2.2,1.5,3.5,0.8C10.9,42.8,10.5,41,8.5,41.9z"/>
	<path fill="#F6F8E9" d="M52.6,40.7c-0.2-0.4,0.1-0.8-0.2-1.1c-0.6,0-1.1,0-1.7,0c-0.1,0.3-0.2,0.6-0.3,0.9
		c-0.5-0.2-0.2-0.8-0.4-0.9c-0.7,0-1.2,0-2.4,0c1,1.1,1.7,1.8,2.4,2.5C50.8,41.6,51.6,41.2,52.6,40.7z"/>
	<path fill="#F6F8E9" d="M51,2.2c0.5,0.4,1,0.4,1.5,0C52,1.9,51.5,1.9,51,2.2z"/>
	<path fill="#F6F8E9" d="M73.5,79.1c0.4,0.5,0.6,1,1.3,0.9c0.3-0.2,0.3-0.5,0.1-0.9C74.5,79.1,74,79.1,73.5,79.1z"/>
	<path fill="#F6F8E9" d="M78.5,39.8c-0.3-0.4-0.7-0.4-1,0C77.8,40.1,78.2,40.1,78.5,39.8z"/>
	<path fill="#F6F8E9" d="M76,37.8c0.6,0.3,1,0.3,1.4-0.1C77,37.6,76.5,37.3,76,37.8z"/>
	<path fill="#F6F8E9" d="M75.8,27.6c-0.6,0-1.2-0.2-1.9,0.2c0.1,0.8,0.5,1.3,1.4,1.3c0.4,0,0.8,0.2,1.1-0.2
		C76,28.5,76.1,28,75.8,27.6z"/>
	<path fill="#F6F8E9" d="M78.5,40.7c-0.6-0.3-1-0.3-1.4,0.1C77.5,40.9,78,41.2,78.5,40.7z"/>
	<path fill="#F6F8E9" d="M2.6,11.3c0.2-0.1,0.6,0.5,0.8-0.2C3.1,10.9,2.9,10.9,2.6,11.3z"/>
	<path fill="#F6F8E9" d="M3.7,13.1c-0.2-1-0.7-1.4-1.7-0.9C2.6,12.5,3.1,12.8,3.7,13.1z"/>
	<path fill="#F6F8E9" d="M73.7,34c0.4-0.1,0.8,0.2,1.1-0.1c0.5-0.8-0.6-1.5,0-2.2c-0.3-0.2-0.5-0.7-1.2-0.6
		c-0.1,0.2-0.3,0.5-0.5,0.9c0,0,0.1,0.2,0.3,0.3c-0.2,0.2-0.3,0.4-0.6,0.7C73.8,32.9,73.2,33.7,73.7,34z"/>
	<path fill="#F6F8E9" d="M4.1,30.7c-0.5-0.2-0.7-0.3-1-0.4c-0.2-0.3,0.8-0.5,0.1-0.9c-0.7,0-1,0.5-1.3,1.4C2.7,31,3.4,31.2,4.1,30.7
		z"/>
	<path fill="#F6F8E9" d="M69,47.3c0.5,0.3,0.8,0.5,1-0.1C69.6,46.9,69.4,46.9,69,47.3z"/>
	<path fill="#F6F8E9" d="M71,31.8c0.5,0.3,0.8,0.5,1-0.1C71.6,31.4,71.4,31.4,71,31.8z"/>
	<path fill="#F6F8E9" d="M70.2,34c0.2-0.2,0.2-0.3,0-0.5C70,33.7,70,33.8,70.2,34z"/>
	<path fill="#F6F8E9" d="M71.8,40.4c0.2-0.4,0.4-0.9,0.6-1.4c-1,0-1.9,0-2.7,0C70.5,39.2,70.5,41.1,71.8,40.4z"/>
	<path fill="#F6F8E9" d="M69.3,45.6c-0.8,0-1.7,0-2.6,0c-0.6,0.4-0.8,1-0.7,1.7c0.6,0.4,1.2,0.2,1.8,0.1c0.5-0.6,1-1.2,1.9-0.9
		c0,0,0.1-0.2,0.2-0.3C69.7,46,69.6,45.8,69.3,45.6z"/>
	<path fill="#F6F8E9" d="M71.9,45.8c0.2,0.7,0.4,1.2,1.4,1.2C73.5,45.5,73.5,45.5,71.9,45.8z"/>
	<path fill="#F6F8E9" d="M72.8,4c-0.7,0-1.4,0-2.6,0C71.9,5.3,71.9,5.3,72.8,4z"/>
	<path fill="#F6F8E9" d="M70.5,83.3c0.9,0.6,1.5,0.1,2-0.6c-0.7-0.3-1.4-0.3-2,0C70.5,82.9,70.5,83.1,70.5,83.3z"/>
	<path fill="#F6F8E9" d="M70.8,41c-0.2,0.2-0.2,0.3,0,0.5C71,41.3,71,41.2,70.8,41z"/>
	<path fill="#F6F8E9" d="M48.5,34.1c-0.3-0.1-0.6-0.2-1,0.2C47.9,34.6,48.2,34.7,48.5,34.1z"/>
	<path fill="#F6F8E9" d="M18.3,45.5c-0.9,0-1.6,0-2.3,0c-0.8-0.4-1.4-0.6-1.9-0.9c0.8,0.8,1,1.9,1.8,2.5c1.1-0.2,2-0.8,3.2-0.9
		C18.8,45.9,18.5,45.7,18.3,45.5z"/>
	<path fill="#F6F8E9" d="M16.5,5.7c-0.6-0.3-1.1-0.3-1.5,0.1C15.5,5.8,16,6.2,16.5,5.7z"/>
	<path fill="#F6F8E9" d="M18,11.6c-0.3-0.1-0.6-0.2-1,0.2C17.4,12.1,17.7,12.2,18,11.6z"/>
	<path fill="#F6F8E9" d="M17,59.9c0.3,0.1,0.6,0.2,1-0.2C17.6,59.4,17.3,59.3,17,59.9z"/>
	<path fill="#F6F8E9" d="M17.5,78.5c0.8,0.1,1.2-0.2,1.5-0.9C18.2,77.4,17.9,77.8,17.5,78.5z"/>
	<path fill="#F6F8E9" d="M24.5,94.8c0.2,0.2,0.3,0.2,0.5,0C24.8,94.5,24.7,94.5,24.5,94.8z"/>
	<path fill="#F6F8E9" d="M25.9,56.6c-0.4,0-0.8,0-1.4,0c0.3,1.3-0.4,2.3-0.9,3.4c0.7,0.3,0.9-0.3,1.4-0.6c0-0.5,0-1,0-1.5
		C25.3,57.3,25.8,57.1,25.9,56.6z"/>
	<path fill="#F6F8E9" d="M18.8,81c0.2-0.2,0.2-0.3,0-0.5C18.5,80.7,18.5,80.8,18.8,81z"/>
	<path fill="#F6F8E9" d="M14.6,14.4c0.9,0,1.9,0,3.1,0c-0.7-0.7-1.3-1.1-1.3-1.9c-0.4,0-0.8,0-1.1,0C15.3,13.2,14.2,13.5,14.6,14.4z
		"/>
	<path fill="#F6F8E9" d="M17.9,92.7c-0.3-0.3-0.6-0.3-1,0.1C17.4,93.1,17.7,93.2,17.9,92.7z"/>
	<path fill="#F6F8E9" d="M13,2.2c0,0.2,0,0.4,0,0.7c0.6,0.2,1.2,0.2,1.9-0.1C14.2,2.9,13.9,1.6,13,2.2z"/>
	<path fill="#F6F8E9" d="M14.1,41c-0.3-1.1-0.6-1.6-1.7-1.3C12.6,40.5,12.9,41.1,14.1,41z"/>
	<path fill="#F6F8E9" d="M14.9,54.5c0.3,1.1,0.6,1.6,1.7,1.3C16.4,55,16.1,54.4,14.9,54.5z"/>
	<path fill="#F6F8E9" d="M13.9,54.6c-0.8,0-1.6,0-2.4,0C12.8,55.8,12.8,55.8,13.9,54.6z"/>
	<path fill="#F6F8E9" d="M12.8,1.5c0.2,0,0.4-0.1,1.1-0.2c-0.7-0.3-1-0.5-1.4-0.6C12.4,0.8,12.4,1.2,12.8,1.5z"/>
	<path fill="#F6F8E9" d="M14.2,38.7c1-0.4,1.6,0,2.6-0.7C15.8,38.1,15.1,37.7,14.2,38.7z"/>
	<path fill="#F6F8E9" d="M48,55.8c0.4,0.3,0.8,0.5,1-0.2C48.6,55.5,48.4,55.4,48,55.8z"/>
	<path fill="#F6F8E9" d="M16.5,31.7c-0.1-0.7-0.4-1.3-1.3-1.2c-0.3,0.5-0.3,0.9-0.1,1.4C15.6,32,16.1,32.2,16.5,31.7z"/>
	<path fill="#F6F8E9" d="M14.8,36.5c0.6-0.2,0.6-0.2,0.7-1.1c-0.4,0.1-0.7,0.1-0.8,0.2C14.4,36,14.5,36.3,14.8,36.5z"/>
	<path fill="#F6F8E9" d="M54,77.1c-0.7-0.2-1.3-0.2-1.9,0.2C52.7,77.4,53.4,77.8,54,77.1z"/>
	<path fill="#F6F8E9" d="M57.9,41.1c-0.7-0.1-1.2-0.8-2.2-0.6c-0.4,0.7-1.3,1-2.2,1.1c-0.2,0.7,0.3,0.9,0.6,1.3c1.5,0,2.9,0,4.2,0
		C58.8,42.1,57.8,41.8,57.9,41.1z"/>
	<path fill="#F6F8E9" d="M56.5,44.8c-0.1-0.3-0.1-0.5-0.1-0.7c-0.8,0-1.5,0-2.3,0c-0.1,0.5-0.3,1,0.3,1.5
		C54.9,45,55.8,45.1,56.5,44.8z"/>
	<path fill="#F6F8E9" d="M52.3,55.3c1.9,0.1,2.1,0,1.9-1.4C53.3,54,53.1,54.8,52.3,55.3z"/>
	<path fill="#F6F8E9" d="M52.1,59.4c0.9,0,1.4,0,2.2,0C53.4,58.9,53,58.9,52.1,59.4z"/>
	<path fill="#F6F8E9" d="M47.7,78.4c1,0,1.6,0,2.2,0C49.3,78.1,48.7,77.8,47.7,78.4z"/>
	<path fill="#F6F8E9" d="M47.7,83.5c0.4,0,0.8,0,1.6,0c-0.7-0.5-0.9-1.1-1.6-0.9C47.5,82.8,47.3,83,47.7,83.5z"/>
	<path fill="#F6F8E9" d="M48.5,77.4c0.7,0.2,1.3,0.2,1.9-0.2C49.8,77.1,49.1,76.7,48.5,77.4z"/>
	<path fill="#F6F8E9" d="M53,47c-0.2-0.7,0.4-0.9,0.4-1.3c-1.2-1.4-2.7-1.2-4.5-1.1c0.5,0.7,1.2,0.2,1.6,0.7
		c0.5,0.6,0.7,1.1,0.2,1.7c-0.3,0.4-1-0.3-1.2,0.4C50.8,48,51.8,46.8,53,47z"/>
	<path fill="#F6F8E9" d="M36.5,82.8c0.4,0.3,0.8,0.5,1-0.2C37.1,82.5,36.9,82.4,36.5,82.8z"/>
	<path fill="#F6F8E9" d="M37.9,57c-1.5-0.2-2.2,0.8-3.3,1.9c1.2,0,1.9,0,2.8,0c-0.2-0.3-0.3-0.5-0.4-0.7
		C37.5,57.9,38.2,58.1,37.9,57z"/>
	<path fill="#F6F8E9" d="M34.5,82.6c-0.3-0.1-0.6-0.2-1,0.2C33.9,83.1,34.2,83.2,34.5,82.6z"/>
	<path fill="#F6F8E9" d="M56.7,2.9c-0.7,0.2-1.3,0.5-1.1,1.4c0.5,0.2,1,0.3,1.5-0.1C56.8,3.9,57.3,3.4,56.7,2.9z"/>
	<path fill="#F6F8E9" d="M59.6,94.3c-0.6-0.4-1.1-0.3-1.6,0C58.5,94.6,59,94.6,59.6,94.3z"/>
	<path fill="#F6F8E9" d="M35,53.6c-0.8,0-1.6,0-2.3,0c-0.4,0.5-1,0.8-0.3,1.5C33,54.3,34.4,54.9,35,53.6z"/>
	<path fill="#F6F8E9" d="M56.2,39.6c1-0.1,1.2-1.4,2.2-1.5c-0.6,0-1.2,0-1.8,0C56.3,38.5,55.8,38.7,56.2,39.6z"/>
	<path fill="#F6F8E9" d="M57.6,31.4C57,31.7,56.5,32,56,32.2c0.3,0.6,1.1,0.9,1.1,1.8c0.4-0.4,1.1-0.3,1.3-0.8
		C58.7,32.4,58.3,31.9,57.6,31.4z"/>
	<path fill="#F6F8E9" d="M59,59.6c-0.3-0.1-0.6-0.2-1,0.2C58.4,60.1,58.7,60.2,59,59.6z"/>
	<path fill="#F6F8E9" d="M143.2,30.5c-0.3,0.4-0.8,0.5-0.7,1.3c0.6,0.2,1.1,0.4,1.5-0.2C144.1,31,143.5,30.9,143.2,30.5z"/>
	<path fill="#F6F8E9" d="M193.2,28.5c-0.4,0.4-0.8,0.9-1.2,1.4c-0.1,0.1,0.1,0.3,0.1,0.4c0.4,0.3,0.8,0.1,1.1,0.1
		c0.7-0.6,1.3-1.2,1.9-1.7C194.5,28.3,193.9,28.6,193.2,28.5z"/>
	<path fill="#F6F8E9" d="M191.6,36.3c0.3,0.2,0.6,0.3,0.8-0.2C192.1,36.3,191.7,35.7,191.6,36.3z"/>
	<path fill="#F6F8E9" d="M207,28.8c-0.5-0.4-1-0.4-1.5,0C206,29.1,206.5,29.1,207,28.8z"/>
	<path fill="#F6F8E9" d="M204.1,28.5c-0.7,0.1-1.5-0.2-2.2,0.3c0.5,1.9,2.7,1.2,3.6,2.5c0,0.8,0,1.6,0,2.2c0.5,0.6,0.9,1.2,1.3,1.7
		c0.7-0.3,1.2-0.6,1.6-0.8c0.2-0.5-0.2-0.7-0.3-0.9c-0.1-0.4-0.1-0.8-0.1-1.5c1.3,0.4,2.1,0.8,2.7,1.6c0.1,0.1,0.4,0,0.7,0.1
		c0-0.5,0-0.8,0-1.4c-1.1,0.2-1.3-0.8-1.7-1.5c-0.7,0-1.4-1-2-0.5c-0.7,0.6-1.4,0.4-2.1,0.4C205.5,29.6,204.8,29,204.1,28.5z"/>
	<path fill="#F6F8E9" d="M192.7,36.4c1,0,1.6,0,2.2,0C194.3,36.1,193.7,35.8,192.7,36.4z"/>
	<path fill="#F6F8E9" d="M191.9,21.7c-0.3-0.2-0.6-0.3-0.8,0.2C191.4,21.7,191.8,22.3,191.9,21.7z"/>
	<path fill="#F6F8E9" d="M199.6,32.2c-0.3,0.7,0.4,0.9,0.5,1c0.3-0.1,0.7-0.2,1.2-0.4C200.5,32.4,200.3,31.6,199.6,32.2z"/>
	<path fill="#F6F8E9" d="M197.8,31c-1,0-1.8,0-2.6,0c0,0.7-0.8,1-0.7,1.8c0.4,0.2,0.5,0.8,1.2,0.7c0.7-0.5,1.3-1.1,1.6-2
		c0.5,0,1,0,1.4,0c0.4-0.4,0.7-0.9,1.2-0.9c0.6-0.1,0.8-0.5,1.1-0.8c-0.4-0.4-0.8-0.8-1.2-1.2c-0.6,0.1-1.3-0.3-1.7,0.3
		c-0.2,0.7,0.7,0.8,0.4,1.6C198.3,30.5,198,30.8,197.8,31z"/>
	<path fill="#F6F8E9" d="M95,77.7c0,0.2,0,0.4,0,0.4c0.3-0.1,0.6-0.2,1.1-0.3C95.6,77.4,95.3,77.4,95,77.7z"/>
	<path fill="#F6F8E9" d="M211.9,28.6c-0.6,0-1.3-0.3-1.8,0.1c-0.1,0.7,0.3,0.8,0.7,1.3C210.9,29.3,212.4,29.9,211.9,28.6z"/>
	<path fill="#F6F8E9" d="M213.4,33.4c1.2,0.1,2.3,0.3,3.2-0.5c0.9,0.4,0.8,1.3,1.4,1.8c0.1,0.1,0.2,0.1,0.3,0.2
		c0.2-0.5,0.5-1,0.7-1.5c-0.5-1.2-1.3-2.1-2.3-2.9c-0.5,0.5-1,1-1.4,1.4C214.4,31.9,213.6,32,213.4,33.4z"/>
	<path fill="#F6F8E9" d="M191.1,35.3c0.5,0.2,0.9,0.2,1.5-0.1c-0.6-0.3-0.7-0.9-1.4-0.7C191,34.8,190.9,35,191.1,35.3z"/>
	<path fill="#F6F8E9" d="M214.1,23.1c-0.6,0-1.1,0-1.5,0C213,23.3,213.5,23.8,214.1,23.1z"/>
	<path fill="#F6F8E9" d="M221.3,36.1c0.8-0.3,1.7-1.2,2.6,0c1.1-0.6,2.1-1,2.6-2c-0.1-0.5,0.3-1.1,0.1-1.3c-1.5-0.8-1.7,0.6-2.4,0.6
		c-1.3,0-1.9,1.1-2.9,1.6C220.8,35.2,220.9,35.7,221.3,36.1z"/>
	<path fill="#F6F8E9" d="M215.8,28.1c-0.3-0.1-0.6-0.1-0.8,0.2c0,0.2,0,0.3,0,0.5c0.3,0.3,0.7,0.3,1,0
		C216,28.5,216.1,28.2,215.8,28.1z"/>
	<path fill="#F6F8E9" d="M209.5,36.3c0.5,0.3,1,0.3,1.4,0c0.1-0.3,0.1-0.6-0.2-0.8C210.1,35.4,209.8,35.9,209.5,36.3z"/>
	<path fill="#F6F8E9" d="M202.7,34.1c0.8-0.3,1.3-0.6,1.3-0.9c-0.3-0.6-0.5-0.9-0.6-1.2C202.4,32.5,202.3,33.2,202.7,34.1z"/>
	<path fill="#F6F8E9" d="M221.8,34c0.3-0.5,0.3-0.9,0-1.4c-0.3-0.1-0.6-0.1-0.8,0.2C220.9,33.4,221.4,33.7,221.8,34z"/>
	<path fill="#F6F8E9" d="M206.8,46.3c0.8,0.3,1.4,0.2,2.1-0.1C208.3,46.1,207.7,45.8,206.8,46.3z"/>
	<path fill="#F6F8E9" d="M174.6,38.8c0.3,0.2,0.6,0.3,0.8-0.2C175.1,38.8,174.7,38.2,174.6,38.8z"/>
	<path fill="#F6F8E9" d="M173.6,33.9c0.6,0,1.3,0.3,1.8-0.2C174.8,33.7,174.2,33.3,173.6,33.9z"/>
	<path fill="#F6F8E9" d="M171,37.7c0,0.2,0,0.4,0,0.6c0.5,0.3,0.9,0.3,1.6-0.1C172,37.9,171.8,37.1,171,37.7z"/>
	<path fill="#F6F8E9" d="M170.9,46.6c-0.4,0-0.9-0.4-1.4,0.1C170,47.1,170.5,47.1,170.9,46.6z"/>
	<path fill="#F6F8E9" d="M177.1,53.9c0.2-0.1,0.7,0.5,0.8-0.2C177.6,53.4,177.4,53.4,177.1,53.9z"/>
	<path fill="#F6F8E9" d="M174.4,26.7c-0.3-0.2-0.6-0.3-0.8,0.2C173.9,26.7,174.3,27.3,174.4,26.7z"/>
	<path fill="#F6F8E9" d="M164,36.8c0.2,0.2,0.3,0.2,0.5,0C164.3,36.5,164.2,36.5,164,36.8z"/>
	<path fill="#F6F8E9" d="M163.5,31.1c0.4,0.6,0.6,1,1.3,0.9c0.3-0.2,0.3-0.5,0.1-0.9C164.5,31.1,164,31.1,163.5,31.1z"/>
	<path fill="#F6F8E9" d="M171.3,29.1c-0.4,0-0.8,0-1.2,0c-0.2,1.1-1.9,1.4-1.6,2.9c0.9,0,1.8,0,2.7,0c0.3,0.4,0.6,0.8,0.9,1.1
		c1.3,0,2.4,0,3.8,0c0.4,0.4,0.8,1,1.2,1.5c0.4,0,0.7,0,1-0.1c0.3-0.6,0.1-1.2,0.2-1.7c-0.4-0.4-0.8-0.8-1.2-1.2c-0.3,0-0.6,0-1,0
		c-0.2,0-0.5,0.1-0.7,0.2c-2.4,0.8-3.3,0.3-4.4-2.1C171.2,29.4,171.7,29.4,171.3,29.1z"/>
	<path fill="#F6F8E9" d="M183.1,44.9c0.8,0,1.6,0,2.3,0C184.6,44.6,183.8,44.3,183.1,44.9z"/>
	<path fill="#F6F8E9" d="M185.4,1.8c0.6,0.3,1,0.3,1.6,0C186.4,1.4,186,1.4,185.4,1.8z"/>
	<path fill="#F6F8E9" d="M188.1,33.6c1.4-0.8,1.4-0.8,1.2-2.1c-2.2,0.6-3.2,1.9-3,3.9C187.8,35.3,187.8,35.3,188.1,33.6z"/>
	<path fill="#F6F8E9" d="M186.6,76.3c0.3,0.3,0.6,0.3,1-0.1C187.1,75.9,186.8,75.8,186.6,76.3z"/>
	<path fill="#F6F8E9" d="M182.4,29.4c0.3,1,1.6,1.4,1.7,2.6c1,0.1,1.7-0.1,1.9-1C184.3,29.1,183.8,28.9,182.4,29.4z"/>
	<path fill="#F6F8E9" d="M169.2,27c-0.3,0.2-0.8-0.3-1.2,0.3c0,0.2-0.1,0.5,0.2,0.7c0.3,0,0.7,0,1.3,0
		C169.5,27.5,169.6,27.3,169.2,27z"/>
	<path fill="#F6F8E9" d="M180,44.2c-0.2-0.2-0.3-0.2-0.5,0C179.7,44.5,179.8,44.5,180,44.2z"/>
	<path fill="#F6F8E9" d="M180.7,33.5c0.5,0,1.1,0,1.6,0c0.3-0.4,0.8-0.6,0.7-1.3c-0.7-0.3-1.5-0.1-2.5-0.1
		C180.6,32.6,180.3,33.1,180.7,33.5z"/>
	<path fill="#F6F8E9" d="M180.5,29.8c0.3,0.4,0.7,0.4,1,0C181.2,29.4,180.8,29.4,180.5,29.8z"/>
	<path fill="#F6F8E9" d="M231.8,28c-0.2,0.2-0.2,0.3,0,0.5C232,28.3,232,28.2,231.8,28z"/>
	<path fill="#F6F8E9" d="M286.6,30.4c0.9,0,1.9,0,2.8,0c0-0.5,0-0.9,0-1.4C288.3,29.1,286.9,28.5,286.6,30.4z"/>
	<path fill="#F6F8E9" d="M289.4,25.9c-0.2-0.3-0.4-0.7-0.5-0.9c-0.4,0.3-0.6,0.5-0.9,0.8C288.4,26.2,288.9,26,289.4,25.9z"/>
	<path fill="#F6F8E9" d="M280.1,31.9c0.2-0.1,0.7,0.5,0.8-0.2C280.6,31.4,280.4,31.4,280.1,31.9z"/>
	<path fill="#F6F8E9" d="M262.6,5.1c0.4,0.2,0.9,0.7,1.5,0C263.5,5.1,263,5.1,262.6,5.1z"/>
	<path fill="#F6F8E9" d="M295.5,27.4c0.3,0.1,0.6,0.2,1-0.2C296.1,26.9,295.8,26.8,295.5,27.4z"/>
	<path fill="#F6F8E9" d="M279.5,30.9c1.3,0.1,2.6,0.4,3.6-0.4c0.3,0.2,0.4,0.4,0.6,0.5c0.3-0.3,0.5-0.5,0.7-0.7
		c-1.4-0.4-1.3-1.7-1.7-2.7c-1.1-0.2-1.8,0.5-3.2,0.7c1.1,0.3,1.6,0.5,1.9,1C280.9,29.9,280.4,30.5,279.5,30.9z"/>
	<path fill="#F6F8E9" d="M265,31.2c0.3,0.3,0.5,0.8,1.3,0.8c0.1-0.4,0.7-0.4,0.7-1.2c-0.3-0.3-0.6-0.7-1-1.1
		c0.2-0.3,0.5-0.2,0.7-0.2c0.2-0.4,0.4-0.9,0.8-1.5c-0.7,0.2-1.4-0.4-1.9,0.4c0.1,0.1,0.2,0.2,0.4,0.4
		C265.5,29.5,264.9,30.2,265,31.2z"/>
	<path fill="#F6F8E9" d="M270.7,32c1.1,0.2,2-0.9,3.1-0.4c0.3-0.5,0.2-0.9,0.2-1.1c-1-1.1-2.1-1-3.2-0.9c-0.2,0.2-0.4,0.4-0.7,0.7
		C270.9,30.5,270.2,31.4,270.7,32z"/>
	<path fill="#F6F8E9" d="M278.4,27.3c0.3,0,0.9-0.5,0.5-1.2c-1,0-2.1,0-3.2,0c0.3,1-1.2,1.2-1.1,2.6C275.9,28.1,277,27.3,278.4,27.3
		z"/>
	<path fill="#F6F8E9" d="M289.6,28.4c1,0,1.9,0,3.1,0c-1.1-0.6-2-1.2-3.2-0.7C289.5,28,289.4,28.2,289.6,28.4z"/>
	<path fill="#F6F8E9" d="M0.4,13.3C0.5,13,0.2,13,0,13v0.5C0.1,13.4,0.4,13.4,0.4,13.3z"/>
	<path fill="#F6F8E9" d="M1.2,40c0.6,0.6,0.8,1.5,1,2.5C3,42,3.1,41.4,3,40.8c-0.4-0.4-0.8-0.8-1.2-1.3c-0.6,0-1.2,0-1.8,0V41
		C0.8,41.2,0.2,39.8,1.2,40z"/>
	<path fill="#F6F8E9" d="M1,3.5c-0.4,0-0.7,0-1,0V4C0.3,3.9,0.8,4.3,1,3.5z"/>
	<path fill="#F6F8E9" d="M298.5,26.3c0.5,0.4,1,0.2,1.5,0.2V26C299.5,26.1,299,25.8,298.5,26.3z"/>
	<path fill="#F6F8E9" d="M3,0.8C2.8,0.5,2.4,0.4,2.5,0H0v1.5c0.8,0,1.6,0,2.2,0C2.5,1.2,2.8,1,3,0.8z"/>
	<path fill="#F6F8E9" d="M6,0H4C4.6,0.7,5.4,0.7,6,0z"/>
	<path fill="#F6F8E9" d="M64.2,0.4c0.3,0.1,0.3-0.2,0.3-0.4H64C64.1,0.1,64.1,0.4,64.2,0.4z"/>
	<path fill="#F6F8E9" d="M1,2C0.6,2,0.3,2,0,2v0.5C0.3,2.4,0.8,2.8,1,2z"/>
	<path fill="#F6F8E9" d="M260.2,2.5c-0.2,0.2-0.2,0.3,0,0.5C260.5,2.8,260.5,2.7,260.2,2.5z"/>
	<path fill="#F6F8E9" d="M242.9,31.9c-1.2,0.4-1.6-0.4-2.3-0.8c0.5,1.4,0.5,1.4,2,2.4c0.5-0.3,0.3-1.1,0.9-1.3
		c0.5-0.2,1.1-0.3,1.4-0.9c-0.5-0.5-0.4-1.4-1.2-1.7c-0.3,0.2-0.5,0.4-0.8,0.6c0.2,0.2,0.3,0.4,0.5,0.6
		C242.9,31,243.2,31.7,242.9,31.9z"/>
	<path fill="#F6F8E9" d="M235.6,28.2c-0.6-0.2-0.6-1.1-1.6-0.5C234.5,28,234.6,28.9,235.6,28.2z"/>
	<path fill="#F6F8E9" d="M235.8,92.5c-0.2,0.2-0.2,0.3,0,0.5C236,92.8,236,92.7,235.8,92.5z"/>
	<path fill="#F6F8E9" d="M245.8,22c-0.2,0.2-0.2,0.3,0,0.5C246,22.3,246,22.2,245.8,22z"/>
	<path fill="#F6F8E9" d="M232.6,29.6c0.2,0.3,0.4,0.7,0.5,0.9c0.4-0.3,0.6-0.5,0.9-0.8C233.6,29.3,233.1,29.5,232.6,29.6z"/>
	<path fill="#F6F8E9" d="M228.4,26c-0.5,0-0.9,0-1.2,0c-0.2,0.5-0.4,0.9-0.6,1.4c0.5,0,0.9,0,1.2,0C228,27,228.2,26.5,228.4,26z"/>
	<path fill="#F6F8E9" d="M247,32.8c-0.2-0.2-0.3-0.2-0.5,0C246.7,33,246.8,33,247,32.8z"/>
	<path fill="#F6F8E9" d="M257.5,26.2c-0.3-0.4-0.7-0.4-1,0C256.8,26.6,257.2,26.6,257.5,26.2z"/>
	<path fill="#F6F8E9" d="M166.1,46.8c0.3,0.2,0.6,0.3,0.8-0.2C166.6,46.8,166.2,46.2,166.1,46.8z"/>
	<path fill="#F6F8E9" d="M230.1,29.1c0,0.4,0,0.8,0,1.4c0.6-0.4,1-0.6,0.9-1.3C230.8,29,230.5,28.9,230.1,29.1z"/>
	<path fill="#F6F8E9" d="M258,24.5c-0.5,0.3-0.8,0.5-1.6,1c1.4,0,2.2,0,3.2,0c-0.3,0.4-0.4,0.5-0.6,0.7c0.5,0.8,1.1,1.1,1.9,0.6
		c0-0.2,0-0.3,0-0.4c-0.2-0.6-0.8-0.2-1-0.6c0.2-0.2,0.3-0.3,0.7-0.8C259.5,25.3,258.8,24.3,258,24.5z"/>
	<path fill="#F6F8E9" d="M227.2,30.5c0.2-0.2,0.5-0.5,0.8-0.8c-0.6-0.3-1.1-0.3-1.6,0C226.8,30,227,30.3,227.2,30.5z"/>
	<path fill="#F6F8E9" d="M259.9,28.3c0.6,0.2,0.8,0.2,1.1-0.1c0-0.2-0.1-0.4-0.2-0.8C260.5,27.8,260.2,28,259.9,28.3z"/>
	<path fill="#F6F8E9" d="M258,32.8c-0.1-0.4,0.2-0.8-0.3-1.3c-0.3,0.2-0.9-0.3-1.2,0.3c0,0.3,0,0.7,0,1
		C257,33.1,257.5,33.2,258,32.8z"/>
	<path fill="#F6F8E9" d="M247.6,24.8c0.3,0.3,0.6,0.3,1-0.1C248.1,24.4,247.8,24.3,247.6,24.8z"/>
	<path fill="#F6F8E9" d="M248.1,28.3c0.3,0.2,0.6,0.3,0.8-0.2C248.6,28.3,248.2,27.7,248.1,28.3z"/>
	<path fill="#F6F8E9" d="M251,33.8c-0.3-0.4-0.7-0.4-1,0C250.3,34.1,250.7,34.1,251,33.8z"/>
	<path fill="#F6F8E9" d="M248.3,30.5c0.7-0.2,1.5,0.2,2.2-0.3c0-0.3,0-0.5-0.1-0.6c-0.1-0.2-0.3-0.4-0.7-0.7
		c-0.7,0.2-1.5-0.2-2.2,0.3C247.4,29.9,248,30.1,248.3,30.5z"/>
	<path fill="#F6F8E9" d="M199.6,24c0.8-0.4,1.1-0.5,1.7-0.8c-1-0.3-1.6-0.3-2.5,0C199.4,23.4,199.5,24,199.6,24z"/>
	<path fill="#F6F8E9" d="M114.9,92.2c0.8,0.2,0.3,1.2,1.2,1.4c0.5-0.3,1.1-0.5,0.8-1.4C116.3,91.9,115.7,91.9,114.9,92.2z"/>
	<path fill="#F6F8E9" d="M119.3,35c-0.3,0.4-1,0.6-0.7,1.3c0.5,0.2,1,0.4,1.4-0.2C120.1,35.5,119.5,35.4,119.3,35z"/>
	<path fill="#F6F8E9" d="M167.4,29.2c-0.3-0.3-0.6-0.3-1,0.1C166.9,29.6,167.2,29.7,167.4,29.2z"/>
	<path fill="#F6F8E9" d="M116.1,31.8c-0.7,0.6-0.8,1.3-1.3,2.2c1,0,1.6,0.3,2.4-0.3C116.8,33,116.5,32.5,116.1,31.8z"/>
	<path fill="#F6F8E9" d="M103.6,78.3c-0.6-0.4-1.1-0.3-1.6,0C102.5,78.6,103,78.6,103.6,78.3z"/>
	<path fill="#F6F8E9" d="M100.9,45.7c0.6,0.4,1.1,0.3,1.6,0C102,45.4,101.5,45.4,100.9,45.7z"/>
	<path fill="#F6F8E9" d="M117.5,27.7c0.2,0.2,0.3,0.4,0.4,0.5c0.1,0.3-0.6,0.3-0.3,0.7c0.8,0.2,1.6,0.2,2.3-0.7
		C119.3,27.3,118.5,27.4,117.5,27.7z"/>
	<path fill="#F6F8E9" d="M104.6,36.5c0.5-0.2,0.4-0.6,0.2-1c-0.4,0-0.7,0-1.6,0C103.9,36,104,36.6,104.6,36.5z"/>
	<path fill="#F6F8E9" d="M102,29.2c0.6,0.4,1.1,0.4,1.5,0c0-0.3,0-0.7,0-1.2C102.5,27.9,102.1,28.4,102,29.2z"/>
	<path fill="#F6F8E9" d="M120.4,10.2c-0.3-0.3-0.6-0.3-1,0.1C119.9,10.6,120.2,10.7,120.4,10.2z"/>
	<path fill="#F6F8E9" d="M127.2,28c0.3,0,0.6,0,1.1,0c0.1-0.3,0.1-0.5,0.1-0.6c0.1-0.3,0.3-0.5,0.4-0.7c-1.4-0.9-1.6-0.9-2.4,0.1
		C127.1,27,126.9,27.6,127.2,28z"/>
	<path fill="#F6F8E9" d="M127.4,3.7c-0.3-0.2-0.6-0.3-0.8,0.2C126.9,3.7,127.3,4.3,127.4,3.7z"/>
	<path fill="#F6F8E9" d="M102.9,38.2c-0.3-0.2-0.6-0.3-1,0.1C102.4,38.6,102.7,38.7,102.9,38.2z"/>
	<path fill="#F6F8E9" d="M126.9,40.7c-0.3-0.2-0.6-0.3-1,0.1C126.4,41.1,126.7,41.2,126.9,40.7z"/>
	<path fill="#F6F8E9" d="M128.1,45.3c-0.6-0.5-1-0.2-1.4-0.4c-0.4-0.2-0.6-0.9-1.3-0.3C126.1,45.7,127,45.6,128.1,45.3z"/>
	<path fill="#F6F8E9" d="M121.5,4c0,0.2,0.1,0.4,0.3,0.4c0,0,0.2-0.1,0.1-0.1C121.9,4.1,121.7,4,121.5,4c0-0.2-0.1-0.4-0.3-0.4
		c0,0-0.2,0.1-0.1,0.1C121.1,3.9,121.3,4,121.5,4z"/>
	<path fill="#F6F8E9" d="M120.5,37.5c1.5,0.2,2.5-0.7,3.7-1.6c-0.7-0.6-1.4-0.4-2-0.4C122.3,36.8,120.7,36.4,120.5,37.5z"/>
	<path fill="#F6F8E9" d="M121.2,1c0.2-0.2,0.2-0.3,0-0.5C121,0.7,121,0.8,121.2,1z"/>
	<path fill="#F6F8E9" d="M128,39.1c-1,0-1.9,0-3.4,0c0.7,0.4,1,0.6,1.4,0.8c0.6,0,1.3,0,2.1,0C128,39.6,128,39.4,128,39.1z"/>
	<path fill="#F6F8E9" d="M83.9,91.6c-0.4,0-0.9-0.3-1.4,0.1C83,92.1,83.5,92.1,83.9,91.6z"/>
	<path fill="#F6F8E9" d="M83.4,38.8c-0.2-0.3-0.5-0.6-0.7-0.9c-1,0.3-0.8,0.6-0.6,1C82.6,39,83.1,39.2,83.4,38.8z"/>
	<path fill="#F6F8E9" d="M80.9,54.7c-0.3-0.2-0.6-0.3-1,0.1C80.4,55.1,80.7,55.2,80.9,54.7z"/>
	<path fill="#F6F8E9" d="M80,91.8c0.2,0.2,0.3,0.2,0.5,0C80.3,91.5,80.2,91.5,80,91.8z"/>
	<path fill="#F6F8E9" d="M85.5,53.2c1.9,0.7,3.1-0.5,4.5-0.4C88.6,52,87.3,53,85.5,53.2z"/>
	<path fill="#F6F8E9" d="M105.7,32c-0.4,0-0.8,0-1.5,0c-0.6-0.6-1.1-1.5-2.2-0.8c-0.1,0.9-0.3,1.8,0.6,2.2c1.2,0,2.2,0,3.5,0
		C105.8,32.9,106.3,32.4,105.7,32z"/>
	<path fill="#F6F8E9" d="M92.5,53.2c-0.6-0.3-1-0.3-1.4,0.1C91.5,53.4,92,53.7,92.5,53.2z"/>
	<path fill="#F6F8E9" d="M83.8,40c-0.6,0.1-1.2-0.2-1.8,0.2c0.2,0.2,0.3,0.3,0.6,0.6c-0.4,0.2-0.7,0.3-1,0.4c0,0.2,0,0.4,0,0.7
		c0.8,0,1.6,0,2.4,0C84,41.2,84.2,40.6,83.8,40z"/>
	<path fill="#F6F8E9" d="M86,79.7c0.2,0.5,0.8,0.2,1.3,0.2c0.2-0.6,0.2-1.2,0-2C86.2,78.2,85.8,78.9,86,79.7z"/>
	<path fill="#F6F8E9" d="M114.4,33.8c-0.2-0.3-0.5-0.6-0.7-0.9c-1,0.3-0.8,0.6-0.6,1C113.6,34,114.1,34.2,114.4,33.8z"/>
	<path fill="#F6F8E9" d="M108.4,94.2c-0.3-0.2-0.6-0.3-1,0.1C107.9,94.6,108.2,94.7,108.4,94.2z"/>
	<path fill="#F6F8E9" d="M106.3,28.7c0.7,0.7,0.6,1.6,0.8,2.2c0.8,0.3,0.9-0.6,2-0.2c0.7,0.2,0.2,1.3,0.4,2.2
		c1.5,0.6,1.8-1.1,2.9-1.1c0-0.3,0-0.7,0-1c-1-0.3-1.5-1.1-2.4-1.9C108.9,29.9,107.8,28,106.3,28.7z"/>
	<path fill="#F6F8E9" d="M110.2,42c0.2-0.2,0.2-0.3,0-0.5C110,41.7,110,41.8,110.2,42z"/>
	<path fill="#F6F8E9" d="M106,83.2c0.8-0.4,1.4-0.7,1.9-0.9c-0.7-0.2-1.3-0.5-1.9-0.1C106,82.4,106,82.6,106,83.2z"/>
	<path fill="#F6F8E9" d="M111.2,36.9c0.5,0,0.9,0.3,1.3-0.2c0-0.3,0-0.7,0-1c-0.5-0.4-1-0.4-1.5,0C111.1,36.1,110.8,36.6,111.2,36.9
		z"/>
	<path fill="#F6F8E9" d="M109.9,3.7c-0.3-0.3-0.6-0.3-1,0.1C109.4,4.1,109.7,4.2,109.9,3.7z"/>
	<path fill="#F6F8E9" d="M102.8,40.5c0.2-0.2,0.2-0.3,0-0.5C102.5,40.2,102.5,40.3,102.8,40.5z"/>
	<path fill="#F6F8E9" d="M114.1,34.8c-0.6-0.4-1.1-0.3-1.6,0C113,35.1,113.5,35.1,114.1,34.8z"/>
	<path fill="#F6F8E9" d="M119.5,40.8c0.2,0.2,0.3,0.2,0.5,0C119.8,40.5,119.7,40.5,119.5,40.8z"/>
	<path fill="#F6F8E9" d="M151.7,33c-1-0.9-1.6-2.2-3.1-2.6c0.2,1.4,1.3,2,1.7,3.1C150.7,33.4,151.1,33.7,151.7,33z"/>
	<path fill="#F6F8E9" d="M149.2,79.5c0.5-0.1,1.1,0.2,1.9-0.2c-0.7-0.3-1.2-0.6-1.7-0.9C149,78.7,148.9,79,149.2,79.5z"/>
	<path fill="#F6F8E9" d="M153.7,31.5c-0.2,0.2-0.5,0.5-0.7,0.7c0.2,0.4,0.4,0.8,0.7,1.3c1.2-0.3,2.1,0.4,3.2,1
		c0.1-1.6-1.1-1.4-2.1-1.8c0.8-0.5,1.6,0.1,2.4-1C155.7,32.5,154.9,31.3,153.7,31.5z"/>
	<path fill="#F6F8E9" d="M148.3,35.1c-0.4,0.2-0.8,0.5-1.5,0.9c1.6,0,2.8,0,4.1,0c0.2-0.7-0.1-1.3,0.6-1.7c-1.6-0.6-1.9,0.5-2.2,1.3
		C148.7,35.6,148.5,35.3,148.3,35.1z"/>
	<path fill="#F6F8E9" d="M145.4,79.2c0.6,0.4,1.1,0.3,1.6,0C146.5,78.9,146,78.9,145.4,79.2z"/>
	<path fill="#F6F8E9" d="M146.2,31c-0.2,0.2-0.2,0.3,0,0.5C146.5,31.3,146.5,31.2,146.2,31z"/>
	<path fill="#F6F8E9" d="M144,94.1c-0.7-0.2-1.3-0.2-1.9,0.2C142.7,94.4,143.4,94.8,144,94.1z"/>
	<path fill="#F6F8E9" d="M143.1,37.3c0.3,0.3,0.6,0.3,1-0.1C143.6,36.9,143.3,36.8,143.1,37.3z"/>
	<path fill="#F6F8E9" d="M128,93.2c-0.5-0.4-1-0.4-1.5,0C127,93.6,127.5,93.6,128,93.2z"/>
	<path fill="#F6F8E9" d="M162.1,30.5c-0.3-1.1-0.6-1.6-1.7-1.3C160.6,30,160.9,30.6,162.1,30.5z"/>
	<path fill="#F6F8E9" d="M154.1,93.4c0.2-0.1,0.7,0.5,0.8-0.2C154.6,92.9,154.4,92.9,154.1,93.4z"/>
	<path fill="#F6F8E9" d="M158.3,30.1c-0.4,0-0.8,0-1.4,0c0.3,0.5-0.1,1,0.3,1.4c0.4,0,0.8,0,1.2,0.1c0.1,0.3,0.1,0.6,0.3,1
		c0.5-0.1,1,0.1,1.4-0.3C159.1,31.8,159.1,30.6,158.3,30.1z"/>
	<path fill="#F6F8E9" d="M156,28.2c-0.5-0.3-0.9-0.3-1.4,0c0,0.2,0,0.4,0,0.6c0.5,0.3,0.9,0.3,1.4,0C156,28.6,156,28.4,156,28.2z"/>
	<path fill="#F6F8E9" d="M163.5,35.3c1.4-0.1,2.8-0.1,4.1-1.1C165.8,33.5,164.8,34.8,163.5,35.3z"/>
	<path fill="#F6F8E9" d="M155.4,36.7c-0.3-0.2-0.6-0.3-0.8,0.2C154.9,36.7,155.3,37.3,155.4,36.7z"/>
	<path fill="#F6F8E9" d="M158.9,93.8c0.6,0.3,1.1,0.3,1.6,0C160,93.4,159.5,93.4,158.9,93.8z"/>
	<path fill="#F6F8E9" d="M159.5,33.7c0.6,1,1.5,0.9,2.9,0.6C161.2,34,160.5,33.1,159.5,33.7z"/>
	<path fill="#F6F8E9" d="M140.5,32.7c-0.2-0.2-0.5-0.5-0.7-0.7c-0.6,0-1.2-0.2-1.8,0.2c0,0.4,0,0.7,0,1.1
		C138.9,33.6,139.8,33.7,140.5,32.7z"/>
	<path fill="#F6F8E9" d="M145,45.8c0.5,0.4,1,0.4,1.5,0C146,45.4,145.5,45.4,145,45.8z"/>
	<path fill="#F6F8E9" d="M124.3,79.5c0.3-0.2,0.3-0.5,0.1-0.9c-0.4,0-0.8,0-1.4,0C123.3,79.1,123.6,79.6,124.3,79.5z"/>
	<path fill="#F6F8E9" d="M124.3,46.1c-0.6,0.1-0.6,0.1-0.8,0.7c0.3,0.4,0.7,0.4,1,0C124.5,46.5,124.6,46.2,124.3,46.1z"/>
	<path fill="#F6F8E9" d="M121.8,92.5c0.2-0.2,0.2-0.3,0-0.5C121.5,92.2,121.5,92.3,121.8,92.5z"/>
	<path fill="#F6F8E9" d="M131.9,45.9c-0.4-0.2-0.9-0.7-1.5,0C131,45.9,131.5,45.9,131.9,45.9z"/>
	<path fill="#F6F8E9" d="M132.5,33.3c0-0.3,0-0.6,0-1c-0.5-0.4-0.8-1.1-1.8-1.3c-0.3,0.8-0.2,1.4-0.1,1.9
		C131.2,33.5,131.7,33.9,132.5,33.3z"/>
	<path fill="#F6F8E9" d="M128.8,33c-0.3,0-0.7,0-1.3,0c0.1,0.4-0.1,0.7,0.2,0.9c0.4,0.1,0.9,0.3,1.3-0.2
		C129,33.5,129.1,33.3,128.8,33z"/>
	<path fill="#F6F8E9" d="M127,46.2c0.5,0.4,1,0.4,1.5,0C128,45.9,127.5,45.9,127,46.2z"/>
	<path fill="#F6F8E9" d="M125.8,31c0.8-0.8,1.4-1.4,2-2c-0.9-1.3-1.8,0-2.8,0.2C124.9,30.2,125.2,30.8,125.8,31z"/>
	<path fill="#F6F8E9" d="M124.5,32.3c0,0.3,0,0.7,0,1c0.5,0.4,1,0.4,1.5,0c-0.1-0.4,0.2-0.8-0.2-1.2C125.4,32,124.9,31.8,124.5,32.3
		z"/>
	<path fill="#F6F8E9" d="M130.4,79.3c0.6,0.3,1.1,0.3,1.6,0C131.5,78.9,131,78.9,130.4,79.3z"/>
	<path fill="#F6F8E9" d="M139.9,12.1c-0.3-0.1-0.6-0.2-0.8,0.3C139.4,12.2,139.8,12.8,139.9,12.1z"/>
	<path fill="#F6F8E9" d="M138.1,78.8c-0.4,0.1-0.7,0.3-1.1,0.4c0.1,0.1,0.1,0.2,0.2,0.2c0.8,0,1.5,0,2.3,0
		C138.8,79.2,138.5,78.4,138.1,78.8z"/>
	<path fill="#F6F8E9" d="M140,26.2c-0.3-0.4-0.7-0.4-1,0C139.3,26.6,139.7,26.6,140,26.2z"/>
	<path fill="#F6F8E9" d="M136,93.7c0,0.2,0,0.4,0,0.6c0.5,0.3,0.9,0.3,1.4,0c0-0.2,0-0.4,0-0.6C137,93.4,136.5,93.4,136,93.7z"/>
	<path fill="#F6F8E9" d="M132.8,40.5c-0.2,0.2-0.2,0.3,0,0.5C133,40.8,133,40.7,132.8,40.5z"/>
	<path fill="#F6F8E9" d="M139.2,45c-0.2,0.5-0.8,0.4-1.2,0.9c0.6,0,1.3,0.4,1.9-0.1C139.7,45.5,139.5,45.2,139.2,45z"/>
	<path fill="#F6F8E9" d="M136,31.4c0,0,0.1-0.1,0.2,0.1c0.3,0,0.7,0,1,0c0.2-1,1.1-1.1,1.8-1.5c0.5,0,0.7,0.8,1.3,0.4
		c0.1-0.1,0.2-0.1,0.2-0.2c0-0.3,0-0.7,0-1c-0.2-0.4-0.6-0.1-0.8-0.4c-0.3-0.3-0.6-0.5-1.4-0.3c-0.4,0.2-1.1,0.6-1.9,1.1
		c0.2,0.6-0.1,1.2-0.4,1.7C136,31.4,136,31.4,136,31.4z"/>
	<path fill="#F6F8E9" d="M134.4,33.7c-0.3-0.2-0.6-0.3-0.8,0.2C133.9,33.7,134.3,34.3,134.4,33.7z"/>
</g>
<g>
	<path fill="#F6F8E9" d="M272.3,68c0.2-0.2,0.2-0.3,0-0.5C272,67.7,272,67.8,272.3,68z"/>
	<path fill="#F6F8E9" d="M271.6,39.7c0.1,0.6,0.1,0.6,0.7,0.8c0.3-0.3,0.4-0.7,0-1C272,39.5,271.7,39.4,271.6,39.7z"/>
	<path fill="#F6F8E9" d="M274.5,59.4c0.2-0.9-0.1-1.4-0.7-1.8c-1.1,0-2.1,0-3.1,0c-0.3,0.4-0.8,0.5-0.7,1c0.2,0.4,0.5,0.8,1,0.9
		c0.5,0.1,0.6-0.7,1.1-0.5C272.7,59.6,273.5,59.6,274.5,59.4z"/>
	<path fill="#F6F8E9" d="M275,85.9c0-0.3,0-0.5,0-0.8c-0.6-0.2-1.3-0.2-1.9,0c0,0.3,0,0.5,0,0.8C273.7,86.1,274.3,86.1,275,85.9z"/>
	<path fill="#F6F8E9" d="M271.5,20.2c0.5,0.6,1,1,2,0.6C273,20.1,272.4,19.6,271.5,20.2z"/>
	<path fill="#F6F8E9" d="M273.1,54.4c0.2,0.2,0.5,0.4,0.9,0.8c0.8-1.1,1.9-0.6,2.9-0.7c0.2,0,0.5,0,0.8-0.5
		c-0.4-0.2-0.8-0.5-1.2-0.7c0.2-0.3,0.3-0.4,0.7-0.9c-0.9,0.2-1.3-0.1-1.6,0.3c-0.1,0.3,0,0.7-0.4,0.8c-0.5,0-1,0-1.5,0
		C273.6,53.8,273.1,53.9,273.1,54.4z"/>
	<path fill="#F6F8E9" d="M277,66.2c-0.6-0.3-1-0.3-1.4,0.1C276,66.3,276.5,66.7,277,66.2z"/>
	<path fill="#F6F8E9" d="M275.1,96.3c0.3,0.2,0.6,0.3,0.8-0.2C275.6,96.3,275.2,95.7,275.1,96.3z"/>
	<path fill="#F6F8E9" d="M264,51.4c0.3,0.1,0.6,0.2,1-0.2C264.6,50.9,264.3,50.8,264,51.4z"/>
	<path fill="#F6F8E9" d="M264.9,45.6c-0.9,0-1.4,0-2.2,0C263.6,46.1,264,46.1,264.9,45.6z"/>
	<path fill="#F6F8E9" d="M262.8,42c-1.3,0.9-0.2,1.7-0.1,2.3c0.2,0.7,1,1,1.8,0.4c0.2-0.9-0.4-1.5-0.7-2.3
		C263.3,42.6,263,42.3,262.8,42z"/>
	<path fill="#F6F8E9" d="M276,4.8c0.2,0.2,0.3,0.2,0.5,0C276.3,4.5,276.2,4.5,276,4.8z"/>
	<path fill="#F6F8E9" d="M264,93.7c-1.6-0.1-1.6-0.1-1.3,1.3C263.9,95.2,263.3,93.9,264,93.7z"/>
	<path fill="#F6F8E9" d="M269.1,55.9c0.7,0,1.3,0.3,2-0.2c-0.3-0.6-0.5-1-1.2-1.2C269.4,54.8,268.8,55,269.1,55.9z"/>
	<path fill="#F6F8E9" d="M265.4,58.9c0.2-0.6,0.2-1.2,0-1.9c-0.9,0-1.2,0.5-1.4,1.1C264.3,58.5,264.5,59.2,265.4,58.9z"/>
	<path fill="#F6F8E9" d="M267.1,57.6c0,0.6-0.7,1-0.6,1.7c0,0.2-0.1,0.5,0.2,0.7c0.6,0,1.2,0.2,1.8-0.1c0-0.6-0.1-1.2,0.5-1.5
		C268.4,57.5,267.9,57.3,267.1,57.6z"/>
	<path fill="#F6F8E9" d="M271.5,5.3c0.5,0.4,1,0.4,1.5,0C272.5,4.9,272,4.9,271.5,5.3z"/>
	<path fill="#F6F8E9" d="M270.1,85.7c-0.6-0.3-1-0.3-1.6,0C269.1,86.1,269.5,86.1,270.1,85.7z"/>
	<path fill="#F6F8E9" d="M270,43.9c0.7,0,1.3,0,1.9,0c0-0.3,0-0.5,0-0.8C271.1,42.8,270.5,43,270,43.9z"/>
	<path fill="#F6F8E9" d="M283.1,39.7c0.2,0.4,0.5,0.8,1,0.8c0.3,0,0.8,0.3,0.9-0.2C284.5,39.4,283.8,39.3,283.1,39.7z"/>
	<path fill="#F6F8E9" d="M281.5,4.9c0.9,0.3,1.5,0.1,1.9-0.7C282.6,3.8,282,4,281.5,4.9z"/>
	<path fill="#F6F8E9" d="M284.7,17c-0.1,0.4-0.9,0.5-0.6,1.5c0.5-0.2,0.8,0.2,1.5,0c0,0,0.1,0,0.1,0.1c0.4-0.4,0.8-0.7,1.4-0.8
		C286.3,17.5,285.7,16.9,284.7,17z"/>
	<path fill="#F6F8E9" d="M281.3,41.5c0.2-0.2,0.5-0.5,0.7-0.7c-0.2-0.3-0.4-0.6-0.8-0.7c-0.2,0.2-0.4,0.5-0.6,0.7
		C280.8,41,281,41.3,281.3,41.5z"/>
	<path fill="#F6F8E9" d="M280.2,55.6c-0.6,0.9,0,1.5,0.8,2c0.9-0.5,1.1-1.3,1.4-1.9C281.2,54.8,280.7,54.8,280.2,55.6z"/>
	<path fill="#F6F8E9" d="M290,39.2c-0.2,0.4-0.6,0.6-0.8,0.9c-0.2,0.3-0.2,0.6,0.1,0.9c0.7,0.1,1.2-0.9,2-0.5c0,0,0.2-0.2,0.3-0.4
		c-0.3-0.5-0.5-1-0.8-1.6C289.9,38.6,290.1,39,290,39.2z"/>
	<path fill="#F6F8E9" d="M292.5,67.1c0-0.7-0.4-1-1.2-1.2c-0.4,0.6-0.4,1.1-0.1,1.6C291.7,67.3,292.3,67.9,292.5,67.1z"/>
	<path fill="#F6F8E9" d="M290.4,87.3c0.2-0.3,0.7-0.5,0.5-1.3c-0.7,0-1.4-0.3-2,0.2C289.4,86.9,289.4,86.9,290.4,87.3z"/>
	<path fill="#F6F8E9" d="M294,2.6c-1,0-1.9,0-2.9,0c0,0.3,0,0.5,0,0.8c1,0,1.9,0,2.9,0C294,3.1,294,2.9,294,2.6z"/>
	<path fill="#F6F8E9" d="M278.1,92.8c0.2-0.1,0.6,0.5,0.8-0.2C278.6,92.4,278.4,92.4,278.1,92.8z"/>
	<path fill="#F6F8E9" d="M278.6,2.4c0.6,0.2,1.2,0.2,1.8-0.1c-0.6-0.1-1-0.9-1.7-0.8C278.5,1.7,278.4,2,278.6,2.4z"/>
	<path fill="#F6F8E9" d="M282,60.3c0.1-0.7-0.4-1-0.7-1.3c-0.3,0.2-0.5,0.4-0.8,0.7C280.9,60,281.1,60.8,282,60.3z"/>
	<path fill="#F6F8E9" d="M282,66.7c-0.4-0.3-0.8-0.1-1.3-0.2c-0.3,0.6-0.6,1.3-0.9,1.9c-0.3,0.2-0.7,0-0.9,0.5c1.6,0.5,2-1,3.1-1.1
		C282,67.3,282,67,282,66.7z"/>
	<path fill="#F6F8E9" d="M277.7,41c0.4-0.1,0.8,0.2,1.2-0.2c0-0.5,0.3-0.9-0.2-1.3c-0.3,0-0.7,0-1,0C277.4,40,277.3,40.5,277.7,41z"
		/>
	<path fill="#F6F8E9" d="M279,44.2c0.1-0.6-0.3-0.8-0.7-1.3c-0.6,0.1-1.3-0.3-1.8,0.4c0,0.6,0.5,0.8,0.8,1.2
		C277.8,44.4,278.5,44.8,279,44.2z"/>
	<path fill="#F6F8E9" d="M276.8,52c0.2-0.2,0.2-0.3,0-0.5C276.5,51.7,276.5,51.8,276.8,52z"/>
	<path fill="#F6F8E9" d="M276.2,18c0.6,0.1,0.9-0.4,1.3-0.9c-0.6,0-1,0-1.4,0C275.9,17.5,276,17.8,276.2,18z"/>
	<path fill="#F6F8E9" d="M281,85.1c-1.2,0-2.3,0-3.4,0c0,0.3,0,0.5,0,0.8c1.2,0,2.3,0,3.4,0C281,85.6,281,85.4,281,85.1z"/>
	<path fill="#F6F8E9" d="M286.1,18.8c0.3,0.2,0.6,0.3,0.8,0.4c0.8,0.2,1.9,0.5,3.1,0.1c-0.4-0.4-0.6-0.6-0.8-0.8
		C288.4,18.5,287.5,18.5,286.1,18.8z"/>
	<path fill="#F6F8E9" d="M295.9,53.1c-0.4,0-0.9-0.3-1.3,0.3C295,53.3,295.5,53.7,295.9,53.1z"/>
	<path fill="#F6F8E9" d="M210,69.8c-1.4,0.8-2.5-0.6-3.9-0.2c0,0.5,0,0.9,0,1.4c1.1,0,2.2,0,3.4,0c-0.1-0.1-0.2-0.3-0.3-0.4
		c0.3-0.1,0.7-0.1,1-0.2C210,70.2,210,70,210,69.8z"/>
	<path fill="#F6F8E9" d="M210.7,66.4c0.6,0.6,1.1,1.1,1.6,1.6c0.2-0.5,0.8-0.6,0.7-1.2c-0.2-0.6-0.9-0.1-1.2-0.7
		c-0.2-0.5-0.6-1-0.8-1.2c-1,0-1.4,0-1.9,0c-0.5-0.5-1-1-1.4-1.5c-0.4,0.1-0.9-0.3-1-0.1c-0.2,0.7,0.3,0.7,0.1,1
		c-0.1,0.1-0.2,0.2-0.3,0.3c0.4,1.4,1.7,0.5,3,1.4c-1.4-0.3-1.7,0.5-2.3,0.9c-0.3-0.2-0.5-0.7-1.1-0.4c0,0.4-0.7,0.3-0.5,0.9
		c1.4,0,2.8,0,4.5,0C210.2,67.2,210.4,66.8,210.7,66.4z"/>
	<path fill="#F6F8E9" d="M299,55.3c-0.3-0.4-0.7-0.4-1,0C298.3,55.6,298.7,55.6,299,55.3z"/>
	<path fill="#F6F8E9" d="M296.9,43.2c-0.3-0.2-0.6-0.3-1,0.1C296.4,43.6,296.7,43.7,296.9,43.2z"/>
	<path fill="#F6F8E9" d="M298.5,15.1c-0.3-0.1-0.6-0.2-1,0.2C297.9,15.6,298.2,15.7,298.5,15.1z"/>
	<path fill="#F6F8E9" d="M297.4,52.2c-0.3-0.3-0.6-0.3-1,0.1C296.9,52.6,297.2,52.7,297.4,52.2z"/>
	<path fill="#F6F8E9" d="M208.7,56.5c-0.6-0.1-0.9,0.3-1.2,0.9c0.5,0,0.9,0,1.4,0C209.1,57,209.1,56.8,208.7,56.5z"/>
	<path fill="#F6F8E9" d="M295.6,18.6c0.3,0.4,0.4,0.9,0.9,0.9c0.9,0.1,1.5-0.7,2.4-0.9C297.8,18.6,296.7,18.6,295.6,18.6z"/>
	<path fill="#F6F8E9" d="M219.8,69.1c0.3-0.2,0.8-0.6,1.3-1c-0.3-0.6-0.5-1.1-0.8-1.6c-0.8-0.2-1.8,0.3-2.3-0.9
		c0.4-0.7,1.5-0.7,1.9-1.4c-0.3-0.6-0.9-0.9-1.6-0.8c-0.7,0.3-1.1,1.1-1.8,1.5c-0.6,0.4-1,1.2-1.7,2c1.6,0,2.9,0,4.2,0
		c-0.3,0.4-0.7,0.5-0.5,1.2C218.9,68.5,219.5,68.9,219.8,69.1z"/>
	<path fill="#F6F8E9" d="M204.4,45.2c-0.3-0.2-0.6-0.3-1,0.1C203.9,45.6,204.2,45.7,204.4,45.2z"/>
	<path fill="#F6F8E9" d="M265,53.8c0.3,0.4,0.7,0.4,1,0C265.7,53.4,265.3,53.4,265,53.8z"/>
	<path fill="#F6F8E9" d="M201,7.3c-0.2-0.2-0.3-0.2-0.5,0C200.7,7.5,200.8,7.5,201,7.3z"/>
	<path fill="#F6F8E9" d="M204.1,70.8c-0.6-0.4-1.1-0.3-1.6,0C203,71.1,203.5,71.1,204.1,70.8z"/>
	<path fill="#F6F8E9" d="M202.5,69.3c0.1-0.9-0.1-1.6-1.3-1.8c-0.3,0.7-0.2,1.4-0.1,2C201.6,69.5,202.1,69.7,202.5,69.3z"/>
	<path fill="#F6F8E9" d="M209.9,58.2c0.6,0.4,1.1,0.3,1.6,0C211,57.9,210.5,57.9,209.9,58.2z"/>
	<path fill="#F6F8E9" d="M215.3,53.9c0.3-0.2,0.5-0.4,0.7-0.6c-0.4-0.5-0.9-0.9-1.3-1.3c-1.1,0-2.2,0-3.3,0c-2.5,0-4.9,0.9-7.4,0.5
		c-0.4,0.8,0.2,1,0.6,1.5c1-0.3,1.9,0.5,3,0.5c0.3-0.3,0.5-0.7,0.8-1.1c1.8,0.5,3.4-0.9,5.2-0.3C214.1,53.7,214.9,53.5,215.3,53.9z"
		/>
	<path fill="#F6F8E9" d="M201,6.2c-0.5-0.3-0.8-0.5-1,0.1C200.4,6.6,200.6,6.6,201,6.2z"/>
	<path fill="#F6F8E9" d="M200.9,5.2c-0.3-0.3-0.6-0.3-1,0.1C200.4,5.6,200.7,5.7,200.9,5.2z"/>
	<path fill="#F6F8E9" d="M255.8,59c0.2-0.6,0.4-1.1-0.1-1.5c-0.7-0.1-0.8,0.5-1.2,0.7C254.9,58.5,255,59.1,255.8,59z"/>
	<path fill="#F6F8E9" d="M255.4,98c0.5-0.3,0.5-0.3,0.9-0.9c-0.5,0-0.9-0.3-1.3,0.2C255,97.6,254.9,97.9,255.4,98z"/>
	<path fill="#F6F8E9" d="M261,67.6c-0.7-0.2-1.3-0.2-1.9,0.2C259.7,67.9,260.4,68.4,261,67.6z"/>
	<path fill="#F6F8E9" d="M259.2,58c0.9,0,1.8,0,2.6,0c0.2-0.4,0.7-0.5,0.7-1c0-0.5-0.5-0.6-0.7-1c-0.7,0-1.4,0-2.2,0
		C259.8,56.8,258.6,57.1,259.2,58z"/>
	<path fill="#F6F8E9" d="M258.1,94.4c0.2-0.1,0.7,0.5,0.8-0.2C258.6,93.9,258.4,93.9,258.1,94.4z"/>
	<path fill="#F6F8E9" d="M267.2,66c-0.6,0.1-1.2-0.2-1.7,0.2c0,0.4,0,0.8,0,1.2c0.8,0,1.6,0,2.4,0C267.7,66.9,267.5,66.4,267.2,66z"
		/>
	<path fill="#F6F8E9" d="M259.4,66c-1.3,0.2-2.6-0.1-3.9,0.4c1.4-0.4,2.5,1.2,3.9,0.5C259.4,66.6,259.4,66.4,259.4,66z"/>
	<path fill="#F6F8E9" d="M259.5,51.2c0.5,0.5,1.2,0,1.6,0.6c0.3,0.4,0.9,0.3,1.5-0.1C261.5,51.4,260.7,50.6,259.5,51.2z"/>
	<path fill="#F6F8E9" d="M260.6,96.5c-0.5,0.6-1,1-1.3,1.4c0.6,0,1.4,0,2.4,0c-0.6-0.7,0.2-0.8,0.2-1.3
		C261.4,96.4,260.8,96.6,260.6,96.5z"/>
	<path fill="#F6F8E9" d="M292.8,93.5c-0.2,0.2-0.2,0.3,0,0.5C293,93.8,293,93.7,292.8,93.5z"/>
	<path fill="#F6F8E9" d="M295.1,17.4c0.2-0.1,0.7,0.5,0.8-0.2C295.6,16.9,295.4,16.9,295.1,17.4z"/>
	<path fill="#F6F8E9" d="M255,41.8c0.3,0.4,0.7,0.4,1,0C255.7,41.4,255.3,41.4,255,41.8z"/>
	<path fill="#F6F8E9" d="M253.9,19.9c0.8-0.4,1,0.9,2.1,0.4C255.5,19.6,254.9,19.1,253.9,19.9z"/>
	<path fill="#F6F8E9" d="M262.2,59c-0.2,0-0.5-0.1-0.7,0.2c0.1,0.6,0.1,0.6,0.7,0.8C262.6,59.7,262.6,59.3,262.2,59z"/>
	<path fill="#F6F8E9" d="M296.6,15.7c-1.4-0.2-2.6-1.2-4.2-0.4c1.2,0.5,2.3,0.9,3.4,1.2C296,16.2,296.2,16,296.6,15.7z"/>
	<path fill="#F6F8E9" d="M257.2,19.3c1.3,0.3,2.1,1.1,3.2,0.5c0-0.2,0-0.4,0-0.8C259.5,19.1,258.5,18.8,257.2,19.3z"/>
	<path fill="#F6F8E9" d="M256.5,15.8c0.3,0.4,0.7,0.4,1,0C257.2,15.4,256.8,15.4,256.5,15.8z"/>
	<path fill="#F6F8E9" d="M254.6,52.3c0.6,0.2,1.3,0.4,2.1-0.1C255.8,51.9,255.2,51.9,254.6,52.3z"/>
	<path fill="#F6F8E9" d="M209.3,60c-0.2,0.2-0.2,0.3,0,0.5C209.5,60.3,209.5,60.2,209.3,60z"/>
	<path fill="#F6F8E9" d="M233,66.8c-0.3-0.4-0.7-0.4-1,0C232.3,67.1,232.7,67.1,233,66.8z"/>
	<path fill="#F6F8E9" d="M235.7,69.4c0.3-0.1,0.8-0.4,1.4-0.7c-1.5-1.1-3.2-1.4-4.8-1.2c0.4,0.4,0.8,0.9,1.2,1.4
		C234.1,68.5,234.6,69.7,235.7,69.4z"/>
	<path fill="#F6F8E9" d="M232.1,96.7c0.4,0.5,0.9,0.4,1.4,0.3c0.5-0.1,0.8,1.1,1.5,0.3C234.2,96,233.1,96.7,232.1,96.7z"/>
	<path fill="#F6F8E9" d="M233.7,56.5c-0.3,0.2-0.8-0.3-1.2,0.3c0.1,0.2-0.1,0.5,0.3,0.7c0.3,0,0.7,0,1.3,0
		C234,57,234.1,56.8,233.7,56.5z"/>
	<path fill="#F6F8E9" d="M234,59.9c0.5,0,0.9,0,1.4,0c0-0.3,0-0.5,0-0.7c-0.5-0.3-0.9-0.3-1.4,0C234,59.4,234,59.6,234,59.9z"/>
	<path fill="#F6F8E9" d="M233.5,15.8c-0.5-0.6-1-1.1-2.5-0.4C232.2,15.2,232.6,16.5,233.5,15.8z"/>
	<path fill="#F6F8E9" d="M235.7,54c0.3,0,0.7,0,1.4,0c-0.9-0.9,0.6-1.8-0.4-2.5c-0.6-0.1-0.8,0.4-1.3,0.8
		C235.7,52.8,235.2,53.5,235.7,54z"/>
	<path fill="#F6F8E9" d="M232.3,3.5c-0.2,0.2-0.2,0.3,0,0.5C232.5,3.8,232.5,3.7,232.3,3.5z"/>
	<path fill="#F6F8E9" d="M234.1,22.3c0.3,0.2,0.6,0.3,1-0.1C234.6,21.9,234.3,21.8,234.1,22.3z"/>
	<path fill="#F6F8E9" d="M250.5,66.2c-0.8-0.5-1.7-1-2.9-0.6c0,0.8-0.6,0.8-1,1.1c-0.2,0.2-0.1,0.6,0.2,0.7c0.7,0.5,0.7-0.6,1.4-0.4
		c0.7,0.6,1.5,0.7,2.4,0.3C250.5,66.9,250.5,66.6,250.5,66.2z"/>
	<path fill="#F6F8E9" d="M250.5,46.3c0.4,0.3,0.8,0.5,1-0.2C251.1,46,250.9,45.9,250.5,46.3z"/>
	<path fill="#F6F8E9" d="M250.2,92.6c-0.8-0.1-1.5-0.3-2.2,0.1c0.5,0.3,0.9,0.5,1.3,0.7C249.5,93.2,249.8,93,250.2,92.6z"/>
	<path fill="#F6F8E9" d="M236.9,43.4c-0.5,0.3-0.9-0.1-1.4,0.3c0,0.2,0,0.4,0,1C236.1,44.2,237.1,45.1,236.9,43.4z"/>
	<path fill="#F6F8E9" d="M248.3,64.5c0.2-0.1,0.6,0.1,0.6-0.4c-0.8,0-1.6,0-2.6,0c0.7,0.4,1.1,0.6,1.5,0.9
		C247.9,64.8,248.1,64.6,248.3,64.5z"/>
	<path fill="#F6F8E9" d="M232.5,14.3c-0.2-0.2-0.3-0.2-0.5,0C232.2,14.5,232.3,14.5,232.5,14.3z"/>
	<path fill="#F6F8E9" d="M239,66.7c-0.5-0.3-0.9-0.3-1.4,0c0,0.2,0,0.4,0,0.6c0.5,0.3,0.9,0.3,1.4,0C239,67.1,239,66.9,239,66.7z"/>
	<path fill="#F6F8E9" d="M251.6,96.4c0.9,0,1.4,0,2.2,0C252.9,95.9,252.5,95.9,251.6,96.4z"/>
	<path fill="#F6F8E9" d="M291.5,56.6c-1.3-0.9-2.2-1.5-3.5-0.8C289.1,55.7,289.5,57.5,291.5,56.6z"/>
	<path fill="#F6F8E9" d="M247.4,57.8c0.2,0.4-0.1,0.8,0.2,1.1c0.6,0,1.1,0,1.7,0c0.1-0.3,0.2-0.6,0.3-0.9c0.5,0.2,0.2,0.8,0.4,0.9
		c0.7,0,1.2,0,2.4,0c-1-1.1-1.7-1.8-2.4-2.5C249.2,56.9,248.4,57.3,247.4,57.8z"/>
	<path fill="#F6F8E9" d="M249,96.3c-0.5-0.4-1-0.4-1.5,0C248,96.6,248.5,96.6,249,96.3z"/>
	<path fill="#F6F8E9" d="M226.5,19.4c-0.4-0.5-0.6-1-1.3-0.9c-0.3,0.2-0.3,0.5-0.1,0.9C225.5,19.4,226,19.4,226.5,19.4z"/>
	<path fill="#F6F8E9" d="M221.5,58.8c0.3,0.4,0.7,0.4,1,0C222.2,58.4,221.8,58.4,221.5,58.8z"/>
	<path fill="#F6F8E9" d="M224,60.7c-0.6-0.3-1-0.3-1.4,0.1C223,60.9,223.5,61.2,224,60.7z"/>
	<path fill="#F6F8E9" d="M224.2,70.9c0.6,0,1.2,0.2,1.9-0.2c-0.1-0.8-0.5-1.3-1.4-1.3c-0.4,0-0.8-0.2-1.1,0.2
		C224,70,223.9,70.5,224.2,70.9z"/>
	<path fill="#F6F8E9" d="M221.5,57.8c0.6,0.3,1,0.3,1.4-0.1C222.5,57.6,222,57.3,221.5,57.8z"/>
	<path fill="#F6F8E9" d="M297.4,87.2c-0.2,0.1-0.6-0.5-0.8,0.2C296.9,87.6,297.1,87.6,297.4,87.2z"/>
	<path fill="#F6F8E9" d="M296.3,85.4c0.2,1,0.7,1.4,1.7,0.9C297.4,86,296.9,85.7,296.3,85.4z"/>
	<path fill="#F6F8E9" d="M226.3,64.5c-0.4,0.1-0.8-0.2-1.1,0.1c-0.5,0.8,0.6,1.5,0,2.2c0.3,0.2,0.5,0.7,1.2,0.6
		c0.1-0.2,0.3-0.5,0.5-0.9c0,0-0.1-0.2-0.3-0.3c0.2-0.2,0.3-0.4,0.6-0.7C226.2,65.6,226.8,64.8,226.3,64.5z"/>
	<path fill="#F6F8E9" d="M295.9,67.8c0.5,0.2,0.7,0.3,1,0.4c0.2,0.3-0.8,0.5-0.1,0.9c0.7,0,1-0.5,1.3-1.4
		C297.3,67.5,296.6,67.3,295.9,67.8z"/>
	<path fill="#F6F8E9" d="M231,51.2c-0.5-0.3-0.8-0.5-1,0.1C230.4,51.6,230.6,51.6,231,51.2z"/>
	<path fill="#F6F8E9" d="M229,66.7c-0.5-0.3-0.8-0.5-1,0.1C228.4,67.1,228.6,67.1,229,66.7z"/>
	<path fill="#F6F8E9" d="M229.8,64.5c-0.2,0.2-0.2,0.3,0,0.5C230,64.8,230,64.7,229.8,64.5z"/>
	<path fill="#F6F8E9" d="M228.2,58.1c-0.2,0.4-0.4,0.9-0.6,1.4c1,0,1.9,0,2.7,0C229.5,59.3,229.5,57.4,228.2,58.1z"/>
	<path fill="#F6F8E9" d="M230.7,52.9c0.8,0,1.7,0,2.6,0c0.6-0.4,0.8-1,0.7-1.7c-0.6-0.4-1.2-0.2-1.8-0.1c-0.5,0.6-1,1.2-1.9,0.9
		c0,0-0.1,0.2-0.2,0.3C230.3,52.5,230.4,52.7,230.7,52.9z"/>
	<path fill="#F6F8E9" d="M228.1,52.7c-0.2-0.7-0.4-1.2-1.4-1.2C226.5,53,226.5,53,228.1,52.7z"/>
	<path fill="#F6F8E9" d="M227.2,94.5c0.7,0,1.4,0,2.6,0C228.1,93.2,228.1,93.2,227.2,94.5z"/>
	<path fill="#F6F8E9" d="M229.5,15.2c-0.9-0.6-1.5-0.1-2,0.6c0.7,0.3,1.4,0.3,2,0C229.5,15.6,229.5,15.4,229.5,15.2z"/>
	<path fill="#F6F8E9" d="M229.3,57.5c0.2-0.2,0.2-0.3,0-0.5C229,57.2,229,57.3,229.3,57.5z"/>
	<path fill="#F6F8E9" d="M251.5,64.4c0.3,0.1,0.6,0.2,1-0.2C252.1,63.9,251.8,63.8,251.5,64.4z"/>
	<path fill="#F6F8E9" d="M281.7,53c0.9,0,1.6,0,2.3,0c0.8,0.4,1.4,0.6,1.9,0.9c-0.8-0.8-1-1.9-1.8-2.5c-1.1,0.2-2,0.8-3.2,0.9
		C281.2,52.6,281.5,52.8,281.7,53z"/>
	<path fill="#F6F8E9" d="M283.5,92.8c0.6,0.3,1.1,0.3,1.5-0.1C284.5,92.7,284,92.3,283.5,92.8z"/>
	<path fill="#F6F8E9" d="M282,86.9c0.3,0.1,0.6,0.2,1-0.2C282.6,86.4,282.3,86.3,282,86.9z"/>
	<path fill="#F6F8E9" d="M283,38.6c-0.3-0.1-0.6-0.2-1,0.2C282.4,39.1,282.7,39.2,283,38.6z"/>
	<path fill="#F6F8E9" d="M282.5,20c-0.8-0.1-1.2,0.2-1.5,0.9C281.8,21.1,282.1,20.7,282.5,20z"/>
	<path fill="#F6F8E9" d="M275.5,3.8c-0.2-0.2-0.3-0.2-0.5,0C275.2,4,275.3,4,275.5,3.8z"/>
	<path fill="#F6F8E9" d="M274.1,41.9c0.4,0,0.8,0,1.4,0c-0.3-1.3,0.4-2.3,0.9-3.4c-0.7-0.3-0.9,0.3-1.4,0.6c0,0.5,0,1,0,1.5
		C274.7,41.2,274.2,41.4,274.1,41.9z"/>
	<path fill="#F6F8E9" d="M281.3,17.5c-0.2,0.2-0.2,0.3,0,0.5C281.5,17.8,281.5,17.7,281.3,17.5z"/>
	<path fill="#F6F8E9" d="M285.4,84.1c-0.9,0-1.9,0-3.1,0c0.7,0.7,1.3,1.1,1.3,1.9c0.4,0,0.8,0,1.1,0C284.7,85.3,285.8,85,285.4,84.1
		z"/>
	<path fill="#F6F8E9" d="M282.1,5.8c0.3,0.3,0.6,0.3,1-0.1C282.6,5.4,282.3,5.3,282.1,5.8z"/>
	<path fill="#F6F8E9" d="M287,96.3c0-0.2,0-0.4,0-0.7c-0.6-0.2-1.2-0.2-1.9,0.1C285.8,95.6,286.1,96.9,287,96.3z"/>
	<path fill="#F6F8E9" d="M285.9,57.6c0.3,1.1,0.6,1.6,1.7,1.3C287.4,58,287.1,57.4,285.9,57.6z"/>
	<path fill="#F6F8E9" d="M285.1,44c-0.3-1.1-0.6-1.6-1.7-1.3C283.6,43.5,283.9,44.1,285.1,44z"/>
	<path fill="#F6F8E9" d="M286.1,43.9c0.8,0,1.6,0,2.4,0C287.2,42.7,287.2,42.7,286.1,43.9z"/>
	<path fill="#F6F8E9" d="M287.2,97c-0.2,0-0.4,0.1-1.1,0.2c0.7,0.3,1,0.5,1.4,0.6C287.6,97.7,287.6,97.3,287.2,97z"/>
	<path fill="#F6F8E9" d="M285.8,59.8c-1,0.4-1.6,0-2.6,0.7C284.2,60.4,284.9,60.9,285.8,59.8z"/>
	<path fill="#F6F8E9" d="M252,42.7c-0.4-0.3-0.8-0.5-1,0.2C251.4,43,251.6,43.1,252,42.7z"/>
	<path fill="#F6F8E9" d="M283.5,66.8c0.1,0.7,0.4,1.3,1.3,1.2c0.3-0.5,0.3-0.9,0.1-1.4C284.4,66.5,283.9,66.3,283.5,66.8z"/>
	<path fill="#F6F8E9" d="M285.3,62c-0.6,0.2-0.6,0.2-0.7,1.1c0.4-0.1,0.7-0.1,0.8-0.2C285.6,62.5,285.5,62.2,285.3,62z"/>
	<path fill="#F6F8E9" d="M246,21.4c0.7,0.2,1.3,0.2,1.9-0.2C247.3,21.1,246.6,20.7,246,21.4z"/>
	<path fill="#F6F8E9" d="M242.1,57.4c0.7,0.1,1.2,0.8,2.2,0.6c0.4-0.7,1.3-1,2.2-1.1c0.2-0.7-0.3-0.9-0.6-1.3c-1.5,0-2.9,0-4.2,0
		C241.2,56.4,242.2,56.7,242.1,57.4z"/>
	<path fill="#F6F8E9" d="M243.5,53.7c0.1,0.3,0.1,0.5,0.1,0.7c0.8,0,1.5,0,2.3,0c0.1-0.5,0.3-1-0.3-1.5
		C245.1,53.5,244.2,53.4,243.5,53.7z"/>
	<path fill="#F6F8E9" d="M247.7,43.2c-1.9-0.1-2.1,0-1.9,1.4C246.7,44.5,246.9,43.7,247.7,43.2z"/>
	<path fill="#F6F8E9" d="M247.9,39.1c-0.9,0-1.4,0-2.2,0C246.6,39.6,247,39.6,247.9,39.1z"/>
	<path fill="#F6F8E9" d="M252.3,20.1c-1,0-1.6,0-2.2,0C250.7,20.5,251.3,20.7,252.3,20.1z"/>
	<path fill="#F6F8E9" d="M252.3,15c-0.4,0-0.8,0-1.6,0c0.7,0.5,0.9,1.1,1.6,0.9C252.5,15.8,252.7,15.5,252.3,15z"/>
	<path fill="#F6F8E9" d="M251.5,21.1c-0.7-0.2-1.3-0.2-1.9,0.2C250.2,21.4,250.9,21.9,251.5,21.1z"/>
	<path fill="#F6F8E9" d="M247,51.5c0.2,0.7-0.4,0.9-0.4,1.3c1.2,1.4,2.7,1.2,4.5,1.1c-0.5-0.7-1.2-0.2-1.6-0.7
		c-0.5-0.6-0.7-1.1-0.2-1.7c0.3-0.4,1,0.3,1.2-0.4C249.2,50.5,248.2,51.8,247,51.5z"/>
	<path fill="#F6F8E9" d="M263.5,15.7c-0.4-0.3-0.8-0.5-1,0.2C262.9,16,263.1,16.1,263.5,15.7z"/>
	<path fill="#F6F8E9" d="M262.1,41.5c1.5,0.2,2.2-0.8,3.3-1.9c-1.2,0-1.9,0-2.8,0c0.2,0.3,0.3,0.5,0.4,0.7
		C262.5,40.6,261.8,40.4,262.1,41.5z"/>
	<path fill="#F6F8E9" d="M265.5,15.9c0.3,0.1,0.6,0.2,1-0.2C266.1,15.4,265.8,15.3,265.5,15.9z"/>
	<path fill="#F6F8E9" d="M243.3,95.6c0.7-0.2,1.3-0.5,1.1-1.4c-0.5-0.2-1-0.3-1.5,0.1C243.2,94.6,242.7,95.1,243.3,95.6z"/>
	<path fill="#F6F8E9" d="M240.4,4.3c0.6,0.4,1.1,0.3,1.6,0C241.5,3.9,241,3.9,240.4,4.3z"/>
	<path fill="#F6F8E9" d="M265,44.9c0.8,0,1.6,0,2.3,0c0.4-0.5,1-0.8,0.3-1.5C267,44.3,265.6,43.6,265,44.9z"/>
	<path fill="#F6F8E9" d="M243.8,58.9c-1,0.1-1.2,1.4-2.2,1.5c0.6,0,1.2,0,1.8,0C243.7,60,244.2,59.8,243.8,58.9z"/>
	<path fill="#F6F8E9" d="M242.4,67.1c0.6-0.3,1.1-0.5,1.6-0.8c-0.3-0.6-1.1-0.9-1.1-1.8c-0.4,0.4-1.1,0.3-1.3,0.8
		C241.3,66.1,241.7,66.6,242.4,67.1z"/>
	<path fill="#F6F8E9" d="M241,38.9c0.3,0.1,0.6,0.2,1-0.2C241.6,38.4,241.3,38.3,241,38.9z"/>
	<path fill="#F6F8E9" d="M156.8,68c0.3-0.4,0.8-0.5,0.7-1.3c-0.6-0.2-1.1-0.4-1.5,0.2C155.9,67.5,156.5,67.6,156.8,68z"/>
	<path fill="#F6F8E9" d="M106.8,70c0.4-0.4,0.8-0.9,1.2-1.4c0.1-0.1-0.1-0.3-0.1-0.4c-0.4-0.3-0.8-0.1-1.1-0.1
		c-0.7,0.6-1.3,1.2-1.9,1.7C105.5,70.2,106.1,69.9,106.8,70z"/>
	<path fill="#F6F8E9" d="M108.4,62.2c-0.3-0.2-0.6-0.3-0.8,0.2C107.9,62.2,108.3,62.9,108.4,62.2z"/>
	<path fill="#F6F8E9" d="M93,69.8c0.5,0.4,1,0.4,1.5,0C94,69.4,93.5,69.4,93,69.8z"/>
	<path fill="#F6F8E9" d="M95.9,70c0.7-0.1,1.5,0.2,2.2-0.3c-0.5-1.9-2.7-1.2-3.6-2.5c0-0.8,0-1.6,0-2.2c-0.5-0.6-0.9-1.2-1.3-1.7
		c-0.7,0.3-1.2,0.6-1.6,0.8c-0.2,0.5,0.2,0.7,0.3,0.9C92,65.5,92,66,92,66.7c-1.3-0.4-2.1-0.8-2.7-1.6c-0.1-0.1-0.4,0-0.7-0.1
		c0,0.5,0,0.8,0,1.4c1.1-0.2,1.3,0.8,1.7,1.5c0.7,0,1.4,1,2,0.5c0.7-0.6,1.4-0.4,2.1-0.4C94.5,68.9,95.2,69.5,95.9,70z"/>
	<path fill="#F6F8E9" d="M107.3,62.1c-1,0-1.6,0-2.2,0C105.7,62.4,106.3,62.7,107.3,62.1z"/>
	<path fill="#F6F8E9" d="M108.1,76.8c0.3,0.2,0.6,0.3,0.8-0.2C108.6,76.8,108.2,76.2,108.1,76.8z"/>
	<path fill="#F6F8E9" d="M100.4,66.3c0.3-0.7-0.4-0.9-0.5-1c-0.3,0.1-0.7,0.2-1.2,0.4C99.5,66.1,99.7,66.9,100.4,66.3z"/>
	<path fill="#F6F8E9" d="M102.2,67.5c1,0,1.8,0,2.6,0c0-0.7,0.8-1,0.7-1.8c-0.4-0.2-0.5-0.8-1.2-0.7c-0.7,0.5-1.3,1.1-1.6,2
		c-0.5,0-1,0-1.4,0c-0.4,0.4-0.7,0.9-1.2,0.9c-0.6,0.1-0.8,0.5-1.1,0.8c0.4,0.4,0.8,0.8,1.2,1.2c0.6-0.1,1.3,0.3,1.7-0.3
		c0.2-0.7-0.7-0.8-0.4-1.6C101.7,68,102,67.7,102.2,67.5z"/>
	<path fill="#F6F8E9" d="M205,20.8c0-0.2,0-0.4,0-0.4c-0.3,0.1-0.6,0.2-1.1,0.3C204.4,21.1,204.7,21.1,205,20.8z"/>
	<path fill="#F6F8E9" d="M88.1,69.9c0.6,0,1.3,0.3,1.8-0.1c0.1-0.7-0.3-0.8-0.7-1.3C89.1,69.2,87.6,68.6,88.1,69.9z"/>
	<path fill="#F6F8E9" d="M86.6,65.1c-1.2-0.1-2.3-0.3-3.2,0.5c-0.9-0.4-0.8-1.3-1.4-1.8c-0.1-0.1-0.2-0.1-0.3-0.2
		c-0.2,0.5-0.5,1-0.7,1.5c0.5,1.2,1.3,2.1,2.3,2.9c0.5-0.5,1-1,1.4-1.4C85.6,66.6,86.4,66.5,86.6,65.1z"/>
	<path fill="#F6F8E9" d="M108.9,63.2c-0.5-0.2-0.9-0.2-1.5,0.1c0.6,0.3,0.7,0.9,1.4,0.7C109,63.7,109.1,63.5,108.9,63.2z"/>
	<path fill="#F6F8E9" d="M85.9,75.4c0.6,0,1.1,0,1.5,0C87,75.2,86.5,74.7,85.9,75.4z"/>
	<path fill="#F6F8E9" d="M78.7,62.4c-0.8,0.3-1.7,1.2-2.6,0c-1.1,0.6-2.1,1-2.6,2c0.1,0.5-0.3,1.1-0.1,1.3c1.5,0.8,1.7-0.6,2.4-0.6
		c1.3,0,1.9-1.1,2.9-1.6C79.2,63.3,79.1,62.8,78.7,62.4z"/>
	<path fill="#F6F8E9" d="M84.2,70.4c0.3,0.1,0.6,0.1,0.8-0.2c0-0.2,0-0.3,0-0.5c-0.3-0.3-0.7-0.3-1,0C84,70,83.9,70.3,84.2,70.4z"/>
	<path fill="#F6F8E9" d="M90.5,62.2c-0.5-0.3-1-0.3-1.4,0c-0.1,0.3-0.1,0.6,0.2,0.8C89.9,63.1,90.2,62.6,90.5,62.2z"/>
	<path fill="#F6F8E9" d="M97.3,64.4C96.5,64.7,96,65,96,65.3c0.3,0.6,0.5,0.9,0.6,1.2C97.6,66,97.7,65.3,97.3,64.4z"/>
	<path fill="#F6F8E9" d="M78.2,64.5c-0.3,0.5-0.3,0.9,0,1.4c0.3,0.1,0.6,0.1,0.8-0.2C79.1,65.1,78.6,64.8,78.2,64.5z"/>
	<path fill="#F6F8E9" d="M93.2,52.2c-0.8-0.3-1.4-0.2-2.1,0.1C91.7,52.5,92.3,52.7,93.2,52.2z"/>
	<path fill="#F6F8E9" d="M125.4,59.7c-0.3-0.2-0.6-0.3-0.8,0.2C124.9,59.7,125.3,60.4,125.4,59.7z"/>
	<path fill="#F6F8E9" d="M126.4,64.7c-0.6,0-1.3-0.3-1.8,0.2C125.2,64.9,125.8,65.2,126.4,64.7z"/>
	<path fill="#F6F8E9" d="M129,60.8c0-0.2,0-0.4,0-0.6c-0.5-0.3-0.9-0.3-1.6,0.1C128,60.6,128.2,61.4,129,60.8z"/>
	<path fill="#F6F8E9" d="M129.1,51.9c0.4,0,0.9,0.4,1.4-0.1C130,51.4,129.5,51.4,129.1,51.9z"/>
	<path fill="#F6F8E9" d="M122.9,44.7c-0.2,0.1-0.7-0.5-0.8,0.2C122.4,45.1,122.6,45.1,122.9,44.7z"/>
	<path fill="#F6F8E9" d="M125.6,71.8c0.3,0.2,0.6,0.3,0.8-0.2C126.1,71.8,125.7,71.2,125.6,71.8z"/>
	<path fill="#F6F8E9" d="M136,61.8c-0.2-0.2-0.3-0.2-0.5,0C135.7,62,135.8,62,136,61.8z"/>
	<path fill="#F6F8E9" d="M136.5,67.4c-0.4-0.6-0.6-1-1.3-0.9c-0.3,0.2-0.3,0.5-0.1,0.9C135.5,67.4,136,67.4,136.5,67.4z"/>
	<path fill="#F6F8E9" d="M128.7,69.4c0.4,0,0.8,0,1.2,0c0.2-1.1,1.9-1.4,1.6-2.9c-0.9,0-1.8,0-2.7,0c-0.3-0.4-0.6-0.8-0.9-1.1
		c-1.3,0-2.4,0-3.8,0c-0.4-0.4-0.8-1-1.2-1.5c-0.4,0-0.7,0-1,0.1c-0.3,0.6-0.1,1.2-0.2,1.7c0.4,0.4,0.8,0.8,1.2,1.2c0.3,0,0.6,0,1,0
		c0.2,0,0.5-0.1,0.7-0.2c2.4-0.8,3.3-0.3,4.4,2.1C128.8,69.1,128.3,69.2,128.7,69.4z"/>
	<path fill="#F6F8E9" d="M116.9,53.6c-0.8,0-1.6,0-2.3,0C115.4,53.9,116.2,54.2,116.9,53.6z"/>
	<path fill="#F6F8E9" d="M114.6,96.8c-0.6-0.3-1-0.3-1.6,0C113.6,97.1,114,97.1,114.6,96.8z"/>
	<path fill="#F6F8E9" d="M111.9,64.9c-1.4,0.8-1.4,0.8-1.2,2.1c2.2-0.6,3.2-1.9,3-3.9C112.2,63.2,112.2,63.2,111.9,64.9z"/>
	<path fill="#F6F8E9" d="M113.4,22.2c-0.3-0.3-0.6-0.3-1,0.1C112.9,22.6,113.2,22.7,113.4,22.2z"/>
	<path fill="#F6F8E9" d="M117.6,69.1c-0.3-1-1.6-1.4-1.7-2.6c-1-0.1-1.7,0.1-1.9,1C115.7,69.4,116.2,69.6,117.6,69.1z"/>
	<path fill="#F6F8E9" d="M130.8,71.5c0.3-0.2,0.8,0.3,1.2-0.3c0-0.2,0.1-0.5-0.2-0.7c-0.3,0-0.7,0-1.3,0
		C130.5,71,130.4,71.3,130.8,71.5z"/>
	<path fill="#F6F8E9" d="M120,54.3c0.2,0.2,0.3,0.2,0.5,0C120.3,54,120.2,54,120,54.3z"/>
	<path fill="#F6F8E9" d="M119.3,65c-0.5,0-1.1,0-1.6,0c-0.3,0.4-0.8,0.6-0.7,1.3c0.7,0.3,1.5,0.1,2.5,0.1
		C119.4,65.9,119.7,65.4,119.3,65z"/>
	<path fill="#F6F8E9" d="M119.5,68.8c-0.3-0.4-0.7-0.4-1,0C118.8,69.1,119.2,69.1,119.5,68.8z"/>
	<path fill="#F6F8E9" d="M68.2,70.5c0.2-0.2,0.2-0.3,0-0.5C68,70.2,68,70.3,68.2,70.5z"/>
	<path fill="#F6F8E9" d="M13.4,68.1c-0.9,0-1.9,0-2.8,0c0,0.5,0,0.9,0,1.4C11.7,69.4,13.1,70,13.4,68.1z"/>
	<path fill="#F6F8E9" d="M10.6,72.6c0.2,0.3,0.4,0.7,0.5,0.9c0.4-0.3,0.6-0.5,0.9-0.8C11.6,72.3,11.1,72.5,10.6,72.6z"/>
	<path fill="#F6F8E9" d="M19.9,66.7c-0.2,0.1-0.7-0.5-0.8,0.2C19.4,67.1,19.6,67.1,19.9,66.7z"/>
	<path fill="#F6F8E9" d="M37.4,93.4c-0.4-0.2-0.9-0.7-1.5,0C36.5,93.4,37,93.4,37.4,93.4z"/>
	<path fill="#F6F8E9" d="M4.5,71.1c-0.3-0.1-0.6-0.2-1,0.2C3.9,71.6,4.2,71.7,4.5,71.1z"/>
	<path fill="#F6F8E9" d="M20.5,67.6c-1.3-0.1-2.6-0.4-3.6,0.4c-0.3-0.2-0.4-0.4-0.6-0.5c-0.3,0.3-0.5,0.5-0.7,0.7
		c1.4,0.4,1.3,1.7,1.7,2.7c1.1,0.2,1.8-0.5,3.2-0.7c-1.1-0.3-1.6-0.5-1.9-1C19.1,68.6,19.6,68,20.5,67.6z"/>
	<path fill="#F6F8E9" d="M35,67.3c-0.3-0.3-0.5-0.8-1.3-0.8c-0.1,0.4-0.7,0.4-0.7,1.2c0.3,0.3,0.6,0.7,1,1.1
		c-0.2,0.3-0.5,0.2-0.7,0.2c-0.2,0.4-0.4,0.9-0.8,1.5c0.7-0.2,1.4,0.4,1.9-0.4c-0.1-0.1-0.2-0.2-0.4-0.4C34.5,69,35.1,68.3,35,67.3z
		"/>
	<path fill="#F6F8E9" d="M29.3,66.5c-1.1-0.2-2,0.9-3.1,0.4c-0.3,0.5-0.2,0.9-0.2,1.1c1,1.1,2.1,1,3.2,0.9c0.2-0.2,0.4-0.4,0.7-0.7
		C29.1,68,29.8,67.1,29.3,66.5z"/>
	<path fill="#F6F8E9" d="M21.6,71.2c-0.3,0-0.9,0.5-0.5,1.2c1,0,2.1,0,3.2,0c-0.3-1,1.2-1.2,1.1-2.6C24.1,70.4,23,71.2,21.6,71.2z"
		/>
	<path fill="#F6F8E9" d="M10.4,70.1c-1,0-1.9,0-3.1,0c1.1,0.6,2,1.2,3.2,0.7C10.5,70.5,10.6,70.3,10.4,70.1z"/>
	<path fill="#F6F8E9" d="M299.6,85.2c-0.1,0.3,0.2,0.3,0.4,0.3V85C299.9,85.1,299.6,85.1,299.6,85.2z"/>
	<path fill="#F6F8E9" d="M298.8,58.5c-0.6-0.6-0.8-1.5-1-2.5c-0.8,0.5-0.9,1.1-0.8,1.7c0.4,0.4,0.8,0.8,1.2,1.3c0.6,0,1.2,0,1.8,0
		v-1.5C299.2,57.3,299.8,58.7,298.8,58.5z"/>
	<path fill="#F6F8E9" d="M299,95c0.4,0,0.7,0,1,0v-0.5C299.7,94.6,299.2,94.2,299,95z"/>
	<path fill="#F6F8E9" d="M1.5,72.2C1,71.9,0.5,72.1,0,72v0.5C0.5,72.4,1,72.7,1.5,72.2z"/>
	<path fill="#F6F8E9" d="M297,97.7c0.2,0.3,0.6,0.4,0.5,0.8h2.5V97c-0.8,0-1.6,0-2.2,0C297.5,97.3,297.2,97.5,297,97.7z"/>
	<path fill="#F6F8E9" d="M294,98.5h2C295.4,97.8,294.6,97.8,294,98.5z"/>
	<path fill="#F6F8E9" d="M235.8,98.1c-0.3-0.1-0.3,0.2-0.3,0.4h0.5C235.9,98.4,235.9,98.1,235.8,98.1z"/>
	<path fill="#F6F8E9" d="M299,96.5c0.4,0,0.7,0,1,0V96C299.7,96.1,299.2,95.7,299,96.5z"/>
	<path fill="#F6F8E9" d="M39.7,96c0.2-0.2,0.2-0.3,0-0.5C39.5,95.7,39.5,95.8,39.7,96z"/>
	<path fill="#F6F8E9" d="M57.1,66.6c1.2-0.4,1.6,0.4,2.3,0.8c-0.5-1.4-0.5-1.4-2-2.4c-0.5,0.3-0.3,1.1-0.9,1.3
		c-0.5,0.2-1.1,0.3-1.4,0.9c0.5,0.5,0.4,1.4,1.2,1.7c0.3-0.2,0.5-0.4,0.8-0.6c-0.2-0.2-0.3-0.4-0.5-0.6
		C57.1,67.5,56.8,66.8,57.1,66.6z"/>
	<path fill="#F6F8E9" d="M64.4,70.3c0.6,0.2,0.6,1.1,1.6,0.5C65.5,70.5,65.4,69.6,64.4,70.3z"/>
	<path fill="#F6F8E9" d="M64.2,6c0.2-0.2,0.2-0.3,0-0.5C64,5.7,64,5.8,64.2,6z"/>
	<path fill="#F6F8E9" d="M54.2,76.5c0.2-0.2,0.2-0.3,0-0.5C54,76.2,54,76.3,54.2,76.5z"/>
	<path fill="#F6F8E9" d="M67.4,68.9c-0.2-0.3-0.4-0.7-0.5-0.9c-0.4,0.3-0.6,0.5-0.9,0.8C66.4,69.2,66.9,69,67.4,68.9z"/>
	<path fill="#F6F8E9" d="M71.6,72.5c0.5,0,0.9,0,1.2,0c0.2-0.5,0.4-0.9,0.6-1.4c-0.5,0-0.9,0-1.2,0C72,71.5,71.8,72,71.6,72.5z"/>
	<path fill="#F6F8E9" d="M53,65.8c0.2,0.2,0.3,0.2,0.5,0C53.3,65.5,53.2,65.5,53,65.8z"/>
	<path fill="#F6F8E9" d="M42.5,72.3c0.3,0.4,0.7,0.4,1,0C43.2,71.9,42.8,71.9,42.5,72.3z"/>
	<path fill="#F6F8E9" d="M133.9,51.7c-0.3-0.2-0.6-0.3-0.8,0.2C133.4,51.7,133.8,52.4,133.9,51.7z"/>
	<path fill="#F6F8E9" d="M69.9,69.4c0-0.4,0-0.8,0-1.4c-0.6,0.4-1,0.6-0.9,1.3C69.2,69.5,69.5,69.6,69.9,69.4z"/>
	<path fill="#F6F8E9" d="M42,74c0.5-0.3,0.8-0.5,1.6-1c-1.4,0-2.2,0-3.2,0c0.3-0.4,0.4-0.5,0.6-0.7c-0.5-0.8-1.1-1.1-1.9-0.6
		c0,0.2,0,0.3,0,0.4c0.2,0.6,0.8,0.2,1,0.6c-0.2,0.2-0.3,0.3-0.7,0.8C40.5,73.2,41.2,74.2,42,74z"/>
	<path fill="#F6F8E9" d="M72.7,68c-0.2,0.2-0.5,0.5-0.8,0.8c0.6,0.3,1.1,0.3,1.6,0C73.2,68.5,73,68.2,72.7,68z"/>
	<path fill="#F6F8E9" d="M40.1,70.2c-0.6-0.2-0.8-0.2-1.1,0.1c0,0.2,0.1,0.4,0.2,0.8C39.5,70.7,39.8,70.5,40.1,70.2z"/>
	<path fill="#F6F8E9" d="M42,65.8c0.1,0.4-0.2,0.8,0.3,1.3c0.3-0.2,0.9,0.3,1.2-0.3c0-0.3,0-0.7,0-1C43,65.4,42.5,65.3,42,65.8z"/>
	<path fill="#F6F8E9" d="M52.4,73.7c-0.3-0.3-0.6-0.3-1,0.1C51.9,74.1,52.2,74.2,52.4,73.7z"/>
	<path fill="#F6F8E9" d="M51.9,70.2c-0.3-0.2-0.6-0.3-0.8,0.2C51.4,70.2,51.8,70.9,51.9,70.2z"/>
	<path fill="#F6F8E9" d="M49,64.8c0.3,0.4,0.7,0.4,1,0C49.7,64.4,49.3,64.4,49,64.8z"/>
	<path fill="#F6F8E9" d="M51.7,68c-0.7,0.2-1.5-0.2-2.2,0.3c0,0.3,0,0.5,0.1,0.6c0.1,0.2,0.3,0.4,0.7,0.7c0.7-0.2,1.5,0.2,2.2-0.3
		C52.6,68.6,52,68.4,51.7,68z"/>
	<path fill="#F6F8E9" d="M100.4,74.5c-0.8,0.4-1.1,0.5-1.7,0.8c1,0.3,1.6,0.3,2.5,0C100.6,75.1,100.5,74.5,100.4,74.5z"/>
	<path fill="#F6F8E9" d="M185.1,6.3c-0.8-0.2-0.3-1.2-1.2-1.4c-0.5,0.3-1.1,0.5-0.8,1.4C183.7,6.6,184.3,6.6,185.1,6.3z"/>
	<path fill="#F6F8E9" d="M180.7,63.5c0.3-0.4,1-0.6,0.7-1.3c-0.5-0.2-1-0.4-1.4,0.2C179.9,63,180.5,63.1,180.7,63.5z"/>
	<path fill="#F6F8E9" d="M132.6,69.3c0.3,0.3,0.6,0.3,1-0.1C133.1,68.9,132.8,68.8,132.6,69.3z"/>
	<path fill="#F6F8E9" d="M183.9,66.8c0.7-0.6,0.8-1.3,1.3-2.2c-1,0-1.6-0.3-2.4,0.3C183.2,65.5,183.5,66,183.9,66.8z"/>
	<path fill="#F6F8E9" d="M196.4,20.2c0.6,0.4,1.1,0.3,1.6,0C197.5,19.9,197,19.9,196.4,20.2z"/>
	<path fill="#F6F8E9" d="M199.1,52.8c-0.6-0.4-1.1-0.3-1.6,0C198,53.1,198.5,53.1,199.1,52.8z"/>
	<path fill="#F6F8E9" d="M182.5,70.8c-0.2-0.2-0.3-0.4-0.4-0.5c-0.1-0.3,0.6-0.3,0.3-0.7c-0.8-0.2-1.6-0.2-2.3,0.7
		C180.7,71.2,181.5,71.1,182.5,70.8z"/>
	<path fill="#F6F8E9" d="M195.4,62c-0.5,0.2-0.4,0.6-0.2,1c0.4,0,0.7,0,1.6,0C196.1,62.5,196,61.9,195.4,62z"/>
	<path fill="#F6F8E9" d="M198,69.3c-0.6-0.4-1.1-0.4-1.5,0c0,0.3,0,0.7,0,1.2C197.5,70.6,197.9,70.1,198,69.3z"/>
	<path fill="#F6F8E9" d="M179.6,88.3c0.3,0.3,0.6,0.3,1-0.1C180.1,87.9,179.8,87.8,179.6,88.3z"/>
	<path fill="#F6F8E9" d="M172.8,70.5c-0.3,0-0.6,0-1.1,0c-0.1,0.3-0.1,0.5-0.1,0.6c-0.1,0.3-0.3,0.5-0.4,0.7
		c1.4,0.9,1.6,0.9,2.4-0.1C172.9,71.5,173.1,70.9,172.8,70.5z"/>
	<path fill="#F6F8E9" d="M172.6,94.8c0.3,0.2,0.6,0.3,0.8-0.2C173.1,94.8,172.7,94.2,172.6,94.8z"/>
	<path fill="#F6F8E9" d="M197.1,60.3c0.3,0.2,0.6,0.3,1-0.1C197.6,59.9,197.3,59.8,197.1,60.3z"/>
	<path fill="#F6F8E9" d="M173.1,57.8c0.3,0.2,0.6,0.3,1-0.1C173.6,57.4,173.3,57.3,173.1,57.8z"/>
	<path fill="#F6F8E9" d="M171.9,53.2c0.6,0.5,1,0.2,1.4,0.4c0.4,0.2,0.6,0.9,1.3,0.3C173.9,52.8,173,52.9,171.9,53.2z"/>
	<path fill="#F6F8E9" d="M178.5,94.5c0-0.2-0.1-0.4-0.3-0.4c0,0-0.2,0.1-0.1,0.1C178.1,94.4,178.3,94.5,178.5,94.5
		c0,0.2,0.1,0.4,0.3,0.4c0,0,0.2-0.1,0.1-0.1C178.9,94.6,178.7,94.5,178.5,94.5z"/>
	<path fill="#F6F8E9" d="M179.5,61c-1.5-0.2-2.5,0.7-3.7,1.6c0.7,0.6,1.4,0.4,2,0.4C177.7,61.7,179.3,62.1,179.5,61z"/>
	<path fill="#F6F8E9" d="M178.8,97.5c-0.2,0.2-0.2,0.3,0,0.5C179,97.8,179,97.7,178.8,97.5z"/>
	<path fill="#F6F8E9" d="M172,59.4c1,0,1.9,0,3.4,0c-0.7-0.4-1-0.6-1.4-0.8c-0.6,0-1.3,0-2.1,0C172,58.9,172,59.1,172,59.4z"/>
	<path fill="#F6F8E9" d="M216.1,6.9c0.4,0,0.9,0.3,1.4-0.1C217,6.4,216.5,6.4,216.1,6.9z"/>
	<path fill="#F6F8E9" d="M216.6,59.7c0.2,0.3,0.5,0.6,0.7,0.9c1-0.3,0.8-0.6,0.6-1C217.4,59.5,216.9,59.3,216.6,59.7z"/>
	<path fill="#F6F8E9" d="M219.1,43.8c0.3,0.2,0.6,0.3,1-0.1C219.6,43.4,219.3,43.3,219.1,43.8z"/>
	<path fill="#F6F8E9" d="M220,6.8c-0.2-0.2-0.3-0.2-0.5,0C219.7,7,219.8,7,220,6.8z"/>
	<path fill="#F6F8E9" d="M214.5,45.3c-1.9-0.7-3.1,0.5-4.5,0.4C211.4,46.5,212.7,45.5,214.5,45.3z"/>
	<path fill="#F6F8E9" d="M194.3,66.5c0.4,0,0.8,0,1.5,0c0.6,0.6,1.1,1.5,2.2,0.8c0.1-0.9,0.3-1.8-0.6-2.2c-1.2,0-2.2,0-3.5,0
		C194.2,65.6,193.7,66.1,194.3,66.5z"/>
	<path fill="#F6F8E9" d="M207.5,45.3c0.6,0.3,1,0.3,1.4-0.1C208.5,45.1,208,44.8,207.5,45.3z"/>
	<path fill="#F6F8E9" d="M216.2,58.5c0.6-0.1,1.2,0.2,1.8-0.2c-0.2-0.2-0.3-0.3-0.6-0.6c0.4-0.2,0.7-0.3,1-0.4c0-0.2,0-0.4,0-0.7
		c-0.8,0-1.6,0-2.4,0C216,57.3,215.8,57.9,216.2,58.5z"/>
	<path fill="#F6F8E9" d="M214,18.8c-0.2-0.5-0.8-0.2-1.3-0.2c-0.2,0.6-0.2,1.2,0,2C213.8,20.3,214.2,19.6,214,18.8z"/>
	<path fill="#F6F8E9" d="M185.6,64.7c0.2,0.3,0.5,0.6,0.7,0.9c1-0.3,0.8-0.6,0.6-1C186.4,64.5,185.9,64.3,185.6,64.7z"/>
	<path fill="#F6F8E9" d="M191.6,4.3c0.3,0.2,0.6,0.3,1-0.1C192.1,3.9,191.8,3.8,191.6,4.3z"/>
	<path fill="#F6F8E9" d="M193.7,69.8c-0.7-0.7-0.6-1.6-0.8-2.2c-0.8-0.3-0.9,0.6-2,0.2c-0.7-0.2-0.2-1.3-0.4-2.2
		c-1.5-0.6-1.8,1.1-2.9,1.1c0,0.3,0,0.7,0,1c1,0.3,1.5,1.1,2.4,1.9C191.1,68.6,192.2,70.5,193.7,69.8z"/>
	<path fill="#F6F8E9" d="M189.8,56.5c-0.2,0.2-0.2,0.3,0,0.5C190,56.8,190,56.7,189.8,56.5z"/>
	<path fill="#F6F8E9" d="M194,15.3c-0.8,0.4-1.4,0.7-1.9,0.9c0.7,0.2,1.3,0.5,1.9,0.1C194,16.1,194,15.9,194,15.3z"/>
	<path fill="#F6F8E9" d="M188.8,61.6c-0.5,0-0.9-0.3-1.3,0.2c0,0.3,0,0.7,0,1c0.5,0.4,1,0.4,1.5,0C188.9,62.4,189.2,61.9,188.8,61.6
		z"/>
	<path fill="#F6F8E9" d="M190.1,94.8c0.3,0.3,0.6,0.3,1-0.1C190.6,94.4,190.3,94.3,190.1,94.8z"/>
	<path fill="#F6F8E9" d="M197.3,58c-0.2,0.2-0.2,0.3,0,0.5C197.5,58.3,197.5,58.2,197.3,58z"/>
	<path fill="#F6F8E9" d="M185.9,63.7c0.6,0.4,1.1,0.3,1.6,0C187,63.4,186.5,63.4,185.9,63.7z"/>
	<path fill="#F6F8E9" d="M180.5,57.8c-0.2-0.2-0.3-0.2-0.5,0C180.2,58,180.3,58,180.5,57.8z"/>
	<path fill="#F6F8E9" d="M148.3,65.5c1,0.9,1.6,2.2,3.1,2.6c-0.2-1.4-1.3-2-1.7-3.1C149.3,65.1,148.9,64.8,148.3,65.5z"/>
	<path fill="#F6F8E9" d="M150.8,19c-0.5,0.1-1.1-0.2-1.9,0.2c0.7,0.3,1.2,0.6,1.7,0.9C151,19.8,151.1,19.5,150.8,19z"/>
	<path fill="#F6F8E9" d="M146.3,67c0.2-0.2,0.5-0.5,0.7-0.7c-0.2-0.4-0.4-0.8-0.7-1.3c-1.2,0.3-2.1-0.4-3.2-1
		c-0.1,1.6,1.1,1.4,2.1,1.8c-0.8,0.5-1.6-0.1-2.4,1C144.3,66,145.1,67.2,146.3,67z"/>
	<path fill="#F6F8E9" d="M151.7,63.5c0.4-0.2,0.8-0.5,1.5-0.9c-1.6,0-2.8,0-4.1,0c-0.2,0.7,0.1,1.3-0.6,1.7c1.6,0.6,1.9-0.5,2.2-1.3
		C151.3,62.9,151.5,63.2,151.7,63.5z"/>
	<path fill="#F6F8E9" d="M154.6,19.3c-0.6-0.4-1.1-0.3-1.6,0C153.5,19.6,154,19.6,154.6,19.3z"/>
	<path fill="#F6F8E9" d="M153.8,67.5c0.2-0.2,0.2-0.3,0-0.5C153.5,67.2,153.5,67.3,153.8,67.5z"/>
	<path fill="#F6F8E9" d="M156,4.4c0.7,0.2,1.3,0.2,1.9-0.2C157.3,4.1,156.6,3.7,156,4.4z"/>
	<path fill="#F6F8E9" d="M156.9,61.2c-0.3-0.3-0.6-0.3-1,0.1C156.4,61.6,156.7,61.7,156.9,61.2z"/>
	<path fill="#F6F8E9" d="M172,5.3c0.5,0.4,1,0.4,1.5,0C173,4.9,172.5,4.9,172,5.3z"/>
	<path fill="#F6F8E9" d="M137.9,68.1c0.3,1.1,0.6,1.6,1.7,1.3C139.4,68.5,139.1,67.9,137.9,68.1z"/>
	<path fill="#F6F8E9" d="M145.9,5.2c-0.2,0.1-0.7-0.5-0.8,0.2C145.4,5.6,145.6,5.6,145.9,5.2z"/>
	<path fill="#F6F8E9" d="M141.7,68.4c0.4,0,0.8,0,1.4,0c-0.3-0.5,0.1-1-0.3-1.4c-0.4,0-0.8,0-1.2-0.1c-0.1-0.3-0.1-0.6-0.3-1
		c-0.5,0.1-1-0.1-1.4,0.3C140.9,66.7,140.9,67.9,141.7,68.4z"/>
	<path fill="#F6F8E9" d="M144,70.3c0.5,0.3,0.9,0.3,1.4,0c0-0.2,0-0.4,0-0.6c-0.5-0.3-0.9-0.3-1.4,0C144,69.9,144,70.1,144,70.3z"/>
	<path fill="#F6F8E9" d="M136.5,63.2c-1.4,0.1-2.8,0.1-4.1,1.1C134.2,65,135.2,63.7,136.5,63.2z"/>
	<path fill="#F6F8E9" d="M144.6,61.8c0.3,0.2,0.6,0.3,0.8-0.2C145.1,61.8,144.7,61.2,144.6,61.8z"/>
	<path fill="#F6F8E9" d="M141.1,4.7c-0.6-0.3-1.1-0.3-1.6,0C140,5.1,140.5,5.1,141.1,4.7z"/>
	<path fill="#F6F8E9" d="M140.5,64.8c-0.6-1-1.5-0.9-2.9-0.6C138.8,64.5,139.5,65.4,140.5,64.8z"/>
	<path fill="#F6F8E9" d="M159.5,65.8c0.2,0.2,0.5,0.5,0.7,0.7c0.6,0,1.2,0.2,1.8-0.2c0-0.4,0-0.7,0-1.1
		C161.1,64.9,160.2,64.8,159.5,65.8z"/>
	<path fill="#F6F8E9" d="M155,52.8c-0.5-0.4-1-0.4-1.5,0C154,53.1,154.5,53.1,155,52.8z"/>
	<path fill="#F6F8E9" d="M175.7,19c-0.3,0.2-0.3,0.5-0.1,0.9c0.4,0,0.8,0,1.4,0C176.7,19.4,176.4,18.9,175.7,19z"/>
	<path fill="#F6F8E9" d="M175.7,52.4c0.6-0.1,0.6-0.1,0.8-0.7c-0.3-0.4-0.7-0.4-1,0C175.5,52,175.4,52.3,175.7,52.4z"/>
	<path fill="#F6F8E9" d="M178.2,6c-0.2,0.2-0.2,0.3,0,0.5C178.5,6.3,178.5,6.2,178.2,6z"/>
	<path fill="#F6F8E9" d="M168.1,52.6c0.4,0.2,0.9,0.7,1.5,0C169,52.6,168.5,52.6,168.1,52.6z"/>
	<path fill="#F6F8E9" d="M167.5,65.2c0,0.3,0,0.6,0,1c0.5,0.4,0.8,1.1,1.8,1.3c0.3-0.8,0.2-1.4,0.1-1.9
		C168.8,65,168.3,64.7,167.5,65.2z"/>
	<path fill="#F6F8E9" d="M171.2,65.5c0.3,0,0.7,0,1.3,0c-0.1-0.4,0.1-0.7-0.2-0.9c-0.4-0.1-0.9-0.3-1.3,0.2
		C171,65,170.9,65.3,171.2,65.5z"/>
	<path fill="#F6F8E9" d="M173,52.3c-0.5-0.4-1-0.4-1.5,0C172,52.6,172.5,52.6,173,52.3z"/>
	<path fill="#F6F8E9" d="M174.2,67.5c-0.8,0.8-1.4,1.4-2,2c0.9,1.3,1.8,0,2.8-0.2C175.1,68.3,174.8,67.7,174.2,67.5z"/>
	<path fill="#F6F8E9" d="M175.5,66.2c0-0.3,0-0.7,0-1c-0.5-0.4-1-0.4-1.5,0c0.1,0.4-0.2,0.8,0.2,1.2
		C174.6,66.5,175.1,66.7,175.5,66.2z"/>
	<path fill="#F6F8E9" d="M169.6,19.2c-0.6-0.3-1.1-0.3-1.6,0C168.5,19.6,169,19.6,169.6,19.2z"/>
	<path fill="#F6F8E9" d="M160.1,86.4c0.3,0.1,0.6,0.2,0.8-0.3C160.6,86.3,160.2,85.7,160.1,86.4z"/>
	<path fill="#F6F8E9" d="M161.9,19.7c0.4-0.1,0.7-0.3,1.1-0.4c-0.1-0.1-0.1-0.2-0.2-0.2c-0.8,0-1.5,0-2.3,0
		C161.2,19.3,161.5,20.1,161.9,19.7z"/>
	<path fill="#F6F8E9" d="M160,72.3c0.3,0.4,0.7,0.4,1,0C160.7,71.9,160.3,71.9,160,72.3z"/>
	<path fill="#F6F8E9" d="M164,4.8c0-0.2,0-0.4,0-0.6c-0.5-0.3-0.9-0.3-1.4,0c0,0.2,0,0.4,0,0.6C163,5.1,163.5,5.1,164,4.8z"/>
	<path fill="#F6F8E9" d="M167.2,58c0.2-0.2,0.2-0.3,0-0.5C167,57.7,167,57.8,167.2,58z"/>
	<path fill="#F6F8E9" d="M160.8,53.5c0.2-0.5,0.8-0.4,1.2-0.9c-0.6,0-1.3-0.4-1.9,0.1C160.3,53,160.5,53.3,160.8,53.5z"/>
	<path fill="#F6F8E9" d="M164,67.1c0,0-0.1,0.1-0.2-0.1c-0.3,0-0.7,0-1,0c-0.2,1-1.1,1.1-1.8,1.5c-0.5,0-0.7-0.8-1.3-0.4
		c-0.1,0.1-0.2,0.1-0.2,0.2c0,0.3,0,0.7,0,1c0.2,0.4,0.6,0.1,0.8,0.4c0.3,0.3,0.6,0.5,1.4,0.3c0.4-0.2,1.1-0.6,1.9-1.1
		c-0.2-0.6,0.1-1.2,0.4-1.7C164,67.1,164,67.1,164,67.1z"/>
	<path fill="#F6F8E9" d="M165.6,64.8c0.3,0.2,0.6,0.3,0.8-0.2C166.1,64.8,165.7,64.2,165.6,64.8z"/>
</g>
</svg>
