<?xml version="1.0" encoding="utf-8"?>
<!-- Generator: Adobe Illustrator 22.1.0, SVG Export Plug-In . SVG Version: 6.00 Build 0)  -->
<!DOCTYPE svg PUBLIC "-//W3C//DTD SVG 1.1//EN" "http://www.w3.org/Graphics/SVG/1.1/DTD/svg11.dtd">
<svg version="1.1" id="Layer_1" xmlns="http://www.w3.org/2000/svg" xmlns:xlink="http://www.w3.org/1999/xlink" x="0px" y="0px"
	 viewBox="0 0 32 32" style="enable-background:new 0 0 32 32;" xml:space="preserve">
<style type="text/css">
	.st0{display:none;}
	.st1{display:inline;}
	.st2{fill:none;stroke:#F6F8EB;stroke-width:1.3333;stroke-miterlimit:10;}
	.st3{display:inline;fill:#4E4F48;}
	.st4{display:inline;fill:none;stroke:#4E4F48;stroke-width:1.3333;stroke-miterlimit:10;}
	.st5{clip-path:url(#SVGID_2_);}
	.st6{fill:#4E4F48;}
	.st7{clip-path:url(#SVGID_4_);fill:#4E4F48;}
	.st8{fill:#F6F8EB;}
</style>
<g id="Layer_1_1_" class="st0">
	<rect class="st1" width="32" height="32"/>
</g>
<g id="Layer_2_1_">
	<circle class="st2" cx="16" cy="16" r="13.3"/>
</g>
<g id="elite" class="st0">
	<path class="st3" d="M10.7,6.7V8H12v4l4,4l4-4V8h1.3V6.7H10.7z M18,12.7l-2,2l-2-2V8h4V12.7z"/>
	<circle class="st4" cx="16" cy="21.3" r="4"/>
	<rect x="14.7" y="16" class="st3" width="2.7" height="10.7"/>
	<rect x="10.7" y="20" class="st3" width="10.7" height="2.7"/>
</g>
<g id="Layer_4" class="st0">
	<circle class="st3" cx="16.7" cy="16" r="1.3"/>
	<g class="st1">
		<g>
			<defs>
				<circle id="SVGID_1_" cx="16" cy="16" r="13.3"/>
			</defs>
			<clipPath id="SVGID_2_">
				<use xlink:href="#SVGID_1_"  style="overflow:visible;"/>
			</clipPath>
			<g class="st5">
				<path class="st6" d="M16,10c-1.4,0-2.8,0.3-4,0.9V8.7h0.7V6l-4,2.7h2v3c-2.4,1.7-4,4.5-4,7.7v11H10V24h4v6.3h11.3v-11
					C25.3,14.2,21.2,10,16,10z M14,13.3h6.7v5.3H14V13.3z M24.7,22.7H7.3V20h17.3v2.7H24.7z"/>
				<rect x="2.7" y="20" class="st6" width="2.7" height="5.1"/>
				<rect x="26.7" y="20" class="st6" width="2.7" height="5.1"/>
			</g>
		</g>
	</g>
</g>
<g id="Layer_5" class="st0">
	<polygon class="st3" points="21.7,12 21.7,11.6 16.7,12.6 16.6,12.3 15.3,12.5 15.2,12.1 13.3,12.5 13.4,12.9 6,14.5 6.5,16.8 
		7.1,16.6 7.5,18.2 11.3,17.4 10.9,15.9 12.1,15.6 12.5,17.1 13.1,17 13.5,18.5 14.1,18.4 14.4,16.7 14.3,16.4 16.2,16 16.1,15.6 
		17.3,15.3 17.2,14.9 22.2,13.9 22.1,13.5 25.9,12.7 25.5,11.2 	"/>
	<rect x="63" y="14" class="st3" width="3" height="1.3"/>
	<rect x="59" y="13.6" class="st3" width="4" height="2"/>
	<rect x="58" y="13.3" class="st3" width="1" height="2.7"/>
	<rect x="56.5" y="13" class="st3" width="1.5" height="3.3"/>
	<rect x="50.5" y="13.3" class="st3" width="6" height="2"/>
	<rect x="51" y="15.3" class="st3" width="3" height="1.3"/>
	<rect x="55" y="15.3" class="st3" width="1" height="1.3"/>
	<polygon class="st3" points="56,18 55.5,18 55.5,16.6 55.5,15.3 56,15.3 56.5,15.3 56.5,16.6 	"/>
	<g class="st1">
		<g>
			<defs>
				<circle id="SVGID_3_" cx="16" cy="16" r="11.3"/>
			</defs>
			<clipPath id="SVGID_4_">
				<use xlink:href="#SVGID_3_"  style="overflow:visible;"/>
			</clipPath>
			<path class="st7" d="M20,22.7V20h-1.3l-1.3-1.3h-2.7L13.3,20H12v2.7H4.7v6.7h22.7v-6.7H20z M20,24.3h-8v-0.7h3.7v-3h0.7v3H20
				V24.3z"/>
		</g>
	</g>
</g>
<g id="Layer_6" class="st0">
	<g class="st1">
		<polygon class="st6" points="15.7,25.5 17.4,26.5 18.7,23 17.3,21.1 		"/>
		<polygon class="st6" points="9.4,19.5 8.1,23.1 10.1,23.4 11.7,19 		"/>
		<path class="st6" d="M19.8,5.7c-0.6-0.2-3.2,3-4.3,5.9l-4.6,12.5l0.5,0.2l-0.5,1.5l2.8,1l0.5-1.5l0.5,0.2c0,0,3.5-9.5,4.6-12.5
			C20.3,10.1,20.4,6,19.8,5.7z M14.1,17.2l2.2-5.9l0.9,0.3L15,17.5L14.1,17.2z M16.6,18.1l-0.9-0.3l2.2-5.9l0.9,0.3L16.6,18.1z"/>
	</g>
</g>
<g id="Layer_7" class="st0">
	<path class="st3" d="M19.1,8.1c0,0-10.7,6.6-11.2,7.8s0.9,4.2,2.3,5.6s3.4,2.3,5.6,2.3s5-0.8,5.6-2.3C22.1,20.1,19.1,8.1,19.1,8.1z
		 M12.2,16.9c-0.6,0.5-1.2,0.6-1.6,0.5c-0.1-0.1-0.3-0.2-0.3-0.3c-0.3-0.5,0.2-1.4,0.9-1.9c0.8-0.6,1.7-0.7,1.9-0.2
		C13.4,15.6,12.9,16.4,12.2,16.9z M15.3,19.6c-0.3,0.8-1,1.5-1.6,1.3s-0.5-1.2-0.2-2s1-1.5,1.6-1.3C15.7,17.8,15.7,18.8,15.3,19.6z
		 M19,20.8c-0.1,0-0.3,0-0.4,0c-0.4-0.2-0.7-0.7-0.8-1.5c-0.1-0.8,0.1-1.8,0.7-1.9c0.6-0.2,1.1,0.5,1.2,1.5
		C19.8,19.7,19.6,20.6,19,20.8z"/>
</g>
<g id="Layer_8" class="st0">
	<path class="st3" d="M3.3,20.1L5.1,23l2.5,3.5l8.2-5.6l-0.6-1.1l2.5-2l-2.3-4.1L3.3,20.1z M15.1,16.3l-5.3,2.8l-0.6-1l5.3-2.8
		L15.1,16.3z"/>
	<path class="st3" d="M15.5,13.7c-1.2-2.3,3.7-6.6,3.3-5.7c-1,2.2-1.5,5.1-1,5.7c0.5,0.6,5.6-2.9,5.6-2.9s-4.8,3.7-4.3,4.6
		c0.4,0.9,3.4,1.6,5.5,1.9c0.6,0.6-5.7,2.4-6.8,0.6"/>
</g>
<g id="Layer_9" class="st0">
	<path class="st3" d="M22.9,13.6c-1.6-1.6-5.1-0.8-7.8,1.8c-2.6,2.6-3.5,6.1-1.8,7.8c1.6,1.6,5.1,0.8,7.8-1.8
		C23.8,18.7,24.6,15.2,22.9,13.6z M13,21.2c-0.6-0.6,0-3.4,2.2-5.5c2.1-2.1,4.9-2.8,5.5-2.2s-0.6,2.8-2.7,5
		C15.8,20.6,13.6,21.8,13,21.2z"/>
	<polygon class="st3" points="16.2,18.4 12.3,12.5 18.1,16.5 17.2,17.4 	"/>
	<path class="st4" d="M9.8,15c0-2.7,2.2-4.9,4.9-4.9"/>
	<path class="st4" d="M6.3,14.5c0-4.4,3.6-8,8-8"/>
	
		<rect x="15.8481" y="23.7437" transform="matrix(0.1444 -0.9895 0.9895 0.1444 -7.6241 40.5699)" class="st3" width="7.5999" height="1.9"/>
	
		<rect x="21.4106" y="18.9062" transform="matrix(0.9464 -0.3229 0.3229 0.9464 -6.1342 8.4368)" class="st3" width="1.8999" height="7.5998"/>
</g>
<g id="Layer_10" class="st0">
	<g class="st1">
		<path class="st6" d="M28.2,21.6c-1.7,6.4-9.3,8.3-12.1,8.3c0-0.2-0.1-0.4-0.1-0.7c0-1.2-0.1-2.4-0.1-3.6c0-0.2-0.1-0.4-0.3-0.4
			s-0.4,0.1-0.5,0.4c0,0.1,0,0.2,0,0.3c0,0.2,0,0.3,0,0.5c0,0.8,0.1,1.6,0.1,2.4c0,0.3,0,0.5-0.1,0.8c0,0.1-0.1,0.1-0.1,0.2
			c-1.5,0.1-2.7-0.6-4.1-1.1c-0.1-0.8,0-1.5,0.1-2.2c0.1-1.2,0.4-2.5,0.9-3.6c0.2-0.4,0.4-0.8,0.7-1.2c0.3-0.4,0.7-0.7,1.2-0.8
			c1.3-0.3,2.7-0.6,4-0.9c0.2,0,0.4-0.1,0.6-0.2c0.3-0.7,0.1-1.3-0.1-2c-0.1-0.3-0.3-0.4-0.6-0.4c-0.4,0-0.6-0.3-0.6-0.7
			c0-0.2-0.1-0.4-0.1-0.6c-0.1-0.7-0.1-1.4,0.6-1.8c0-0.4-0.1-0.7-0.1-1.1c0-0.3,0-0.5,0.2-0.7c0.7-1,1.5-1.8,2.7-2.2
			c0.8-0.3,1.6-0.3,2.4-0.2c0.4,0.1,0.8,0.3,1,0.6c0.3,0.4,0.5,0.8,0.8,1.2c0.2,0.3,0.3,0.5,0.6,0.7c0.4,0.3,0.7,0.6,1,1
			c-0.2,0.4-0.5,0.5-0.9,0.3c-1.8-0.5-3.4,0.1-4.9,1c-0.1,0-0.1,0.1-0.2,0.2c0.1,0.3,0.2,0.6,0.3,0.8c0.1,0.1,0.1,0.2,0.3,0.3
			c0.5,0.3,1,0.5,1.6,0.6c0.5,0.1,0.9,0,1.4-0.3c0.2-0.2,0.5-0.3,0.7-0.4c0.4,0.3,0.5,0.7,0.4,1.1s-0.2,0.9-0.3,1.3
			c-0.1,0.4-0.2,0.8-0.5,1.1c-0.4,0.4-0.1,1,0.4,1.1c0.4,0.1,0.8,0.1,1.2,0.2S28.2,21.6,28.2,21.6z"/>
		<path class="st6" d="M14.8,13.6c-0.2,0.1-0.4,0.2-0.5,0.3c-0.2,0-0.4,0-0.6,0c-1.3-0.2-2.5,0.1-3.6,0.6c-0.1,0-0.2,0.1-0.3,0.2
			c-0.1,0.1-0.2,0.2-0.3,0.3c0.1,0.3,0.3,0.6,0.4,0.9c0.3,0.1,0.6,0.3,0.9,0.4c0.7,0.2,1.4,0.3,2-0.2c0.1-0.1,0.3-0.1,0.5-0.2
			c0.2,0.2,0.3,0.3,0.5,0.5c-0.1,0.7-0.3,1.7-0.4,2.4c-0.2,0.1-0.4,0.2-0.6,0.3c-1,0.3-1.6,1.1-2.1,1.9c-0.9,1.4-1.5,2.4-1.7,4
			c-0.1,0.5-0.4,1.5-0.4,2.3c-0.6-0.5-5.1-5-5.2-6.9c1-0.5,3.8-1,4.8-1.5c0-0.4,0-0.8,0-1.3c-0.2-0.6-0.3-0.7-1-0.9
			c-0.1,0-0.1-0.1-0.2-0.1c-0.2-0.5-0.3-1.1-0.2-1.6c0.2-0.4,0.4-0.6,0.5-1c0.1-0.3,0-0.7,0-1c0-0.1,0-0.2,0.1-0.3
			c0.8-1.2,1.8-2.1,3.3-2.3c1.2-0.2,2,0.2,2.6,1.3c0.3,0.6,0.7,1,1.2,1.5C14.5,13.3,14.6,13.4,14.8,13.6z"/>
	</g>
</g>
<g id="system_upgrade">
	<g>
		<path class="st8" d="M23.1,13.3c2,2.1,1,5.4-0.1,6.9c-1.7-0.6-3,0.9-2.3,2.5c0.1,0.5-3.3,2.9-6.1,1C18.3,22.7,23.6,15.5,23.1,13.3
			z"/>
		<path class="st8" d="M7.9,16.4c-0.4-2.7,0.3-4.7,2-6.5c0.9-1,2-1.5,3.3-1.9c0.3,0,0.6,0,0.9,0c0.1,0,0.2,0.1,0.2,0.2
			c0,0.1,0,0.2-0.1,0.3S14,8.7,13.9,8.7c-0.2,0.1-0.4,0.1-0.6,0.2c-2.4,0.7-3.9,2.2-4.7,4.6c-0.2,0.6-0.3,1.2-0.2,1.9
			c0,0.2,0,0.5,0,0.7C8.3,16,8.2,16.1,7.9,16.4z"/>
		<path class="st8" d="M19.2,17.4c-0.4,0.6-0.6,1.1-1.3,1.3c-0.9-1-1.8-2.1-2.8-3.2c-0.2,0-0.4,0-0.7-0.1c-0.2,0-0.4-0.2-0.4-0.5
			c0-0.4,0.2-0.7,0.6-0.8c0.2-0.1,0.4,0,0.6,0.1c0.2,0.1,0.1,0.3,0.1,0.5c0,0.1,0,0.1,0,0.2C16.7,15.9,17.9,16.6,19.2,17.4z"/>
		<path class="st8" d="M23.9,26.5c-0.3-0.4-0.6-2.7-0.8-3.1c0.6-0.5,1.1-0.5,0.7-2.1c0.1,0.1,1.7,2.6,2,3.5
			C25.9,25,24.3,26.1,23.9,26.5z"/>
		<path class="st8" d="M18.4,15.9c0.3-0.5,3.7-3.4,4.2-3c0.4,0.3,0.1,2.9-2.9,6.4c-1.3,1.8-4.9,4.6-5.6,4.2
			c-0.6-0.5,0.6-3.1,1.9-4.7c-1.1,2-2.1,4-1.6,4.1s2.7-1.7,3.6-2.6c1.2-1.3,2.4-2.7,3.2-4.3c0.4-0.7,1.4-2.5,1-2.8
			S18.7,15.8,18.4,15.9L18.4,15.9z"/>
		<path class="st8" d="M10.6,16.6c-0.3-1.8,0.2-3.3,1.5-4.6c0.7-0.7,1.6-1.2,2.6-1.3c0.2,0,0.4-0.1,0.5,0.1c0.1,0.1-0.1,0.4-0.3,0.5
			c-0.1,0-0.2,0.1-0.4,0.1c-1.9,0.4-3.3,2.2-3.4,4.2c0,0.2,0,0.5-0.1,0.7C11.1,16.5,10.9,16.6,10.6,16.6z"/>
		<circle class="st8" cx="22.3" cy="22" r="1.1"/>
		<path class="st8" d="M17.6,29.4l2.7-0.8l0.1-1.6l0.7-3.8c-0.7,0.7-1.8,1.2-1.8,1.2L17.6,29.4z"/>
	</g>
</g>
<g id="cargo" class="st0">
	<g class="st1">
		<path class="st6" d="M15.6,15c-0.4,0.5-0.4,0.5-0.7,0C15.2,15,15.4,15,15.6,15z"/>
		<path class="st6" d="M22.7,18.4c-0.2,0.8-0.8,1.6-1.5,2v2.5l2.9-1.3l0.9-1.3v-3L22.7,18.4z"/>
		<path class="st6" d="M24.4,12l-3.2,1.5v2.7c0.7-0.1,1.2,0.2,1.4,0.7l2.4-1.1v-3.5L24.4,12z"/>
		<path class="st6" d="M19.8,16.8v-2.7l-3,1.4l-0.9,1.2V20l2.5-1.2C18.6,18,19.1,17.3,19.8,16.8z"/>
		<path class="st6" d="M18.6,20.2l-2.7,1.2v3.2l0.7,0.4l3.2-1.5v-2.7C19.3,20.9,18.9,20.6,18.6,20.2z"/>
		<path class="st6" d="M21.9,18c0,0.7-0.6,1.6-1.3,1.8c-0.7,0.3-1.3-0.1-1.3-0.8s0.6-1.6,1.3-1.8C21.3,16.9,21.9,17.3,21.9,18z"/>
		<path class="st6" d="M9,17.8c0.2,0.8,0.7,1.6,1.3,2.2v2.5l-2.5-1.6L7,19.6v-3L9,17.8z"/>
		<path class="st6" d="M7.5,11.3l2.8,1.7v2.7c-0.6-0.1-1,0.1-1.2,0.6l-2-1.3v-3.5L7.5,11.3z"/>
		<path class="st6" d="M11.5,16.4v-2.7l2.6,1.6l0.7,1.2V20l-2.2-1.4C12.5,17.8,12,17,11.5,16.4z"/>
		<path class="st6" d="M12.5,20l2.3,1.4v3.2L14.2,25l-2.8-1.7v-2.7C11.9,20.6,12.3,20.4,12.5,20z"/>
		<path class="st6" d="M9.6,17.5c0,0.7,0.5,1.6,1.2,2c0.6,0.3,1.2,0,1.2-0.7s-0.5-1.6-1.2-2C10.2,16.5,9.6,16.8,9.6,17.5z"/>
		<path class="st6" d="M13.6,10.5c0-0.2,0.1-0.5,0.2-0.7l-2-1.1l-3.6,1.5L8,10.7l2.7,1.5l2.9-1.3C13.6,10.8,13.6,10.6,13.6,10.5z"/>
		<path class="st6" d="M17.5,11.8c-0.4,0.2-0.9,0.3-1.5,0.3s-1.2-0.2-1.6-0.4l-2.5,1.1l2.5,1.4l1.6,0.1l3.4-1.4L17.5,11.8z"/>
		<ellipse class="st6" cx="16.1" cy="10.5" rx="1.3" ry="0.9"/>
		<path class="st6" d="M21.2,8.9L18.5,10c0.1,0.1,0.1,0.3,0.1,0.5s-0.1,0.5-0.2,0.7l2.3,1.2L24,11v-0.6L21.2,8.9z"/>
		<path class="st6" d="M16.1,8.8c0.6,0,1.2,0.2,1.6,0.4l2.3-1L17.8,7h-2l-2.9,1.2l1.7,0.9C15,8.9,15.5,8.8,16.1,8.8z"/>
	</g>
</g>
<g id="huge" class="st0">
	<path class="st3" d="M-13.5,6.5v0.2l0.2-0.1L-13.5,6.5z"/>
	<path class="st3" d="M-13.1,41.6c0,0.1,0,0.1,0,0.2c-0.1,0-0.2,0-0.3-0.1c0,0,0-0.1,0-0.2C-13.3,41.6-13.2,41.6-13.1,41.6z"/>
	<g class="st1">
		<path class="st6" d="M11,19.7v5c3.2,2,6.5,1.8,9.8,0v-5l-3.1-1.2V21l0.5,0.3v2.1c0,0.9-4.5,0.9-4.5,0v-2.2l0.4-0.4L14,18.6
			L11,19.7z"/>
		<path class="st6" d="M20.8,12.3v-5c-3.2-2-6.5-1.8-9.8,0v5l3.1,1.2V11l-0.5-0.3V8.6c0-0.9,4.5-0.9,4.5,0v2.2l-0.4,0.4l0.1,2.2
			L20.8,12.3z"/>
		<path class="st6" d="M12.6,14.9c-1.6-0.3-3.1-0.7-4.3-1.4v-2.4c-0.8,0.3-1.6,0.8-2.4,1.5v6.5C6.6,20,7.3,20.6,8,20.9v-2.3
			c1.1-0.8,2.8-1.3,4.6-1.8V14.9z"/>
		<path class="st6" d="M19.2,17.1c1.6,0.3,3.1,0.7,4.3,1.4v2.4c0.8-0.3,1.6-0.8,2.4-1.5v-6.5c-0.7-0.9-1.4-1.5-2.1-1.8v2.3
			c-1.1,0.8-2.8,1.3-4.6,1.8L19.2,17.1z"/>
	</g>
</g>
<g id="modifications" class="st0">
	<g class="st1">
		<path class="st6" d="M11.8,19.4c0.4,0.1,0.6,0.5,0.8,0.7c-0.4,0.6-2.2,2.5-3.2,3.3c-0.4-0.1-0.6-0.3-0.9-0.6
			c0.3-0.4,0.7-0.8,1-1.1c0.4-0.4,0.8-0.8,1.2-1.2C11.1,20.1,11.4,19.7,11.8,19.4z"/>
		<path class="st6" d="M23.4,22.6c-0.2,0.4-0.5,0.6-0.8,0.8c-0.1,0-0.2,0-0.3-0.1c-1-1-2-2-3.1-3c0.2-0.4,0.5-0.6,0.8-0.9
			C21.2,20.4,22.3,21.5,23.4,22.6z"/>
		<path class="st6" d="M12,13c0.2,0.2,0.4,0.4,0.6,0.5c0.5-0.1,0.6-0.7,1.1-0.6c-0.3,0.3-0.5,0.6-0.8,0.9c0.2,0.3,0.5,0.6,0.7,0.9
			c-0.1,0-0.2,0.1-0.3,0.1s-0.2-0.1-0.2-0.1c-0.6-0.6-1.1-1.1-1.7-1.7c0-0.2,0.1-0.4,0.1-0.5c-0.2-0.6-0.8-0.9-0.8-1.6
			c0.8,0,1.5,0.4,1.9,1.1c-0.2,0.2-0.4,0.5-0.6,0.8C12,12.9,12,12.9,12,13z"/>
		<path class="st6" d="M18.4,13.3c0-0.1,0-0.3,0-0.3c0.1-0.1,0.2,0,0.3,0.1c0.1,0.1,0.2,0.2,0.2,0.3c0.1,0.1,0.2,0.2,0.3,0.3
			c0.4-0.2,0.4-0.2,0.7-0.6c-0.1-0.4-0.5-0.6-0.7-0.8c0.3-0.6,1-1,1.9-1.2c0,0.1,0,0.2-0.1,0.3c-0.2,0.3-0.4,0.6-0.6,1
			c-0.1,0.1-0.1,0.3-0.1,0.4c0.1,0.3,0,0.6-0.2,0.7c-0.5,0.5-1,1-1.6,1.5c-0.1,0.1-0.2,0-0.4,0c0.1-0.5,0.6-0.6,0.7-1
			C18.9,13.6,18.7,13.4,18.4,13.3L18.4,13.3z"/>
		<path class="st6" d="M14.3,15c0.2-0.2,0.4-0.4,0.6-0.6c0.6,1,1.5,1.5,2.2,2.4c-0.1,0.1-0.2,0.2-0.4,0.3
			C15.8,16.5,15.3,15.6,14.3,15z"/>
		<path class="st6" d="M11.8,9c-0.2,0.2-0.5,0.4-0.7,0.7c-0.1-0.1-0.2-0.1-0.3-0.1C10.4,9.1,10,8.8,9.6,8.4c0,0,0-0.1,0-0.2
			C10.5,8,11.1,8.2,11.8,9z"/>
		<path class="st6" d="M8.9,11.8c-0.8-0.7-1-1.4-0.8-2c0.1,0,0.1,0,0.2,0c0.5,0.4,0.9,0.9,1.4,1.4c-0.1,0.2-0.3,0.3-0.4,0.4
			C9.1,11.6,9,11.7,8.9,11.8z"/>
		<path class="st6" d="M22.4,8.2c-0.5,0.5-1,1-1.5,1.5c-0.3-0.2-0.6-0.4-0.8-0.6c0.5-0.6,1-0.9,1.7-1C22.1,8,22.1,8,22.4,8.2z"/>
		<path class="st6" d="M23,11.8c-0.3-0.3-0.5-0.4-0.7-0.6c0.5-0.6,1-1.2,1.7-1.6C23.9,10.5,23.7,11.2,23,11.8z"/>
		<path class="st6" d="M18.3,13.3c0.1,0.2,0.2,0.3,0.3,0.5c-0.2,0.3-0.5,0.5-0.8,0.7c-0.4,0-0.5-0.3-0.8-0.5
			C17.4,13.6,17.6,13,18.3,13.3L18.3,13.3z"/>
		<path class="st6" d="M19.7,11c-0.3-0.6-0.2-0.8,0.4-1.4c0.4,0.1,0.5,0.4,0.8,0.7c-0.1,0.3-0.4,0.3-0.6,0.4
			C20.1,10.8,19.9,10.9,19.7,11z"/>
		<path class="st6" d="M21.6,11c0.4,0.3,0.6,0.5,0.9,0.9c-0.3,0.5-0.8,0.5-1.2,0.6c-0.2-0.1-0.1-0.3,0-0.4
			C21.3,11.7,21.4,11.4,21.6,11z"/>
		<path class="st6" d="M14.2,13.2c0.2,0.2,0.4,0.4,0.6,0.6c-0.1,0.4-0.4,0.6-0.6,0.7c-0.4-0.1-0.6-0.4-0.9-0.7
			C13.5,13.5,13.8,13.3,14.2,13.2z"/>
		<path class="st6" d="M12.2,10.8c-0.4-0.1-0.7-0.2-1.2-0.3c0.2-0.4,0.5-0.7,0.8-0.9C12.3,9.9,12.4,10.1,12.2,10.8z"/>
		<path class="st6" d="M10.4,11.1c0.1,0.5,0.2,0.8,0.3,1.2c-0.5,0.2-0.8,0-1.2-0.2C9.7,11.6,10,11.3,10.4,11.1z"/>
		<path class="st6" d="M16.5,15.1c0.1-0.2,0.3-0.4,0.4-0.7c0.3,0,0.4,0.2,0.5,0.5C16.9,15.4,16.9,15.4,16.5,15.1z"/>
		<path class="st6" d="M23.9,23.1c-0.2,0.5-0.2,0.5-0.9,0.9C23.3,23.4,23.4,23.4,23.9,23.1z"/>
		<path class="st6" d="M18.1,17.6c0,0.3-0.2,0.4-0.5,0.5L17.4,18c0.1-0.1,0.1-0.3,0.2-0.4S17.9,17.4,18.1,17.6z"/>
		<path class="st6" d="M16.9,17.6c0.1-0.3,0.3-0.5,0.7-0.7c0,0.1,0.1,0.3,0,0.3C17.4,17.5,17.3,17.7,16.9,17.6z"/>
		<path class="st6" d="M13.7,17.8c0.1-0.1,0.2-0.2,0.4-0.3c0.3,0.1,0.4,0.3,0.5,0.6c-0.1,0-0.2,0.1-0.2,0
			C14.1,18,13.9,17.9,13.7,17.8L13.7,17.8z"/>
		<path class="st6" d="M19,18.4c0,0.4,0,0.4-0.5,0.7c-0.1-0.1-0.1-0.2,0-0.3C18.6,18.7,18.8,18.6,19,18.4z"/>
		<path class="st6" d="M12.8,18.9c0-0.2,0.1-0.4,0.4-0.5c0.1,0.2,0.2,0.4,0.4,0.7C13.2,19,13,19,12.8,18.9L12.8,18.9z"/>
		<path class="st6" d="M17.9,18.7c0-0.2,0-0.2,0-0.2c0.1-0.2,0.3-0.5,0.6-0.5c0,0,0.1,0,0.1,0.1C18.6,18.5,18.3,18.5,17.9,18.7z"/>
		<path class="st6" d="M18.8,19.4c0.2-0.2,0.3-0.3,0.5-0.5c0.1,0.1,0.2,0.2,0.2,0.3c0,0.1-0.1,0.2-0.1,0.3
			C19.3,19.6,19.3,19.6,18.8,19.4z"/>
		<path class="st6" d="M12.8,18.9c0.1,0.2,0.1,0.3,0.2,0.5c-0.3,0.2-0.3,0.2-0.7,0C12.4,19.2,12.6,19.1,12.8,18.9L12.8,18.9z"/>
		<path class="st6" d="M14.3,17.2c0.1-0.1,0.2-0.2,0.3-0.4c0.1,0.2,0.2,0.3,0.2,0.4c0.1,0.1,0.1,0.2,0.2,0.4
			C14.6,17.6,14.5,17.4,14.3,17.2z"/>
		<path class="st6" d="M13.7,17.7c0.1,0.2,0.2,0.5,0.3,0.8c-0.3,0.2-0.4-0.1-0.7-0.3C13.5,18.1,13.6,17.9,13.7,17.7
			C13.7,17.8,13.7,17.7,13.7,17.7z"/>
		<path class="st6" d="M19,19.8c-0.2,0.2-0.3,0.3-0.4,0.3c-0.1,0.1-0.2,0-0.2-0.2c0-0.1,0-0.2,0.2-0.2C18.6,19.7,18.7,19.8,19,19.8z
			"/>
		<path class="st6" d="M13.7,19.9c-0.2,0.1-0.3,0.2-0.4,0.2c0,0-0.1-0.1-0.1-0.2c0.1-0.1,0.2-0.1,0.3-0.2
			C13.5,19.7,13.6,19.8,13.7,19.9z"/>
		<path class="st6" d="M18.5,12.7c0-0.3,0.2-0.4,0.3-0.5h0.1c0,0,0,0.1,0,0.2C18.9,12.6,18.7,12.7,18.5,12.7z"/>
		<path class="st6" d="M13.2,12.2c0.1,0.1,0.1,0.2,0.1,0.3l-0.1,0.1c-0.1,0-0.2-0.1-0.2-0.2C13,12.3,13.1,12.3,13.2,12.2z"/>
	</g>
</g>
<g id="crew" class="st0">
	<g class="st1">
		<path class="st6" d="M22.2,27.1c-0.3,0.6-5.2,2.3-7.6,1.6c-1.8-0.1-3.5-0.6-5.1-1.5c-0.4-0.2-0.7-0.4-1.2-0.6
			C8.1,26,8.1,25.3,8,24.7c0-0.4,0.1-0.6,0.4-0.9c0.3-0.3,0.7-0.5,1.2-0.7c1.7-0.6,3.5-0.7,5.3-0.7c2.2,0.1,4.2,0.7,6.2,1.6
			C21.2,24.9,22.3,26.1,22.2,27.1z"/>
		<path class="st6" d="M12.5,17c0.1,0.5,0.2,0.9,0.1,1.3c0,0.1,0,0.3,0,0.5c0.2,0.5,0.5,1,0.8,1.4c0.3,0,0.3-0.2,0.4-0.3
			c0.3-0.8,0.6-1.5,1-2.3c0.5-0.9,1.2-1.5,2.1-2c0.5-0.3,1.1-0.3,1.7-0.5c0,0.4,0,0.8,0.1,1.1c0.4,0.5,0.9,0.5,1.5,0.5
			c0.3,0,0.7-0.1,1.2,0.1c-0.5,0.2-0.9,0.4-1.2,0.6c-0.4,0.3-0.7,0.6-1.1,0.9c-0.3,0.3-0.6,0.6-0.8,1c-0.2,0.4-0.4,0.8-0.6,1.2
			c-0.2,0.4-0.3,0.8-0.4,1.2c-0.2,0-0.3,0-0.4,0c-1.8-0.2-3.6,0-5.4,0.3c-0.8,0.1-1.6,0.4-2.3,0.9c0-0.2-0.1-0.3-0.1-0.4
			c0-0.3,0.1-0.6,0-1c0-0.1,0-0.3,0.1-0.4c0.3-0.4,0.4-0.8,0.4-1.3c0.1-0.5,0.3-0.8,0.8-1.1c0.2-0.1,0.4-0.2,0.5-0.2
			C11.9,18.1,11.9,18.1,12.5,17z"/>
		<path class="st6" d="M10,10.5C9.8,10,9.8,9.7,10.1,9.4c0.2-0.2,0.5-0.4,0.7-0.6c0.3-0.2,0.5-0.4,0.6-0.8c0.4-1.2,1.3-1.9,2.4-2.3
			c2.2-0.6,4,0.1,5.3,1.6c0.5,0.6,0.6,1.3,0.5,2c0,0.4-0.1,0.9,0.3,1.2c0.1,1,0.4,1.9,0.1,2.9c-0.3,0.9-0.9,1.2-1.8,1.1
			c-0.3,0-0.6-0.1-0.9-0.2c-0.3-0.1-0.5-0.2-0.8-0.4c-0.1-0.3-0.1-0.6-0.2-1c0-0.4,0.1-0.8,0.4-1.1s0.3-0.6-0.2-0.8h-0.1
			c-1.5-0.6-2.9-1.1-4.6-1.2C11.3,9.9,10.6,10,10,10.5z M17.9,12.4c0.1,0.4,0.2,0.8,0.2,1.3c0.1,0.3,0.3,0.5,0.6,0.6
			c0.3,0,0.5-0.1,0.7-0.3c0.2-0.3,0.3-0.6,0.4-0.9c0.3-0.6,0.1-1.2-0.1-1.8c-0.1-0.2-0.3-0.3-0.5-0.3C18.5,11.1,17.9,11.6,17.9,12.4
			z M11.6,8.7c0.7,0.1,1.4,0.1,2,0.3c0.7,0.2,1.3,0.4,1.9,0.7c0.6,0.3,1.1,0.7,1.7,1.1c0.5-0.5,1.2-0.6,1.9-0.8
			C19,9.8,19,9.7,19,9.7c-0.7-0.2-1.3,0.2-1.9,0.4C17,10,16.9,10,16.8,9.9c-1.2-1.2-2.7-1.7-4.3-2.1c-0.1,0-0.1,0-0.2,0
			c-0.3,0-0.5,0.1-0.5,0.3C11.7,8.3,11.6,8.5,11.6,8.7z"/>
		<path class="st6" d="M18.1,20.7c0.1-0.1,0.1-0.3,0.2-0.4c0.8-1.3,1.9-2.3,3.3-2.9c1.2-0.6,2.5-0.2,3.3,0.9
			c0.2,0.3,0.4,0.6,0.6,0.9c0.4,0.5,0.5,1,0.5,1.7c0,0.4,0,0.8,0,1.2c-0.1,0-0.2,0.1-0.4,0.1c-0.8,0-1.6,0.1-2.4,0.3
			c-0.5,0.1-1,0.1-1.5-0.1c-1.1-0.4-2.1-0.8-3.1-1.4C18.3,20.8,18.3,20.8,18.1,20.7z"/>
		<path class="st6" d="M10.6,13.1c-0.6-0.7-0.5-1.4-0.3-2.1c0.1-0.3,0.3-0.3,0.5-0.4c0.6-0.2,1.3-0.3,1.9-0.2
			c1.2,0.1,2.3,0.4,3.4,0.9c0.1,0,0.2,0.1,0.3,0.2c-0.1,0.1-0.3,0.2-0.3,0.4c-0.2,0.6-0.7,0.8-1.2,0.9c-0.6,0.1-1.2,0.2-1.8-0.2
			c-0.1-0.1-0.3-0.2-0.4-0.3c-0.5-0.3-1-0.3-1.4,0.1C11.1,12.8,10.9,12.9,10.6,13.1z"/>
		<path class="st6" d="M23,26.5c-0.4-0.7-0.9-2.1-0.9-3c0.8-0.4,1.7-0.5,2.6-0.7c0.3-0.1,1.3,0.6,1.5,0.9
			C25.9,25.5,24.6,26.3,23,26.5z"/>
		<path class="st6" d="M11.4,16.5c0.1-0.2,0.1-0.4,0.2-0.5c0.4-0.2,0.8-0.3,1.2,0c0.3,0.2,0.5,0.2,0.8,0.1c0.9-0.1,1.7-0.5,2.2-1.3
			c0.2-0.2,0.3-0.4,0.5-0.6c0.3,0.2,0.6,0.4,0.9,0.6c0,0.3-0.2,0.2-0.3,0.2c-0.3,0-0.6,0.1-0.8,0.3c-0.8,0.7-1.8,1.1-2.9,1.2
			C12.7,16.7,12.2,16.6,11.4,16.5z"/>
		<path class="st6" d="M8.3,22.6C8,22.4,7.8,22.2,7.6,22c0.2-0.7,0.4-1.3,1.2-1.8c-0.2,0.5-0.4,0.9-0.4,1.2
			C8.3,21.8,8.3,22.2,8.3,22.6L8.3,22.6z"/>
		<path class="st6" d="M8.2,22.6c0,0.1,0.1,0.2,0.1,0.3V23l-0.1-0.1C8.2,22.8,8.2,22.7,8.2,22.6C8.3,22.6,8.2,22.6,8.2,22.6z"/>
	</g>
</g>
<g id="bomb" class="st0">
	<g class="st1">
		<path class="st6" d="M12.7,14.6c0.3,0,0.6,0,0.9,0c0-0.3-0.1-0.6-0.1-0.9c0-0.3,0.1-0.6,0.1-0.9C13,13.1,12.7,13.6,12.7,14.6z
			 M10.8,15.3c0-0.3,0.6-0.7,0.7-0.7c0.5-0.1,0.7-0.3,0.8-0.8s0.5-0.8,0.9-1.2c0.5-0.5,1.1-0.9,1.7-1.2c0.3-0.1,0.5-0.3,0.9-0.4
			c0.2-0.6,0.5-1.1,1-1.5c0.3-0.2,0.5-0.4,0.9-0.4c0.6-0.1,1.2-0.3,1.8-0.6c0.5-0.3,1-0.4,1.6-0.3c0.2,0,0.4,0,0.6,0.1
			c1,0.1,1.8,0.8,1.9,1.7c0.1,0.6,0.1,1.2,0.1,1.9c0,0.4-0.1,0.8-0.3,1.2c-0.1,0.1-0.1,0.3-0.1,0.5c-0.1,0.4-0.1,0.7-0.2,1.1
			c-0.1,0.5-0.4,1-0.9,1.2c-0.4,0.2-0.7,0.6-0.8,1.1c0,0.2-0.1,0.3-0.2,0.5c-0.6,0.9-1.3,1.8-2.3,2.2c-0.1,0-0.2,0.1-0.3,0.1
			c-0.4,0.2-0.6,0.4-0.7,0.8c0,0.4-0.2,0.7-0.6,1c0.3-0.8,0.1-1.5-0.2-2.2c-0.4-0.8-2.1-2.7-2.4-3c-0.5-0.4-0.9-0.7-1.4-1
			C13,15.4,11.8,14.7,10.8,15.3z M17.1,16.5c0.4,0.2,1,0.5,1.4,0.4c-0.1-0.5-0.2-1.4-0.2-1.4s-0.5,0-0.6-0.1
			C17.6,15.4,17.2,16.3,17.1,16.5z M16.8,16.4c0-0.1,0.4-1.2,0.5-1.3c-0.1-0.1-0.3-0.3-0.4-0.4c-0.4,0.1-1.3,0.5-1.4,0.6
			C16.2,16.1,16.3,16,16.8,16.4z M22.4,14.3c0.3-0.3,0.5-0.6,0.3-1c-0.2-0.7-0.5-1.4-0.9-2c-0.7-1-1.5-1.6-2.7-1.9
			c-0.7-0.2-1.4-0.1-2,0.3C17,9.7,16.9,9.8,17,10c0.2,0,0.5,0,0.7,0c1.2,0,2.2,0.4,3,1.3c0.6,0.8,1.2,1.6,1.5,2.5
			C22.2,14,22.3,14.1,22.4,14.3z M20.2,16.3c-0.2-0.2-1.1-1.1-1.1-1.1c-0.1,0.1-0.3,0.2-0.5,0.2c0,0.1,0.1,1,0.3,1.5
			c0.4,0,0.7-0.1,1-0.2C20,16.7,20.2,16.6,20.2,16.3z M20.3,16.2c0.2,0,0.3-0.2,0.4-0.4c0.1-0.4,0.2-0.8,0.1-1.3
			c-0.6-0.1-1.4,0-1.6,0c0,0.3,0.1,0.4-0.1,0.5C19.3,15.1,20.1,16,20.3,16.2z M18.7,12c-0.4-0.3-1.9-0.5-2.2-0.3c0,0,0,0.1-0.1,0.2
			c0.2,0.3,0.5,0.6,0.7,1c0.3,0.4,0.6,0.5,1,0.4C18.4,12.8,18.6,12.4,18.7,12z M18.6,13.6c0.2,0.2,0.2,0.4,0.4,0.4
			c0.5,0.1,1,0.1,1.6,0c-0.1-0.5-0.9-1.6-1.4-1.6C18.9,12.9,18.8,13.2,18.6,13.6z M22.9,11.1c0.3-0.5,0.3-0.8,0.1-1.2
			c-0.2-0.2-0.3-0.4-0.5-0.6c-0.3-0.3-0.6-0.5-1-0.6s-0.6,0-0.8,0.4C21.5,9.5,22.2,10.3,22.9,11.1z M15,13c0.2,0,0.4,0.1,0.6,0.1
			c0.3,0.1,0.7,0.2,1,0.3c0.1,0,0.3,0,0.4-0.1s0.2-0.3,0-0.4c-0.2-0.4-0.5-0.7-0.8-1.1c-0.1-0.1-0.3-0.2-0.4-0.1
			c-0.2,0.1-0.5,0.3-0.7,0.4C15,12.4,14.9,12.7,15,13z M16.7,13.8c-0.5-0.3-1-0.4-1.5-0.6c-0.2-0.1-0.4,0.1-0.4,0.3
			c0.1,0.4,0.2,0.7,0.3,1.1c0.1,0.2,0.2,0.2,0.4,0.2c0.4-0.1,0.7-0.3,1.1-0.4C16.7,14.2,16.7,14,16.7,13.8z M17.9,19.3
			c0.5,0,0.8-0.1,1.2-0.4c0.2-0.1,0.4-0.2,0.4-0.5c-0.3,0-0.6,0-0.9,0s-0.6,0-0.9,0C17.7,18.8,17.7,19.1,17.9,19.3z"/>
		<path class="st6" d="M15,22.5L15,22.5c-0.5,0.5-1,1-1.7,1.1s-1.5,0.2-2.2,0.3c0.1-0.8-0.2-1.4-0.7-1.9C10,21.6,9.6,21.2,9,21.2
			c-0.1,0.1-0.2,0.3-0.3,0.5c0-0.3-0.1-0.5-0.1-0.6c0.1-0.6,0.2-1.1,0.2-1.7c0-0.5,0.2-0.8,0.6-1.1c0.3-0.1,0.4-0.4,0.4-0.7
			c0.1-0.4,0.2-0.8,0.3-1.2c0.2-0.1,0.3-0.2,0.4-0.3c0.7-0.5,1.4-0.5,2.2-0.1c0.4,0.2,0.9,0.5,1.3,0.8c1.3,1,2.3,2.2,2.7,3.8
			c0.2,0.8,0,1.4-0.8,1.8C15.6,22.3,15.3,22.4,15,22.5c0.1-0.3,0.1-0.6,0.1-0.9c-0.1-0.8-0.4-1.5-0.8-2.2c-0.2-0.2-0.3-0.3-0.6-0.1
			c-0.3,0.2-0.6,0.4-0.7,0.7c0.3,0.5,0.5,0.9,0.7,1.3s0.2,0.9,0.5,1.4C14.5,22.6,14.8,22.5,15,22.5z M9.8,18.1
			c1.1,0.1,2,0.6,2.8,1.3c0.2-0.2,0.4-0.3,0.6-0.5c0.2-0.2,0.2-0.4,0-0.6c-0.5-0.7-1.2-0.9-2-1.1c-0.3-0.1-0.7-0.2-1,0.1
			C10.1,17.4,10,17.7,9.8,18.1z M9.6,20.2c0.7,0.3,1.2,0.7,1.6,1.1c0.1,0.1,0.1,0.2,0.2,0.2c0.1,0,0.2,0,0.3,0
			c0.1-0.1,0.1-0.2,0.1-0.3c0-0.1-0.1-0.3-0.2-0.4c-0.4-0.5-0.9-0.9-1.4-1.2c-0.1-0.1-0.3-0.1-0.5,0C9.6,19.8,9.6,20,9.6,20.2z
			 M12.5,21.9c-0.4,0-0.6,0.2-0.6,0.5c0.1,0.3,0.2,0.6,0.3,1c0.2-0.1,0.4-0.1,0.6-0.2C12.9,22.7,12.6,22.3,12.5,21.9z M8.9,19.9
			C8.9,20,8.9,20,9,20s0.2,0,0.2,0c0.1-0.1,0.1-0.1,0.2-0.2c0.1-0.1,0-0.3-0.1-0.3c-0.1-0.1-0.3,0-0.3,0.1
			C8.9,19.7,8.9,19.8,8.9,19.9z"/>
		<path class="st6" d="M10.3,22.9C10.2,22.9,10.2,22.9,10.3,22.9c-0.5-0.1-0.7-0.4-1-0.7V22c0.1-0.1,0.2-0.1,0.3-0.1
			C9.9,22.1,10.1,22.3,10.3,22.9z"/>
	</g>
</g>
<g id="title" class="st0">
	<g class="st1">
		<path class="st6" d="M18.4,23.8c-0.1,0.1-0.1,0.2-0.2,0.3c-0.2,0.1-0.5,0.1-0.7,0.1c-0.3,0-0.5,0-0.7,0.2c0,0.2,0.1,0.3,0.2,0.3
			s0.3,0,0.4,0c1.1-0.3,2.2-0.5,3.3-0.8c0.8-0.2,1.6-0.6,2-1.4l0.1-0.1c0.7,0.7,0.7,1.3,0.1,1.9c-0.7,0.7-1.5,1.1-2.4,1.3
			c-0.3,0.1-0.6,0.1-0.9,0.1c-1.1,0.1-2.2,0.1-3.3,0.2c-0.2-0.5-0.2-1-0.1-1.9c0.3-0.1,0.7-0.2,1.1-0.2
			C17.8,23.9,18.1,23.8,18.4,23.8L18.4,23.8z"/>
		<path class="st6" d="M19.1,21c0.3,0.1,0.5,0.2,0.5,0.5s-0.3,0.4-0.5,0.5s-0.5,0.2-0.8,0.2c0.6,0.3,0.7,0.8,0.8,1.3
			c-0.2,0.2-0.5,0.2-0.7,0.2l0,0c0.3,0.2,0.5,0.2,0.8,0.1c0.4-0.1,0.8-0.3,1.2-0.4c0.8-0.2,1.5-0.7,2.1-1.3c0,0,0-0.1,0-0.2
			c-0.2-0.2-0.3-0.3-0.6-0.2c0,0.4-0.2,0.8-0.6,0.9c-0.2,0.1-0.4,0.1-0.6-0.1c-0.3-0.3-0.5-0.5-0.8-0.8c0.1-0.2,0.1-0.3,0.1-0.5
			c0-0.1,0.1-0.3,0.1-0.4c-1.5-1-7-0.7-7.6,0c-0.1,0.6-0.1,0.6,0.3,1.2c-0.3,0.5-0.6,0.8-1.1,1.1c-0.4-0.1-0.7-0.3-1-0.6
			c-0.2-0.2-0.2-0.5,0-0.8c0.2-0.2,0.4-0.3,0.6-0.6c-0.5,0.1-0.8,0.2-1.1,0.4c-0.5,0.3-0.4,1.1,0.1,1.3c0.4,0.2,0.9,0.4,1.4,0.5
			c1.2,0.2,2.4,0.5,3.7,0.6c0.1,0,0.2,0,0.3,0.1v0.1v0.1c-0.1,0-0.3,0.1-0.4,0.1c-0.4,0-0.9-0.1-1.3-0.1c-1.1-0.1-2.2-0.4-3.2-0.8
			c-0.3-0.1-0.6-0.3-0.8-0.5c-0.1-0.1-0.2-0.3-0.3-0.5c0-0.1,0.1-0.3-0.1-0.4c-0.3,0.7-0.5,0.8-0.6,1c-0.3,0.4-0.3,0.7,0,1.1
			c0.1,0.1,0.2,0.3,0.4,0.4c0.9,0.6,1.8,1.1,2.9,1.2c0.9,0.1,1.8,0.2,2.7,0.3c0.3,0,0.6,0.1,0.9-0.2c0.2-0.6,0.2-1.1,0.1-1.8
			c-0.4,0-0.8-0.1-1.1-0.1c-0.4-0.1-0.9-0.1-1.3-0.2c-0.4-0.1-0.5-0.3-0.4-0.7c0.2-0.5,0.3-0.6,0.9-0.6c0.1,0,0.1,0,0.2,0l0,0
			c0-0.2-0.2-0.2-0.3-0.2c-0.3-0.1-0.7-0.3-1-0.4c-0.2-0.1-0.2-0.4,0-0.5C13.3,20.8,17.5,20.3,19.1,21z"/>
		<path class="st6" d="M15.2,13.8c0.5,0,0.7,0.3,1,0.4c-0.1,0.8-0.1,5.3-0.1,5.3L15.8,19C15.7,17.6,15.4,15.1,15.2,13.8z"/>
		<path class="st6" d="M14,21.6c0.5-0.3,0.9-0.4,1.4-0.4c1.1-0.1,2.1-0.1,3.2,0.2c-0.1,0.1-0.1,0.2-0.2,0.2
			C16.9,21.9,15.5,22,14,21.6z"/>
		<path class="st6" d="M13.8,23.4c0.3-0.2,0.3-0.4,0.5-0.5s0.3,0,0.5,0c1.1,0,2.1,0,3.2,0c0.2,0,0.3,0.1,0.6,0.1
			c-0.1,0.1-0.2,0.3-0.3,0.3c-0.3,0.1-0.6,0.1-0.8,0.1C16.3,23.4,15.1,23.4,13.8,23.4z"/>
		<path class="st6" d="M15.2,19.5c-0.6-1.3-1.9-4.2-2.5-5.5c0,0,0-0.1,0.1-0.2c0.4,0.1,0.6,0.3,0.9,0.5c0.2,0.9,1.6,5,1.7,5.4
			C15.4,19.6,15.3,19.6,15.2,19.5z"/>
		<path class="st6" d="M14.1,19.3c-0.1-0.1-0.3-0.1-0.4-0.2c-0.5-0.7-1.9-3-2.4-3.8c0.3-0.1,0.5-0.2,0.7-0.2
			C12.4,16,13.6,18.4,14.1,19.3L14.1,19.3z"/>
		<path class="st6" d="M21.4,21.5c0,0.4,0,0.7-0.3,0.9c-0.3,0.2-0.5-0.2-0.8-0.3c0.1-0.3,0.2-0.5,0.2-0.8c0.1,0,0.2-0.1,0.2,0
			C21,21.3,21.2,21.4,21.4,21.5z"/>
		<path class="st6" d="M11.9,21.7c0.1,0.3,0.2,0.4,0.3,0.6c-0.2,0.3-0.4,0.5-0.9,0.4c-0.2,0-0.3-0.3-0.2-0.5
			C11.3,22,11.6,21.9,11.9,21.7z"/>
		<path class="st6" d="M15.2,22.4c0.2,0,0.4,0,0.6,0c0,0,0,0,0,0.1C15.7,22.5,15.4,22.5,15.2,22.4C15.2,22.5,15.2,22.5,15.2,22.4z"
			/>
		<path class="st6" d="M11.4,17.1c-0.1,0.1-0.1,0.1-0.2,0.2c0-0.1-0.1-0.1-0.1-0.2c0,0,0-0.1,0.1-0.1C11.2,17,11.3,17.1,11.4,17.1z"
			/>
		<path class="st6" d="M10.1,15.4L10.1,15.4C10.1,15.5,10,15.4,10.1,15.4c-0.1,0-0.1,0-0.1-0.1C10,15.4,10.1,15.4,10.1,15.4z"/>
		<path class="st6" d="M14.3,22.4c0,0,0.1,0,0.2,0C14.4,22.4,14.4,22.4,14.3,22.4L14.3,22.4z"/>
		<path class="st6" d="M17.2,22.4C17.2,22.5,17.2,22.5,17.2,22.4C17.1,22.5,17.1,22.4,17.2,22.4C17.1,22.4,17.1,22.4,17.2,22.4z"/>
		<path class="st6" d="M15.4,19.6"/>
		<path class="st6" d="M21.7,14.4c-0.3-0.2-0.7-0.3-1-0.6c-0.6-0.4-1.1-0.8-1.7-1.2s-1.2-0.9-1.8-1.3c-0.2-0.1-0.1-0.4,0.1-0.5
			c0.5-0.1,0.9-0.1,1.3,0.1c0.2,0.1,0.5,0.2,0.7,0.3h0.1l2.8,1.2l0,0c0,0,0,0,0.1,0l0.9,0.4l-0.8-0.4c0,0,0,0,0-0.1h-0.1L19.6,11
			c-0.4-0.6-0.9-0.8-1.6-0.8c-0.3,0-0.6,0-0.9,0c-0.1,0-0.3-0.1-0.4-0.1c0-0.3,0.2-0.4,0.4-0.5c0.8-0.4,1.6-0.8,2.4-1.1
			c0.1,0,0.2-0.1,0.2-0.1l0.8,0.3l0,0c0,0,0,0,0.1,0c0,0,0,0,0.1,0l0,0l1.9,0.6c0,0,0,0,0.1,0l0,0l1.1,0.3l-1-0.4c0,0,0,0,0.1,0
			l-0.1-0.1c0,0-0.1,0-0.1,0.1l-2.8-1l0,0c-0.5,0-0.9-0.1-1.4-0.2c-0.1,0-0.3,0-0.5,0c0,0.2,0.1,0.3,0.1,0.5c-0.5,0.2-1,0.3-1.5,0.5
			c-0.4,0.2-0.8,0.1-1.3-0.1c-0.2-0.1-0.4-0.2-0.5-0.3c-0.2-0.1-0.5-0.2-0.7-0.3c-0.1,0-0.2,0-0.3,0.1s-0.1,0.2-0.2,0.3
			c0.3,0.2,0.6,0.3,0.9,0.5c0.1,0,0.1,0.2,0.1,0.2c0,0.1-0.1,0.1-0.2,0.1c-0.4-0.1-0.7-0.1-1.1,0c-0.2,0.1-0.4,0-0.6-0.2
			c-0.2-0.2-0.5-0.3-0.8-0.5c-0.1,0-0.3,0-0.4,0c-0.1,0-0.1,0.2-0.2,0.3c0.2,0.1,0.4,0.2,0.6,0.3c0.2,0.1,0.3,0.2,0.2,0.4
			c-0.4,0.2-0.7,0.4-1.1,0.5c-0.1,0.1-0.3,0.1-0.4,0.1c-0.2,0-0.4,0-0.6,0.1c-0.6,0.2-1.2,0.2-1.7-0.4c0,0-0.2,0-0.3,0
			c-0.1,0-0.1,0.1-0.1,0.2c0,0.3,0.3,0.9,0.4,1.1c0.3,0.1,0.5,0,0.7,0l0.9,1c-0.1,0.1-0.3,0.2-0.4,0.3c-0.3,0.2-0.6,0.4-0.9,0.6
			C8.9,13.7,9,14,9.3,14.4c0.1,0.1,0.2,0.2,0.3,0.2l2.7,3.7L9.8,15l-0.1-0.3c0,0,0.1-0.1,0.2-0.1c-0.2-0.2-0.4-0.4-0.5-0.6
			c0.1-0.1,0.2-0.3,0.3-0.3c0.3-0.1,0.5-0.3,0.8-0.4l0.2,0.2h-0.1v0.2l0.2-0.1l0.4,0.4h0.1l-0.4-0.5l0.2-0.1l-0.2-0.2l-0.1,0.1
			l-0.2-0.2c0.4-0.2,0.8-0.4,1.3-0.6c0.1-0.1,0.3-0.1,0.4-0.1c0.4,0,0.8,0,1.1,0.3s0.5,0.2,0.8-0.2c0.1-0.1,0.2-0.3,0.3-0.4
			c0.5,0,0.8,0.1,1.2,0.3c0.5,0.3,1,0.6,1.5,0.9c1,0.6,2.2,1.1,3.1,1.8c0.1,0.1,0.2,0.1,0.3,0.2c0.7,0.2,1.4,0.5,2.1,0.7
			c0.2,0.1,0.4,0,0.6,0c0-0.1,0-0.2,0-0.3C23,15.3,22.4,14.8,21.7,14.4z M10.2,12.3c-0.1,0-0.1,0.1-0.2,0.1l-0.7-1
			c0.1,0,0.3-0.1,0.4-0.1c0.4-0.1,0.8-0.1,1.2-0.1c0.1,0,0.2,0.1,0.4,0.2C11,11.9,10.6,12.2,10.2,12.3z"/>
		<path class="st6" d="M18,15.3l0.7,0.4l-1.9,4.2v-0.2L18,15.3z"/>
		<path class="st6" d="M19.6,16.1l0.5,0.4c0,0-1.9,3.2-2,3.2v-0.2L19.6,16.1z"/>
	</g>
</g>
</svg>
