<?xml version="1.0" encoding="utf-8"?>
<!-- Generator: Adobe Illustrator 23.0.1, SVG Export Plug-In . SVG Version: 6.00 Build 0)  -->
<svg version="1.1" id="Layer_1" xmlns="http://www.w3.org/2000/svg" xmlns:xlink="http://www.w3.org/1999/xlink" x="0px" y="0px"
	 viewBox="0 0 32 32" style="enable-background:new 0 0 32 32;" xml:space="preserve">
<style type="text/css">
	.st0{fill:none;stroke:#F6F8EB;stroke-width:1.3333;stroke-miterlimit:10;}
	.st1{fill:#21211D;}
</style>
<g>
	<circle class="st0" cx="16" cy="16" r="13.3"/>
</g>
<g>
	<path class="st1" d="M11.4,15c-0.2,0.3-0.3,0.5-0.6,0.9c-0.6,0-1.1,0-1.8,0c-0.5-0.8-1-1.7-1.5-2.6c0.7-1.8,2-3.3,3.1-4.7
		c0.7-0.9,1.9-1.2,3.1-1.3c1.5-0.1,3-0.1,4.5,0S21,8,21.9,9.4c0.8,1.3,1.7,2.5,2.6,3.8c-0.6,1-1.1,1.9-1.6,2.8c-0.7,0-1.2,0-1.8,0
		c-0.1-0.2-0.3-0.4-0.5-0.6l0,0c0-0.2,0-0.4,0-0.8c0.8-0.1,1.5-0.2,2.3-0.2c0.2-0.4,0.4-0.8,0.7-1.2c-0.4-0.7-0.8-1.3-1.1-1.8
		c-4.4,0-8.7,0-13,0C9,12,8.7,12.6,8.3,13.2C8.6,13.6,8.8,14,9,14.5c0.5,0,1,0,1.5,0S11.3,14.6,11.4,15L11.4,15z M10.6,10
		c0.2-0.3,0.4-0.5,0.6-0.8c0,0,0-0.1,0.1-0.1v0.1C11,9.5,10.8,9.7,10.6,10c-0.1,0.1-0.2,0.3-0.3,0.4c0.1,0,0.1,0.1,0.2,0.1
		C10.5,10.3,10.5,10.1,10.6,10z M21.2,9.8c-0.1-0.2-0.2-0.4-0.3-0.6c-0.1,0-0.1,0.1-0.2,0.1C20.9,9.4,21,9.6,21.2,9.8
		c0.1,0.2,0.2,0.4,0.3,0.6c0.1-0.1,0.2-0.2,0.3-0.2C21.6,10,21.4,9.9,21.2,9.8z M20.6,10.5c-0.6-0.9-1-1.7-1.5-2.4
		c-2.2,0-4.2,0-6.4,0c-0.4,0.7-0.9,1.5-1.4,2.4c1.3-0.2,1.2-1.4,2-1.9c1.8,0,3.6,0,5.1,0C19.5,9.1,19.2,10.4,20.6,10.5z M15.5,10.4
		c0-0.8-0.4-0.7-0.8-0.7c-0.5,0-0.7,0.2-0.8,0.7C14.4,10.4,14.9,10.4,15.5,10.4z M18.1,10.4c-0.8-0.9-1.2-1-1.6,0
		C17.1,10.4,17.6,10.4,18.1,10.4z"/>
	<path class="st1" d="M20.6,15.3c0,0.3,0,0.6,0,1.1c-3.1,0.1-6.1,0.1-9.2,0c0-0.5,0.1-1,0.1-1.4l0,0C13.2,11.9,19,11.9,20.6,15.3
		L20.6,15.3z"/>
	<path class="st1" d="M20.5,17.2c-1.5,1.6-3.4,1.7-5.3,1.6c-2-0.1-3.2-0.6-3.8-1.7C14.5,16.9,17.5,16.9,20.5,17.2z"/>
	<path class="st1" d="M13.2,26.2c0.2-0.5,0.4-0.8,0.6-1.3c1.4,0.8,2.8,0.8,4,0.1c0.8,0.2,0.9,0.6,0.6,1.4
		C16.8,27,15.2,27.1,13.2,26.2z"/>
	<path class="st1" d="M18.4,20c-0.4,1.2-0.7,2.3-1.1,3.5c-0.1,0-0.2-0.1-0.3-0.1c0.2-1.1,0.3-2.3,0.5-3.4c0.2-0.1,0.3-0.2,0.4-0.2
		C18.1,19.8,18.2,19.9,18.4,20z"/>
	<path class="st1" d="M20.7,19.2c-0.6,1.3-1.2,2.3-1.8,3.6c-0.2-0.7,0.1-1.1,0.2-1.4c0.1-0.4,0.3-0.9,0.4-1.3
		C19.6,19.6,19.8,19.2,20.7,19.2z"/>
	<path class="st1" d="M14.6,23.1c-0.5-1-0.9-2-0.9-3.3c0.3,0.1,0.5,0.2,0.6,0.3C14.6,21.1,14.7,22.1,14.6,23.1z"/>
	<path class="st1" d="M15.9,23.1c-0.1-1-0.2-1.9-0.4-3c0.4,0,0.6,0,0.9,0c-0.1,1-0.2,2-0.3,3C16,23.1,16,23.1,15.9,23.1z"/>
	<path class="st1" d="M13.1,22.5c-0.6-1-1.1-2-1.8-3.1c0.5-0.2,0.9,0,1,0.3C12.6,20.7,12.8,21.6,13.1,22.5L13.1,22.5z"/>
	<polygon class="st1" points="13,22.6 13.1,22.6 13.1,22.5 	"/>
	<path class="st1" d="M13.2,12.8c-2.4,0.2-2.4,0.2-3.1-0.9c1.2-0.4,2.4-0.2,3.8-0.1C13.6,12.2,13.4,12.5,13.2,12.8z"/>
	<path class="st1" d="M21,12.8c-0.7,0-1.4,0-2.1,0c-0.2-0.3-0.5-0.6-0.9-1.1c1.4,0,2.6,0,3.8,0C21.7,12.4,21.3,12.6,21,12.8z"/>
</g>
</svg>
