<?xml version="1.0" encoding="utf-8"?>
<!-- Generator: Adobe Illustrator 22.1.0, SVG Export Plug-In . SVG Version: 6.00 Build 0)  -->
<!DOCTYPE svg PUBLIC "-//W3C//DTD SVG 1.1//EN" "http://www.w3.org/Graphics/SVG/1.1/DTD/svg11.dtd">
<svg version="1.1" id="Layer_1" xmlns="http://www.w3.org/2000/svg" xmlns:xlink="http://www.w3.org/1999/xlink" x="0px" y="0px"
	 viewBox="0 0 32 32" style="enable-background:new 0 0 32 32;" xml:space="preserve">
<style type="text/css">
	.st0{fill:none;stroke:#F6F8EB;stroke-width:1.3333;stroke-miterlimit:10;}
	.st1{fill:#F6F8EB;}
</style>
<g id="Layer_2_1_">
	<circle class="st0" cx="16" cy="16" r="13.3"/>
</g>
<path class="st1" d="M24.625,13.2148l-6.7304,2.1733C17.9573,15.5822,18,15.7852,18,16h9.5L24.625,13.2148z"/>
<path class="st1" d="M14,16H4.5l2.875,2.7852l6.7304-2.1733C14.0427,16.4178,14,16.2148,14,16z"/>
<path class="st1" d="M22.0769,9.2755l-4.742,5.2474c0.1513,0.1366,0.2898,0.2911,0.3972,0.4771l8.2272-4.75L22.0769,9.2755z"/>
<path class="st1" d="M14.2679,17l-8.2272,4.75l3.8824,0.9745l4.742-5.2474C14.5139,17.3405,14.3754,17.1861,14.2679,17z"/>
<path class="st1" d="M17.9005,7.138l-1.483,6.9154c0.1993,0.0427,0.3965,0.1072,0.5826,0.2146l4.75-8.2272L17.9005,7.138z"/>
<path class="st1" d="M15,17.732l-4.75,8.2272l3.8495-1.0972l1.483-6.9154C15.3832,17.904,15.1861,17.8395,15,17.732z"/>
<path class="st1" d="M13.2148,7.375l2.1733,6.7304C15.5822,14.0427,15.7852,14,16,14V4.5L13.2148,7.375z"/>
<path class="st1" d="M16,18v9.5l2.7852-2.875l-2.1733-6.7304C16.4178,17.9573,16.2148,18,16,18z"/>
<path class="st1" d="M9.2755,9.9231l5.2474,4.742c0.1366-0.1513,0.2911-0.2898,0.4771-0.3972l-4.75-8.2272L9.2755,9.9231z"/>
<path class="st1" d="M17,17.732l4.75,8.2272l0.9745-3.8824l-5.2474-4.742C17.3405,17.4861,17.1861,17.6246,17,17.732z"/>
<path class="st1" d="M7.138,14.0995l6.9154,1.483c0.0427-0.1993,0.1072-0.3965,0.2146-0.5826l-8.2272-4.75L7.138,14.0995z"/>
<path class="st1" d="M17.732,17l8.2272,4.75l-1.0972-3.8495l-6.9154-1.483C17.904,16.6168,17.8395,16.8139,17.732,17z"/>
</svg>
